<?xml version="1.0" standalone="no"?>
<!DOCTYPE svg PUBLIC "-//W3C//DTD SVG 20010904//EN"
 "http://www.w3.org/TR/2001/REC-SVG-20010904/DTD/svg10.dtd">
<svg version="1.0" xmlns="http://www.w3.org/2000/svg"
 width="224.000000pt" height="194.000000pt" viewBox="0 0 224.000000 194.000000"
 preserveAspectRatio="xMidYMid meet">
<metadata>
Created by potrace 1.10, written by Peter Selinger 2001-2011
</metadata>
<g transform="translate(0.000000,194.000000) scale(0.100000,-0.100000)"
fill="#000000" stroke="none">
<path d="M1099 1806 c-8 -22 -21 -37 -36 -41 -13 -3 -23 -10 -23 -15 0 -7 -6
-7 -17 -1 -36 19 -99 37 -115 34 -22 -5 -23 -22 -3 -29 27 -11 64 -86 61 -124
-3 -35 -3 -35 -72 -47 -93 -16 -94 -16 -94 7 0 11 -6 20 -13 20 -19 0 -47 -33
-47 -56 0 -10 -4 -25 -9 -32 -6 -10 -11 -10 -21 3 -9 11 -11 21 -4 29 56 77
56 85 -14 120 -27 13 -61 40 -75 60 -26 34 -36 37 -88 27 -19 -3 -17 -35 3
-52 13 -10 17 -18 11 -19 -32 -1 -8 -21 42 -35 59 -18 77 -32 48 -41 -10 -3
-31 -12 -46 -20 -36 -18 -47 -18 -47 0 0 7 -7 19 -15 26 -8 7 -15 20 -15 30 0
23 -24 32 -64 24 -44 -8 -67 -28 -72 -63 -8 -48 26 -88 80 -96 l44 -7 -5 -38
c-4 -29 1 -48 21 -83 l26 -45 -49 -31 c-36 -23 -56 -30 -74 -26 -25 7 -52 -15
-29 -23 7 -2 12 -8 12 -13 0 -4 -7 -6 -15 -3 -10 4 -18 -2 -24 -17 -10 -29 -6
-38 23 -48 16 -7 31 0 66 29 25 20 71 47 102 59 81 32 88 44 63 104 -7 17 -4
16 46 -3 30 -11 71 -20 92 -20 25 0 37 -4 37 -14 0 -8 14 -26 32 -41 l32 -27
-23 -19 c-28 -23 -76 -24 -124 -4 -50 21 -66 19 -60 -4 7 -27 -27 -42 -95 -42
-31 0 -66 -2 -76 -6 -19 -5 -19 -6 -2 -18 35 -26 16 -58 -56 -92 -38 -18 -68
-36 -68 -40 0 -5 10 -13 23 -18 31 -14 32 -53 3 -118 -32 -68 -32 -80 -6 -72
29 9 46 -8 64 -63 24 -70 55 -117 69 -103 20 20 63 12 105 -19 23 -17 45 -30
48 -30 12 0 74 -71 74 -85 0 -7 -7 -21 -16 -30 -22 -21 -9 -35 54 -56 40 -14
47 -20 47 -43 -1 -34 17 -39 85 -21 l55 14 -58 -3 c-50 -2 -57 -1 -52 14 7 21
-24 43 -82 60 -39 12 -40 13 -27 38 11 22 11 30 -4 55 -9 16 -23 31 -29 34
-19 8 -16 22 10 44 22 20 22 20 0 10 -31 -16 -41 -13 -19 4 11 8 29 15 40 15
16 0 21 -7 22 -30 1 -19 -3 -27 -10 -23 -6 4 -6 0 1 -9 7 -8 10 -18 6 -21 -3
-4 0 -14 8 -23 8 -9 14 -24 14 -33 0 -9 6 -15 13 -14 6 2 12 0 12 -5 0 -8 56
-72 63 -72 3 0 26 -9 52 -21 l47 -21 -26 -27 c-34 -35 -33 -44 3 -36 21 4 30
2 35 -10 7 -19 -32 -84 -68 -113 -14 -11 -26 -23 -26 -26 0 -9 68 -7 74 3 3 4
17 6 31 3 14 -2 31 1 39 7 10 9 16 8 26 -4 7 -8 18 -15 24 -15 7 0 12 -9 13
-21 2 -22 20 -49 34 -49 4 0 13 15 20 34 8 22 21 37 36 41 13 3 23 10 23 15 0
7 6 7 18 1 35 -19 98 -37 115 -34 21 5 22 22 2 29 -27 11 -64 86 -61 124 3 33
6 35 47 42 24 5 49 6 56 3 7 -2 15 0 18 5 12 19 45 11 45 -10 0 -25 22 -26 43
-2 20 21 21 44 6 75 -10 21 -10 21 5 3 11 -14 16 -16 16 -6 0 11 4 10 17 -3
12 -12 15 -21 8 -31 -58 -78 -57 -85 13 -120 27 -13 61 -40 75 -60 26 -34 36
-37 88 -27 19 3 17 35 -3 52 -13 10 -17 18 -10 19 31 1 7 21 -43 35 -59 18
-77 32 -48 41 10 3 31 12 46 20 36 18 47 18 47 0 0 -7 7 -19 15 -26 8 -7 15
-20 15 -30 0 -23 24 -32 64 -24 44 8 67 28 72 63 8 48 -26 88 -80 96 l-44 7 5
38 c4 29 -1 48 -21 83 l-26 45 49 31 c36 23 56 30 74 26 25 -7 52 15 29 23 -7
2 -12 8 -12 13 0 4 7 6 15 3 10 -4 18 2 24 17 10 29 6 38 -23 48 -16 7 -31 0
-66 -29 -25 -20 -71 -47 -102 -59 -81 -32 -88 -44 -63 -104 7 -17 4 -16 -46 3
-30 11 -71 20 -91 20 -25 0 -38 5 -38 13 0 16 -42 57 -58 57 -7 0 -12 -7 -12
-15 0 -11 -5 -12 -25 -5 -24 9 -30 4 -26 -22 0 -5 -6 -8 -14 -8 -36 0 -10 -17
43 -28 31 -6 66 -13 77 -16 11 -2 -5 -4 -35 -5 -30 -1 -71 -5 -91 -10 -25 -6
-49 -4 -79 6 -40 14 -45 14 -57 -2 -9 -13 -9 -23 -2 -37 13 -25 40 -34 122
-42 56 -6 67 -5 67 8 0 8 2 21 5 28 8 21 -41 17 -57 -5 -16 -22 -51 -12 -83
22 l-19 22 28 -11 c18 -6 57 -8 102 -4 70 6 74 6 74 -14 0 -15 -5 -19 -20 -15
-11 3 -20 1 -20 -5 0 -6 8 -13 18 -15 15 -4 15 -5 1 -6 -9 0 -19 -7 -22 -13
-3 -10 10 -13 47 -13 49 0 51 -1 54 -29 6 -53 -35 -56 -98 -6 -26 20 -40 25
-55 19 -18 -8 -17 -8 5 -6 14 1 25 -3 25 -9 0 -7 11 -21 25 -33 40 -33 0 -26
-47 9 -23 17 -44 26 -47 21 -3 -5 6 -18 21 -29 43 -31 20 -37 -30 -8 -51 30
-83 33 -109 9 -14 -13 -21 -14 -30 -5 -18 18 -28 15 -38 -13 -9 -24 -56 -52
-68 -41 -3 3 7 10 21 15 22 8 57 55 57 76 0 15 -22 2 -32 -20 -13 -28 -28 -33
-28 -9 0 8 -5 12 -10 9 -6 -4 -8 -16 -4 -27 5 -16 2 -19 -18 -16 -14 2 -24 11
-26 24 -3 21 1 24 73 49 12 4 15 9 8 12 -7 2 -22 -1 -34 -7 -16 -9 -24 -9 -33
0 -8 9 -8 14 2 17 19 7 7 19 -44 43 -57 28 -101 92 -86 124 10 21 11 21 11 -3
1 -27 72 -101 97 -101 8 0 12 -4 9 -10 -3 -5 -2 -10 4 -10 5 0 17 -3 25 -6 12
-5 15 -2 10 10 -3 9 -2 16 4 16 5 0 12 -7 16 -15 3 -8 13 -15 23 -15 15 0 14
3 -5 16 -12 8 -22 24 -22 35 0 27 36 25 43 -3 4 -12 9 -19 12 -16 4 3 2 15 -4
26 -6 11 -8 27 -5 36 3 8 -4 25 -15 37 -12 13 -21 17 -21 10 0 -8 -10 -11 -27
-9 -31 3 -43 38 -23 63 10 13 16 12 41 0 37 -19 51 -19 47 2 -6 31 51 36 108
8 62 -30 64 -30 57 -5 -5 17 0 20 26 20 18 0 49 -9 69 -19 37 -19 38 -19 61 0
28 23 76 24 124 4 50 -21 66 -19 60 4 -7 27 27 42 95 42 31 0 66 2 76 6 19 5
19 6 2 18 -35 26 -16 58 57 92 37 18 67 36 67 40 0 5 -10 13 -22 18 -32 14
-33 53 -4 118 32 68 32 80 6 72 -29 -9 -46 8 -64 63 -24 70 -55 117 -69 103
-20 -20 -62 -12 -103 19 -21 16 -43 30 -48 30 -14 0 -76 70 -76 85 0 7 7 21
16 30 22 21 9 35 -54 56 -40 14 -47 20 -47 43 1 34 -17 39 -85 21 l-55 -14 58
3 c38 2 56 -1 54 -8 -2 -6 -12 -10 -21 -10 -9 1 -16 0 -16 -1 0 -6 105 -53
132 -60 24 -6 25 -8 12 -33 -11 -22 -11 -30 4 -55 9 -16 23 -31 30 -34 19 -8
15 -22 -14 -47 -25 -21 -26 -25 -16 -62 5 -21 10 -30 11 -20 1 17 7 18 55 13
84 -8 158 -55 193 -121 20 -38 18 -133 -3 -186 -20 -50 -83 -101 -162 -131
-65 -24 -244 -38 -469 -35 -72 0 -129 -2 -127 -6 3 -4 -4 -12 -15 -18 -12 -6
-26 -20 -32 -32 -16 -29 -29 -89 -19 -83 4 3 15 -6 24 -19 8 -14 25 -27 36
-31 25 -8 26 -35 1 -35 -26 0 -83 41 -98 70 -7 14 -13 41 -13 61 0 31 8 44 50
83 28 26 58 46 68 45 9 -1 24 1 32 4 8 4 42 8 75 10 33 2 18 3 -32 3 -56 -1
-89 2 -84 7 5 5 123 13 263 18 297 10 346 20 411 84 56 57 56 147 -1 208 -14
15 -21 27 -14 27 19 0 60 -63 67 -102 28 -152 -101 -228 -389 -228 -60 0 -107
-3 -103 -6 7 -7 215 -6 266 2 66 10 139 35 168 57 66 51 78 77 71 160 -4 50
-42 127 -62 127 -5 0 -17 6 -25 14 -9 8 -39 17 -68 21 -46 6 -52 5 -58 -14 -3
-12 -12 -21 -19 -21 -7 0 -26 -10 -41 -21 -22 -18 -26 -28 -23 -56 4 -34 4
-34 -31 -29 -33 5 -34 5 -11 -6 14 -6 28 -10 33 -10 4 1 7 -3 7 -9 0 -6 -7 -9
-15 -5 -10 4 -15 -1 -15 -15 0 -11 -4 -17 -10 -14 -5 3 -10 2 -10 -3 0 -5 -7
-9 -15 -9 -22 0 -19 10 11 32 l26 19 -28 8 c-22 6 -36 3 -54 -11 -14 -10 -25
-23 -25 -29 0 -19 -12 -23 -25 -7 -18 22 -56 18 -97 -9 l-36 -25 -19 25 c-22
27 -52 27 -95 -1 -22 -15 -26 -15 -42 -1 -23 21 -49 20 -96 -4 -48 -24 -45
-24 -45 -1 0 29 -40 34 -73 11 -21 -16 -31 -18 -46 -10 -30 15 -56 12 -76 -10
-16 -18 -17 -21 -1 -44 9 -14 16 -32 16 -40 0 -20 32 -37 50 -26 7 4 20 6 29
3 14 -4 14 -3 1 7 -13 10 -12 11 4 6 11 -4 26 0 37 10 11 10 19 12 19 6 0 -17
-52 -53 -68 -47 -8 3 -20 1 -26 -4 -14 -12 -64 10 -83 36 -21 27 -16 77 10
105 18 19 41 29 94 37 89 16 352 22 376 9 11 -5 23 -6 30 -1 7 5 30 10 52 12
104 6 171 37 232 105 23 25 43 42 45 36 3 -10 10 71 11 122 0 15 3 25 7 23 4
-2 5 7 2 20 -2 14 -8 28 -13 31 -5 3 -9 14 -9 25 0 10 -5 19 -10 19 -6 0 -26
17 -45 39 -19 21 -58 48 -86 61 l-51 22 26 27 c34 35 33 44 -3 36 -21 -4 -30
-2 -35 10 -7 19 32 84 68 113 14 11 26 23 26 26 0 9 -68 7 -74 -3 -3 -4 -17
-6 -31 -3 -14 2 -31 -1 -39 -7 -10 -9 -16 -8 -26 4 -7 8 -19 15 -26 15 -8 0
-14 10 -14 23 0 22 -16 47 -31 47 -4 0 -13 -15 -20 -34z m31 -51 c-7 -8 -1
-10 19 -7 16 2 32 -1 35 -7 4 -6 1 -11 -6 -11 -7 0 -19 -10 -27 -22 -7 -13
-10 -20 -6 -16 4 4 14 1 22 -7 33 -34 92 6 62 42 -11 13 -9 15 16 12 17 -2 36
0 43 5 26 16 23 -3 -2 -19 -14 -10 -24 -21 -21 -25 3 -5 0 -21 -7 -35 -12 -26
-14 -27 -72 -21 -32 3 -90 6 -128 6 -66 0 -69 1 -79 27 -6 16 -22 43 -36 62
l-26 33 24 -7 c13 -4 26 -12 27 -16 2 -5 15 -9 30 -9 20 0 23 -3 14 -12 -29
-29 10 -68 48 -48 24 13 26 38 5 46 -20 8 -9 24 16 24 11 0 19 7 19 16 0 8 5
25 12 37 11 22 12 22 19 -7 5 -17 4 -35 -1 -41z m-538 -20 c2 3 11 -7 19 -21
8 -16 36 -36 67 -51 44 -20 53 -28 50 -46 -2 -12 -9 -21 -16 -19 -8 1 -11 -2
-7 -8 8 -13 -25 -26 -34 -13 -3 6 -14 7 -24 4 -17 -6 -16 -8 7 -19 30 -14 33
-27 9 -42 -15 -10 -14 -10 8 -6 17 4 31 0 38 -8 7 -8 23 -17 36 -20 14 -4 25
-11 25 -17 0 -6 -4 -7 -10 -4 -5 3 -10 2 -10 -4 0 -6 -11 -13 -25 -17 -14 -3
-25 -10 -25 -15 0 -12 3 -12 50 7 45 18 48 17 52 -14 4 -30 -68 -75 -82 -53
-4 8 -19 16 -32 17 -43 5 -83 17 -90 28 -15 23 -17 -3 -3 -37 21 -50 19 -66
-7 -76 -83 -32 -115 -48 -130 -66 -10 -11 -17 -16 -18 -11 0 5 -10 1 -22 -10
-13 -10 -18 -12 -11 -5 6 7 9 20 6 27 -3 8 5 17 19 23 46 17 118 72 118 90 0
10 -8 29 -18 42 -12 15 -20 43 -21 74 -1 54 -29 95 -64 95 -12 0 -17 5 -14 13
3 8 1 20 -3 28 -9 14 14 49 34 49 14 0 66 -51 66 -66 0 -27 23 -25 86 6 l64
33 -32 23 c-17 13 -43 24 -57 24 -18 0 -22 3 -13 9 11 6 10 10 -3 15 -13 5
-15 10 -6 19 8 10 7 17 -2 27 -10 12 -9 12 4 2 9 -6 18 -10 21 -7z m468 -31
c0 -8 -9 -14 -20 -14 -19 0 -27 19 -14 33 10 9 34 -4 34 -19z m160 1 c0 -9 -9
-15 -25 -15 -24 0 -32 10 -18 23 12 13 43 7 43 -8z m34 -85 c7 -7 0 -10 -17
-10 -15 0 -27 -4 -27 -10 0 -5 -7 -10 -15 -10 -14 0 -55 -54 -55 -72 0 -18 21
-6 32 17 14 30 33 33 25 4 -4 -17 -3 -18 9 -8 8 7 12 20 8 31 -5 16 -2 19 18
16 14 -2 24 -11 26 -24 3 -21 -1 -24 -73 -49 -12 -4 -15 -9 -8 -12 7 -2 22 1
34 7 16 9 24 9 33 0 8 -9 8 -14 -2 -17 -19 -7 -7 -19 44 -43 92 -45 124 -153
70 -239 -15 -22 -31 -41 -37 -41 -5 0 2 16 16 35 34 44 42 102 21 143 -17 32
-74 82 -95 82 -7 0 -10 4 -7 9 3 5 -5 11 -18 13 -17 4 -23 1 -19 -9 7 -19 -4
-16 -27 7 -11 11 -28 20 -37 20 -12 0 -8 -6 13 -19 17 -10 34 -28 37 -40 4
-17 1 -21 -19 -21 -14 0 -24 6 -24 14 0 8 -5 18 -11 22 -8 4 -9 -1 -3 -17 4
-13 7 -32 6 -43 0 -10 8 -27 19 -39 11 -12 19 -15 19 -8 0 20 54 9 58 -11 3
-15 -4 -18 -48 -18 -47 0 -51 -2 -48 -22 5 -37 -46 -43 -108 -13 -62 30 -64
30 -57 5 4 -17 0 -20 -25 -20 -48 0 -101 31 -102 58 0 20 2 21 21 11 17 -8 23
-8 30 2 4 7 5 17 3 21 -3 4 2 8 10 8 37 0 12 17 -41 28 -32 6 -67 13 -78 16
-11 2 5 4 35 5 30 1 74 6 97 11 34 8 50 7 79 -7 34 -17 36 -17 50 1 9 14 10
24 3 38 -13 25 -40 34 -121 42 -57 6 -68 5 -68 -8 0 -8 -2 -21 -5 -28 -8 -21
41 -17 57 5 16 22 51 12 83 -22 l19 -22 -28 11 c-18 6 -57 8 -102 4 -70 -6
-74 -6 -74 14 0 15 5 19 20 15 11 -3 20 0 20 6 0 6 -8 12 -17 12 -16 1 -16 2
-1 6 9 2 18 10 21 16 3 8 -11 12 -47 12 -50 0 -51 1 -54 31 -4 39 19 50 59 29
16 -8 43 -22 60 -31 16 -9 33 -14 36 -11 2 3 -8 12 -24 21 -16 8 -35 22 -42
30 -23 28 11 19 56 -14 23 -17 44 -26 47 -21 3 5 -6 18 -21 29 -43 31 -20 37
30 8 54 -32 79 -33 117 -4 31 23 40 41 16 32 -8 -3 -29 -1 -48 4 -18 4 -44 5
-58 1 -21 -6 -11 -14 13 -10 4 0 7 -6 7 -14 0 -17 25 -20 35 -5 3 6 11 10 17
10 7 0 6 -6 -2 -15 -18 -22 -53 -18 -79 8 -19 21 -20 26 -7 36 14 12 32 13
124 10 47 -2 48 -3 28 -41 -8 -16 -10 -28 -5 -28 5 0 14 12 19 26 6 14 20 29
33 32 37 10 -37 25 -125 25 -45 0 -78 4 -78 10 0 13 261 0 274 -13z m51 -100
c3 -5 15 -10 26 -10 26 0 96 -69 114 -114 40 -94 8 -213 -71 -267 -80 -55
-109 -60 -374 -70 -135 -4 -267 -12 -294 -18 -62 -11 -109 -56 -108 -100 1
-48 9 -64 46 -89 42 -28 83 -31 134 -8 34 16 40 23 48 64 7 34 14 47 26 47 10
0 23 6 30 13 21 21 37 13 44 -23 21 -114 -73 -220 -206 -232 -99 -9 -179 26
-233 104 -25 34 -29 50 -28 101 1 83 24 136 78 177 98 75 195 91 535 90 91 0
164 3 162 7 -3 4 5 12 16 18 24 13 50 60 50 91 0 22 -51 79 -70 79 -5 0 -10 7
-10 15 0 44 95 -10 123 -70 16 -32 17 -45 8 -74 -14 -48 -55 -91 -89 -93 -33
-1 -43 -3 -62 -11 -8 -4 -44 -8 -80 -10 l-65 -3 75 -2 c41 -1 99 5 129 13 30
8 50 10 45 6 -27 -24 -98 -33 -324 -42 -301 -10 -348 -20 -413 -84 -56 -57
-56 -147 1 -207 14 -16 21 -28 14 -28 -19 0 -60 63 -67 102 -28 152 101 228
389 228 60 0 106 3 103 7 -4 3 -62 5 -129 4 -279 -4 -394 -76 -376 -235 5 -41
45 -116 62 -116 5 0 18 -7 28 -17 13 -12 39 -16 101 -17 77 -1 86 1 121 28 21
15 46 42 57 60 20 32 27 92 9 81 -5 -3 -10 -2 -10 4 0 5 6 12 13 14 7 3 6 6
-5 6 -12 1 -16 -7 -16 -28 1 -39 -31 -91 -69 -114 -36 -21 -115 -25 -165 -8
-22 7 -43 26 -61 54 -24 36 -28 49 -23 90 2 27 13 58 22 68 21 24 76 58 101
64 10 3 36 9 58 14 22 5 63 9 90 9 28 0 52 1 55 2 3 1 73 3 155 5 83 1 168 6
190 9 91 15 184 87 186 144 3 68 -5 99 -34 142 -36 53 -43 59 -79 66 -15 4
-25 11 -22 16 3 5 0 15 -6 23 -6 8 -9 19 -5 25 8 13 42 13 50 0z m-475 -62 c0
-7 -5 -20 -10 -28 -8 -12 -10 -9 -10 13 0 15 5 27 10 27 6 0 10 -6 10 -12z
m100 -10 c0 -4 -5 -8 -11 -8 -5 0 -7 -4 -4 -10 3 -6 -1 -7 -9 -4 -26 10 -19
31 9 31 8 0 15 -4 15 -9z m327 -110 c30 -28 30 -72 0 -102 -19 -19 -39 -24
-106 -30 -46 -4 -85 -5 -89 -2 -3 3 13 6 36 6 30 0 48 7 68 25 27 25 40 32 30
17 -2 -4 -1 -14 3 -20 9 -14 61 0 61 17 0 4 3 22 6 38 5 25 2 31 -21 41 -15 7
-35 10 -45 7 -11 -3 -20 0 -24 10 -9 24 53 19 81 -7z m-420 5 c-4 -3 -2 -12 5
-20 12 -15 5 -28 -11 -18 -6 3 -16 15 -21 26 -9 16 -7 19 11 19 12 0 19 -3 16
-7z m53 -26 c0 -4 -9 -3 -20 3 -11 6 -20 15 -20 20 0 6 9 5 20 -2 11 -7 20
-16 20 -21z m779 -53 c19 -9 44 -13 57 -10 22 6 27 -1 59 -69 23 -51 42 -79
60 -87 l25 -11 -19 -31 c-31 -50 -36 -97 -13 -127 l20 -25 -31 -13 c-18 -8
-47 -25 -65 -39 -29 -21 -33 -29 -28 -53 5 -29 5 -29 -40 -29 -52 0 -112 -22
-120 -45 -6 -14 -9 -14 -32 1 -32 21 -114 15 -142 -11 -17 -15 -22 -16 -36 -4
-9 8 -29 19 -43 26 -33 14 -4 17 34 3 14 -5 24 -6 21 -1 -3 5 11 9 32 9 62 1
145 12 182 24 83 26 172 91 185 137 6 18 9 20 16 10 6 -9 9 9 10 51 3 93 -1
121 -19 160 -14 30 -80 99 -89 93 -1 -2 -28 7 -58 18 -34 13 -69 19 -90 16
-25 -3 -35 -1 -35 8 0 17 27 45 43 45 7 0 1 -9 -13 -20 -30 -23 -14 -27 18 -4
13 9 19 20 15 27 -4 6 9 1 28 -11 18 -13 49 -30 68 -38z m-768 -39 c44 -25 34
-34 -16 -15 -17 7 -24 7 -20 0 4 -6 -13 -10 -42 -11 -118 -2 -173 -14 -243
-50 -49 -25 -101 -73 -116 -106 -7 -17 -13 -22 -15 -13 -1 8 -5 -16 -9 -55 -9
-100 7 -156 61 -211 23 -24 45 -42 47 -39 2 2 28 -5 57 -16 47 -18 62 -19 135
-10 69 9 87 15 120 43 22 18 47 48 57 66 19 35 34 40 54 16 14 -17 15 -16 -41
-50 -31 -19 -70 -77 -70 -104 0 -13 -7 -20 -19 -20 -28 0 -73 19 -67 28 7 11
-77 2 -92 -11 -7 -5 -11 -16 -8 -24 8 -21 -8 -15 -54 18 -31 23 -56 32 -88 34
l-45 1 -33 72 c-23 49 -42 76 -59 84 l-25 11 19 33 c31 53 36 96 13 124 -20
24 -20 24 2 36 15 8 25 8 35 0 11 -8 13 -8 8 0 -4 7 8 23 29 39 31 23 35 32
30 56 -5 29 -5 29 40 29 52 0 112 22 120 45 6 14 9 14 32 -1 30 -20 117 -13
141 11 19 18 11 20 62 -10z m149 -16 c0 -4 -18 -7 -40 -6 -36 1 -38 2 -22 18
13 12 22 14 40 6 12 -6 22 -14 22 -18z m580 -34 c32 -18 25 -18 -25 0 -22 8
-31 14 -20 14 11 0 31 -6 45 -14z m26 -42 c48 -61 56 -142 18 -185 -23 -24
-77 -58 -103 -63 -12 -2 -25 -6 -30 -9 -16 -10 -116 -17 -301 -21 -102 -2
-200 -6 -218 -10 -18 -3 -42 0 -54 6 -20 11 -20 12 -4 21 10 6 131 14 268 19
138 4 274 13 303 19 85 18 124 75 101 148 -16 48 -115 79 -165 53 -14 -8 -21
-8 -21 -1 0 16 40 52 54 47 6 -3 20 1 30 8 15 11 26 11 63 0 25 -7 51 -22 59
-32z m-61 -59 c17 -16 25 -34 25 -56 0 -89 -62 -108 -364 -112 -108 -2 -153 1
-149 8 3 6 0 5 -8 -1 -7 -7 -30 -13 -50 -13 -21 0 -49 -4 -63 -10 -22 -8 -26
-7 -26 8 0 15 -2 15 -11 2 -9 -13 -10 -13 -6 0 2 8 10 14 16 12 6 -1 14 4 17
12 3 8 13 12 24 9 10 -3 35 7 57 21 l38 26 15 -21 c21 -27 48 -30 92 -8 31 16
38 17 48 4 17 -20 48 -19 95 5 22 11 41 20 42 20 2 0 3 -9 3 -20 0 -11 4 -20
9 -20 5 0 16 -2 24 -6 8 -3 27 6 43 19 24 21 31 22 42 11 18 -20 56 -17 77 6
16 18 17 21 1 44 -9 14 -16 32 -16 40 0 20 -32 37 -50 26 -7 -4 -20 -6 -28 -2
-10 3 -13 1 -8 -6 5 -8 2 -10 -8 -6 -9 3 -16 10 -16 14 0 11 28 20 44 14 8 -3
17 -1 20 4 9 15 42 3 71 -24z m-42 -29 c-1 -10 6 -24 14 -31 19 -13 11 -41
-14 -51 -11 -4 -21 1 -31 15 -12 18 -18 20 -34 11 -25 -14 -41 0 -36 32 2 19
8 23 29 21 17 -1 29 3 33 14 8 22 41 13 39 -11z m-224 -22 c-12 -15 -12 -16 3
-11 10 5 18 0 21 -12 3 -12 -2 -20 -13 -23 -21 -5 -34 35 -17 52 17 17 21 13
6 -6z m-53 -28 c4 -8 13 -15 21 -15 8 0 13 -5 11 -11 -2 -6 -7 -10 -11 -10 -4
1 -14 1 -23 1 -11 0 -14 6 -9 20 8 26 -1 25 -50 -5 -50 -30 -91 -33 -100 -5
-8 26 -23 25 -67 -5 -38 -26 -58 -31 -58 -16 0 13 77 51 105 51 15 0 26 -7 30
-20 8 -24 33 -20 75 11 30 22 69 24 76 4z m-439 -10 c8 -22 -6 -33 -17 -15
-13 20 -12 30 0 30 6 0 13 -7 17 -15z m143 -4 c0 -3 -3 -16 -6 -28 -6 -22 -6
-22 -26 -3 -25 23 -18 51 11 43 12 -3 21 -8 21 -12z m-260 -12 c9 -16 14 -18
26 -9 22 19 46 4 42 -27 -2 -23 -7 -28 -27 -25 -13 1 -29 -5 -36 -15 -16 -22
-49 -10 -40 16 3 12 0 21 -10 25 -20 7 -19 33 3 45 25 15 30 14 42 -10z m704
5 c4 -9 4 -19 2 -21 -8 -8 -26 8 -26 23 0 19 16 18 24 -2z m-548 -106 c-10
-42 -96 -121 -113 -105 -2 3 5 8 16 12 26 8 79 69 87 101 4 14 9 23 11 20 3
-3 3 -15 -1 -28z m-241 -93 c22 -8 31 -14 20 -14 -11 0 -31 6 -45 14 -32 18
-25 18 25 0z m465 -37 c-8 -7 -20 -19 -26 -26 -10 -10 -15 -10 -28 4 -10 9
-24 13 -34 9 -11 -4 -14 -3 -7 4 6 5 30 11 55 14 25 2 47 4 50 5 2 1 -3 -4
-10 -10z m152 -9 c-13 -12 -22 -14 -39 -6 -35 16 -27 26 17 24 36 -1 38 -2 22
-18z m581 10 c-6 -6 -9 -18 -6 -25 3 -8 -3 -17 -13 -20 -40 -14 -124 -78 -124
-94 0 -10 8 -28 18 -41 12 -15 20 -43 21 -74 1 -54 29 -95 64 -95 12 0 17 -5
14 -13 -3 -8 -1 -20 3 -28 10 -15 -15 -49 -35 -49 -14 0 -65 52 -65 67 0 26
-24 23 -86 -7 l-64 -33 32 -23 c17 -13 43 -24 57 -24 18 0 22 -3 13 -9 -11 -6
-10 -10 4 -15 16 -6 15 -8 -2 -28 -11 -12 -14 -18 -7 -15 6 4 14 4 17 -1 3 -5
-2 -9 -10 -9 -8 0 -23 14 -32 30 -10 18 -38 39 -70 54 -44 20 -53 28 -50 46 2
12 9 21 16 19 6 -1 11 4 10 10 -2 7 8 14 21 16 13 2 21 0 17 -6 -4 -6 3 -8 15
-5 21 6 21 7 -5 20 -30 16 -33 28 -8 43 14 10 13 10 -9 6 -17 -4 -31 0 -38 8
-7 8 -23 17 -36 20 -14 4 -25 11 -25 17 0 6 5 7 10 4 6 -3 10 -2 10 4 0 6 11
13 25 17 14 3 25 10 25 15 0 12 -5 11 -47 -6 -47 -20 -47 -20 -60 16 -7 17 -9
29 -6 25 3 -3 24 4 45 16 32 18 41 20 48 8 4 -7 19 -15 32 -16 43 -5 83 -17
90 -28 15 -23 17 3 3 37 -21 50 -19 66 8 76 84 33 114 48 125 63 7 10 17 16
22 13 4 -3 13 2 20 10 7 8 15 15 18 15 3 0 1 -5 -5 -11z m-836 -118 c14 -6 33
-9 43 -6 11 3 20 0 24 -10 4 -11 -2 -15 -26 -15 -43 0 -78 34 -76 74 l1 31 4
-31 c3 -22 12 -35 30 -43z m-179 10 c8 -9 11 -10 7 -3 -4 8 2 12 17 11 13 0
17 -3 11 -6 -20 -7 -16 -24 20 -75 21 -31 43 -52 65 -59 20 -7 32 -17 32 -29
0 -10 5 -20 12 -22 20 -7 -2 -28 -29 -28 -20 0 -23 3 -14 13 8 11 5 13 -18 9
-55 -8 -135 91 -144 180 -3 30 -1 35 12 30 9 -3 22 -13 29 -21z m610 -9 c13
-20 13 -22 -7 -22 -12 0 -20 4 -16 9 3 5 1 12 -5 16 -14 9 -13 28 2 23 6 -2
18 -14 26 -26z m-38 -12 c0 -6 -9 -5 -20 2 -11 7 -20 16 -20 21 0 4 9 3 20 -3
11 -6 20 -15 20 -20z m-43 -103 c-4 -13 -37 -18 -37 -6 0 5 5 9 11 9 5 0 7 4
4 10 -3 6 1 7 10 4 9 -4 14 -11 12 -17z m79 -25 c-12 -11 -18 7 -10 30 l8 23
4 -23 c2 -13 1 -26 -2 -30z m-178 -95 c30 -32 15 -49 -44 -48 -27 1 -64 2 -81
2 -37 0 -36 -1 -23 34 5 14 15 23 20 20 7 -4 8 -11 1 -18 -7 -9 11 -13 67 -15
51 -1 72 1 62 7 -8 5 -18 7 -22 5 -4 -3 -8 2 -8 10 0 19 -25 21 -36 4 -4 -7
-3 -8 4 -4 7 4 12 2 12 -3 0 -13 -3 -13 -24 -5 -13 5 -14 9 -5 20 17 21 53 17
77 -9z m-65 -59 c44 -1 77 -5 77 -11 0 -12 -261 0 -274 13 -5 5 18 6 55 4 35
-3 99 -6 142 -6z m-1 -28 c66 0 69 -1 79 -27 6 -16 22 -43 36 -62 l26 -33 -24
7 c-13 4 -25 12 -27 16 -2 5 -15 9 -30 9 -20 0 -23 3 -14 12 29 29 -10 68 -48
48 -24 -13 -26 -38 -5 -46 20 -8 9 -24 -16 -24 -11 0 -19 -7 -19 -16 0 -8 -5
-25 -12 -37 -11 -22 -12 -22 -19 7 -5 16 -5 34 -1 40 12 19 13 48 1 41 -6 -4
-8 -13 -5 -21 6 -16 -39 -20 -49 -4 -3 6 0 10 7 10 7 0 18 8 25 19 10 16 8 20
-13 30 -36 16 -52 14 -64 -10 -9 -15 -8 -24 2 -36 11 -14 9 -15 -20 -11 -18 2
-35 1 -38 -4 -3 -4 -11 -8 -17 -8 -7 1 2 12 18 26 17 15 24 23 18 20 -9 -5
-11 -2 -7 8 3 9 11 13 17 9 5 -3 7 -1 4 5 -4 5 -4 18 0 27 5 15 15 17 66 11
33 -3 91 -6 129 -6z m-114 -52 c-7 -20 -48 -23 -48 -4 0 11 9 16 26 16 16 0
24 -5 22 -12z m152 -1 c0 -19 -10 -27 -26 -20 -21 8 -17 33 6 33 11 0 20 -6
20 -13z"/>
<path d="M585 1540 c4 -8 17 -25 28 -37 l20 -23 -21 -23 -21 -22 27 -13 c15
-7 21 -7 15 -1 -8 8 -8 19 0 40 11 27 9 32 -22 62 -19 17 -30 25 -26 17z"/>
<path d="M1122 1381 c4 -29 -11 -34 -105 -35 -55 -1 -68 -4 -73 -18 -3 -10
-10 -18 -16 -18 -6 0 -6 -6 2 -15 17 -20 27 -19 33 5 4 16 14 20 52 20 25 0
54 4 64 9 12 7 26 6 44 -4 l25 -13 -5 37 c-3 20 -10 41 -15 46 -6 6 -9 2 -6
-14z"/>
<path d="M1607 529 c8 -8 8 -19 0 -40 -11 -27 -9 -32 22 -62 35 -33 33 -19 -2
21 l-20 22 21 23 21 22 -27 13 c-15 7 -21 7 -15 1z"/>
<path d="M1280 656 c0 -21 -18 -29 -62 -28 -22 1 -47 -2 -57 -7 -12 -7 -26 -5
-44 4 l-25 13 5 -37 c3 -20 10 -40 15 -46 6 -6 9 -2 6 14 -4 29 11 34 105 35
55 1 68 4 73 18 3 10 10 18 16 18 6 0 6 6 -2 15 -16 19 -30 19 -30 1z"/>
<path d="M1225 455 l-30 -14 36 2 c25 1 35 6 32 15 -3 6 -6 12 -7 11 0 0 -14
-7 -31 -14z"/>
</g>
</svg>
