<?xml version="1.0" standalone="no"?>
<!DOCTYPE svg PUBLIC "-//W3C//DTD SVG 20010904//EN"
 "http://www.w3.org/TR/2001/REC-SVG-20010904/DTD/svg10.dtd">
<svg version="1.0" xmlns="http://www.w3.org/2000/svg"
 width="224.000000pt" height="194.000000pt" viewBox="0 0 224.000000 194.000000"
 preserveAspectRatio="xMidYMid meet">
<metadata>
Created by potrace 1.10, written by Peter Selinger 2001-2011
</metadata>
<g transform="translate(0.000000,194.000000) scale(0.050000,-0.050000)"
fill="#000000" stroke="none">
<path d="M2199 3614 c-36 -98 -114 -123 -247 -77 -126 43 -260 15 -141 -30
130 -50 159 -309 37 -329 -254 -41 -248 -41 -248 2 0 22 -12 40 -27 40 -38 0
-93 -66 -93 -112 -1 -67 -30 -95 -61 -57 -17 21 -20 41 -8 58 114 154 112 168
-27 239 -53 27 -121 81 -151 120 -45 59 -65 70 -116 64 -85 -10 -130 -81 -66
-105 19 -7 26 -26 19 -48 -10 -31 7 -43 99 -69 120 -35 154 -64 97 -81 -20 -6
-63 -25 -95 -41 -64 -33 -124 15 -152 121 -16 61 -153 67 -225 11 -113 -89
-42 -267 114 -291 l88 -13 -10 -75 c-8 -58 2 -97 42 -166 l53 -90 -96 -62
c-62 -39 -118 -60 -156 -57 -45 3 -58 -4 -56 -31 1 -19 -6 -35 -16 -35 -28 0
-55 -87 -34 -113 42 -52 95 -42 177 31 45 40 134 93 199 118 150 58 176 88
147 166 -27 69 -5 75 108 28 40 -17 107 -32 149 -34 47 -1 77 -12 77 -28 0
-13 29 -49 64 -79 l65 -54 -47 -37 c-56 -46 -138 -48 -235 -8 -97 41 -149 39
-133 -3 22 -57 -50 -87 -207 -87 -144 0 -197 -21 -136 -56 72 -40 26 -111
-116 -179 -146 -69 -159 -85 -90 -115 64 -28 66 -97 7 -230 -64 -143 -65 -164
-6 -149 59 15 79 -10 135 -161 52 -140 96 -201 127 -170 37 37 124 21 203 -39
44 -33 87 -60 97 -60 80 -3 171 -179 119 -231 -42 -42 -16 -70 109 -112 81
-28 94 -39 93 -85 -1 -67 43 -82 152 -53 97 26 119 15 72 -36 -47 -53 -41 -70
20 -55 112 28 78 -126 -52 -235 -34 -28 -61 -56 -61 -63 0 -18 137 -13 148 6
6 10 34 13 62 8 27 -5 61 0 75 11 32 26 97 -24 137 -105 40 -82 71 -84 99 -5
36 98 114 123 247 77 126 -43 260 -15 141 30 -51 20 -126 171 -120 242 7 84 4
83 132 93 60 5 129 16 154 23 37 11 45 6 45 -29 0 -23 12 -42 27 -42 38 0 93
66 93 112 1 67 30 95 61 57 17 -21 20 -41 8 -58 -114 -154 -112 -168 27 -239
53 -27 121 -81 151 -120 45 -59 65 -70 116 -64 85 10 130 81 66 105 -19 7 -26
26 -19 48 10 31 -7 43 -99 69 -120 35 -154 64 -97 81 20 6 63 25 95 41 64 33
124 -15 152 -121 16 -61 153 -67 225 -11 113 89 42 267 -114 291 l-88 13 10
75 c8 58 -2 97 -42 166 l-53 90 96 62 c62 39 118 60 156 57 45 -3 58 4 56 31
-1 19 6 35 16 35 28 0 55 87 34 113 -42 52 -95 42 -177 -31 -45 -40 -134 -93
-199 -118 -150 -58 -176 -88 -147 -166 27 -69 5 -75 -107 -28 -40 16 -107 30
-149 30 -54 0 -78 9 -78 28 0 16 -29 53 -64 83 l-65 54 47 37 c56 46 138 48
235 8 97 -41 149 -39 133 3 -22 57 50 87 207 87 144 0 197 21 136 56 -72 40
-26 111 116 179 146 69 159 85 90 115 -64 28 -66 97 -7 230 64 143 65 164 6
149 -59 -15 -79 10 -135 161 -52 140 -96 201 -127 170 -37 -37 -124 -21 -203
39 -44 33 -86 60 -96 60 -76 3 -170 181 -121 230 43 43 18 70 -108 113 -81 28
-94 39 -93 85 1 67 -43 82 -152 53 -97 -26 -119 -15 -72 36 47 53 41 70 -20
55 -112 -28 -78 126 52 235 34 28 61 56 61 63 0 18 -137 13 -148 -6 -6 -10
-34 -13 -62 -8 -27 5 -61 0 -75 -11 -32 -26 -97 24 -137 105 -40 82 -71 84
-99 5z m56 -121 c-3 -62 3 -107 15 -108 11 -1 49 -13 85 -28 86 -34 151 16
108 85 -23 37 -21 40 19 35 30 -5 46 -22 48 -51 2 -24 -5 -39 -15 -33 -10 6
-16 -5 -14 -26 7 -72 -1 -81 -76 -78 -41 2 -157 5 -258 7 l-183 4 -31 78 c-17
43 -41 84 -52 91 -27 17 -27 51 -1 51 11 0 20 -13 20 -29 0 -21 17 -28 55 -23
30 4 44 3 30 -2 -30 -11 -31 -18 -6 -65 27 -49 76 -65 122 -40 46 24 51 76 9
92 -43 16 -16 47 42 47 28 0 45 8 39 18 -15 24 8 82 32 82 10 0 15 -48 12
-107z m-880 -181 c51 -23 84 -51 83 -70 -1 -21 -5 -23 -11 -7 -8 18 -20 14
-44 -13 -39 -45 -123 -75 -123 -44 0 12 17 33 39 46 36 23 36 26 -20 67 -32
24 -52 49 -45 56 7 7 -18 8 -55 2 -47 -9 -60 -6 -42 7 23 16 23 21 0 28 -23 8
-22 15 1 44 26 31 32 30 80 -22 29 -31 90 -73 137 -94z m745 98 c0 -17 -18
-30 -40 -30 -22 0 -40 13 -40 30 0 17 18 30 40 30 22 0 40 -13 40 -30z m320 0
c0 -19 -19 -30 -50 -30 -49 0 -64 19 -37 47 25 25 87 13 87 -17z m-1436 -164
c31 -29 56 -70 56 -90 0 -45 47 -46 120 -3 52 31 59 31 89 1 18 -18 47 -41 65
-51 56 -31 8 -65 -78 -54 -76 9 -79 7 -48 -26 44 -49 41 -74 -18 -151 -61 -80
-63 -114 -10 -162 48 -43 46 -45 -110 -130 -66 -36 -127 -78 -136 -93 -18 -30
-66 -36 -82 -10 -6 10 48 55 121 102 141 90 160 151 76 235 -17 17 -27 43 -21
57 5 14 16 58 23 96 10 53 21 67 44 58 21 -8 27 -4 17 12 -18 29 -66 30 -76 1
-4 -11 -24 -3 -45 20 -32 36 -33 42 -5 42 17 0 37 9 44 20 16 26 -25 100 -56
98 -18 -1 -18 -4 1 -11 14 -6 20 -20 13 -31 -7 -11 -3 -27 10 -35 13 -8 -12
-16 -55 -17 -74 -3 -78 0 -75 53 5 118 58 144 136 69z m1331 21 c91 -7 165
-21 165 -32 0 -11 -47 -13 -115 -6 -63 7 -184 14 -269 15 -85 1 -150 10 -144
19 12 20 137 22 363 4z m-110 -57 c30 -2 55 -10 55 -17 0 -7 0 -24 0 -38 0
-16 -6 -17 -15 -5 -14 19 -40 23 -233 30 -43 1 -70 10 -60 19 28 27 94 38 148
26 28 -7 75 -13 105 -15z m150 -32 c-31 -18 -95 -117 -95 -147 0 -31 44 -4 64
39 27 60 65 67 50 10 -6 -22 -3 -40 6 -40 20 0 48 62 42 95 -2 14 6 25 18 25
12 0 17 -8 11 -18 -6 -10 4 -23 21 -30 44 -17 5 -63 -66 -81 -58 -15 -148 -71
-113 -71 12 0 54 13 93 30 71 29 131 5 74 -30 -17 -11 -18 -19 -2 -29 37 -22
25 -56 -17 -46 -27 7 -35 2 -27 -17 15 -40 -7 -35 -54 12 -22 22 -56 40 -75
40 -23 0 -13 -13 30 -40 74 -45 90 -120 25 -120 -22 0 -40 12 -40 28 0 65 -56
76 -70 13 -7 -34 -26 -61 -42 -61 -15 0 -28 -8 -28 -19 0 -21 -384 -11 -520
14 -88 16 -87 17 80 32 212 19 263 18 288 -7 36 -36 108 -23 123 22 22 70 -46
117 -202 141 -77 11 -158 30 -182 41 -23 11 -62 14 -85 7 -30 -10 -41 -6 -38
12 4 18 -12 25 -49 21 -43 -4 -55 3 -55 33 0 59 49 90 99 64 47 -26 56 -51 12
-34 -17 6 -36 1 -43 -11 -8 -13 -5 -17 7 -9 11 7 27 -3 34 -22 13 -32 16 -32
45 5 24 30 29 32 20 6 -9 -24 -3 -31 17 -23 16 6 41 2 56 -11 15 -12 34 -15
43 -7 9 8 11 6 5 -6 -8 -13 25 -22 86 -25 55 -2 99 4 99 14 0 24 -77 42 -90
21 -12 -18 -188 81 -189 106 -2 27 38 16 76 -22 46 -46 99 -66 112 -44 6 10
-14 36 -44 59 -74 55 -13 57 85 2 39 -22 89 -40 112 -40 22 0 35 -8 29 -19 -6
-10 -3 -23 7 -29 10 -7 24 12 31 40 11 46 21 51 73 41 45 -9 62 -4 72 22 20
56 49 85 83 84 29 0 29 -3 -2 -21z m-335 -52 c0 -32 53 -34 72 -3 9 14 5 18
-9 9 -13 -8 -23 -5 -23 7 0 24 5 25 49 9 25 -10 27 -19 9 -40 -33 -40 -106
-34 -147 11 -34 37 -34 39 7 36 23 -2 42 -15 42 -29z m-622 -114 c13 -15 47
-34 75 -41 l51 -13 -45 -39 c-25 -21 -57 -39 -72 -39 -15 0 -27 -9 -27 -20 0
-26 5 -26 100 13 90 35 89 36 109 -27 11 -37 0 -51 -67 -85 -96 -49 -104 -50
-89 -11 7 19 -7 36 -39 49 -28 10 -61 35 -74 55 -22 34 -23 34 -12 -1 7 -20
12 -45 12 -55 0 -10 16 -19 35 -20 19 0 24 -5 11 -11 -13 -5 -49 3 -80 19 -31
16 -67 24 -81 20 -14 -5 -25 0 -25 11 0 11 17 17 38 13 20 -3 37 4 36 17 -3
131 8 171 51 179 25 5 51 10 58 11 6 2 23 -10 35 -25z m1153 9 c-6 -10 11 -43
39 -73 51 -55 59 -55 38 0 -7 18 -19 28 -27 23 -8 -5 -14 3 -14 17 0 55 193
-49 249 -134 190 -287 -30 -669 -403 -702 -213 -18 -866 -28 -803 -12 l60 15
-65 3 c-36 1 -65 -6 -65 -16 0 -21 -72 -39 -178 -46 -39 -3 -90 -26 -123 -55
-30 -28 -71 -61 -91 -72 -19 -12 -40 -35 -45 -50 -8 -24 -4 -25 23 -2 29 24
30 20 13 -40 -10 -37 -19 -70 -19 -73 0 -4 -9 -1 -20 6 -11 7 -14 -2 -7 -22 9
-23 5 -31 -15 -24 -34 11 -50 116 -18 116 12 0 18 8 12 17 -15 23 158 209 202
218 57 12 153 28 196 34 22 3 54 11 70 18 17 7 120 11 230 9 808 -16 1062 114
984 506 -17 85 -157 238 -218 238 -27 0 -37 9 -29 29 6 17 2 35 -8 42 -23 14
-6 49 23 49 11 0 15 -8 9 -19z m-818 -140 c-10 -49 -4 -60 33 -67 24 -5 7 -10
-38 -11 -60 -2 -81 5 -81 27 0 17 16 30 36 30 21 0 37 9 37 20 0 11 -11 20
-25 20 -17 1 -15 7 5 20 44 28 46 26 33 -39z m197 -1 c65 -25 47 -60 -31 -60
-55 0 -79 34 -46 67 17 17 15 17 77 -7z m661 -45 c45 25 143 -111 149 -207 9
-131 -2 -165 -81 -250 -45 -49 -76 -76 -69 -62 10 19 1 22 -33 14 -26 -6 -69
-15 -97 -18 -27 -4 -63 -12 -80 -19 -16 -7 -84 -16 -150 -20 -66 -4 -34 -5 70
-3 105 3 208 11 230 18 22 7 9 -2 -29 -19 -53 -25 -158 -35 -440 -42 -662 -17
-820 -48 -954 -186 -109 -112 -105 -282 10 -409 51 -55 51 -56 6 -33 -54 28
-122 166 -123 250 -1 254 276 390 798 391 115 0 202 6 194 14 -50 50 -675 -15
-812 -85 -253 -128 -272 -513 -31 -635 310 -158 616 -7 613 302 0 75 7 104 24
99 35 -12 38 -210 4 -273 -46 -82 -121 -164 -155 -169 -17 -3 -47 -18 -66 -34
-118 -98 -504 9 -613 171 -108 159 -62 439 90 556 186 142 340 170 959 178
250 3 455 13 455 21 0 9 27 40 60 70 38 35 62 77 64 115 3 33 14 67 25 75 12
8 7 15 -14 15 -19 0 -35 13 -35 29 0 28 -66 78 -82 62 -5 -4 -20 6 -34 21 -21
23 -17 27 25 23 28 -2 51 -11 51 -19 0 -9 7 -15 15 -14 119 19 195 -233 105
-347 -52 -66 -51 -92 0 -45 131 119 49 470 -110 470 -32 0 -40 24 -16 48 8 8
27 -2 41 -22 15 -20 31 -34 36 -31z m489 -176 c0 -10 -12 -19 -27 -19 -45 0
-79 -88 -62 -163 13 -59 17 -62 32 -27 13 29 15 21 7 -29 -6 -38 -20 -75 -32
-83 -15 -9 -16 -17 -2 -26 12 -7 27 -4 34 8 38 61 287 -26 262 -92 -7 -19 -3
-25 12 -16 15 10 18 3 9 -20 -7 -20 -13 -48 -13 -63 0 -17 -12 -23 -31 -16
-25 10 -26 17 -5 43 21 25 21 29 1 16 -15 -8 -56 4 -97 29 -80 49 -210 59
-258 19 -46 -38 -38 12 10 60 22 22 32 40 23 40 -42 0 -87 -81 -79 -141 9 -62
9 -62 -62 -50 l-72 12 66 -33 c36 -19 61 -38 55 -44 -5 -5 -22 -1 -36 10 -87
69 -234 9 -281 -114 -9 -24 -11 -23 -12 5 -2 44 -1 45 -105 -15 -108 -61 -189
-65 -207 -10 -17 52 -37 50 -126 -10 -76 -52 -124 -64 -124 -30 0 71 249 126
270 59 15 -47 65 -39 153 26 34 25 73 37 105 31 28 -6 46 -3 40 7 -20 33 -110
17 -182 -32 l-72 -49 -38 49 c-47 60 -85 61 -173 8 l-67 -41 -38 44 c-38 44
-193 15 -229 -44 -20 -32 -49 -20 -49 21 0 70 -135 68 -182 -3 -12 -18 -118
20 -118 43 0 50 596 86 681 40 23 -12 39 -13 39 -1 0 10 63 18 139 18 77 0
146 5 155 10 9 6 50 15 92 22 42 7 103 26 135 43 33 16 59 25 59 18 0 -7 51
36 112 94 62 59 122 104 133 101 11 -3 15 8 8 24 -16 43 38 283 63 278 11 -3
17 11 14 30 -4 19 -8 39 -9 44 -1 6 -10 -3 -21 -20 -17 -26 -19 -26 -20 2 0
17 5 36 11 43 14 13 109 -79 109 -106z m-626 26 c21 -19 26 -27 12 -18 -14 10
-48 13 -76 8 -48 -9 -64 4 -37 32 23 23 61 14 101 -22z m-120 -65 c19 -23 25
-24 25 -4 1 41 109 21 117 -21 6 -30 -9 -35 -97 -35 -94 0 -103 -4 -93 -40 20
-77 -122 -90 -237 -22 -89 52 -108 53 -95 2 14 -52 -81 -55 -183 -6 -89 42
-108 139 -21 106 35 -13 50 -12 50 4 0 13 16 8 37 -11 46 -42 56 -42 69 6 15
61 381 79 428 21z m896 -50 c39 -32 39 -32 -3 -11 -34 16 -46 14 -55 -12 -7
-18 -18 -28 -25 -21 -6 6 -34 3 -62 -8 -45 -17 -48 -15 -26 11 14 17 45 31 68
31 24 0 34 7 23 15 -11 8 -22 27 -25 41 -6 29 36 11 105 -46z m250 -75 c0 -8
-9 -15 -20 -15 -11 0 -2 -18 20 -40 22 -22 40 -49 40 -61 0 -23 23 -54 103
-141 30 -32 45 -58 33 -58 -11 0 -16 -18 -10 -40 6 -22 1 -40 -10 -40 -11 0
-14 -16 -7 -35 9 -23 7 -28 -6 -15 -10 11 -23 57 -28 102 -8 76 -117 268 -151
268 -8 0 -49 21 -92 47 l-77 47 102 -2 c57 -1 103 -9 103 -17z m-160 -92 c337
-163 294 -613 -74 -776 -155 -68 -306 -85 -811 -91 -250 -3 -455 -13 -455 -21
0 -9 -28 -41 -62 -71 -44 -39 -63 -74 -63 -115 0 -33 -10 -66 -22 -74 -15 -9
-10 -14 12 -15 19 0 35 -13 35 -29 0 -33 68 -77 87 -57 7 7 13 2 13 -12 0 -13
9 -19 20 -12 11 7 20 2 20 -11 0 -15 -16 -19 -45 -10 -58 17 -101 28 -120 29
-32 4 -95 135 -95 198 0 51 20 87 85 156 91 96 124 107 360 122 74 5 135 17
135 26 0 9 -34 13 -75 9 -244 -24 -310 -26 -290 -6 11 11 181 24 398 30 669
17 826 47 960 186 109 112 105 282 -10 409 -51 55 -51 56 -6 33 57 -30 122
-167 123 -259 1 -246 -282 -381 -798 -382 -115 0 -202 -6 -194 -14 50 -50 675
15 812 85 314 159 256 597 -90 682 -33 9 -71 13 -85 10 -14 -2 -25 10 -25 28
0 45 111 25 260 -48z m-1960 28 c0 -33 -59 -71 -110 -71 -23 0 -17 14 24 49
65 57 86 63 86 22z m-280 -147 c0 -8 -32 -39 -70 -70 -76 -60 -94 -58 -31 5
24 24 34 53 27 82 -11 39 -8 41 31 21 24 -13 43 -30 43 -38z m2075 -129 c54
-58 69 -142 34 -188 -26 -35 -26 -35 -17 4 6 25 -2 53 -21 68 -17 14 -31 42
-31 63 0 38 -65 86 -87 64 -7 -7 -13 -2 -13 11 0 40 91 25 135 -22z m-68 -65
c-2 -21 10 -48 28 -61 37 -27 22 -84 -27 -103 -20 -7 -43 1 -58 20 -14 19 -47
31 -82 28 -52 -4 -58 2 -58 56 0 49 8 59 43 56 24 -3 54 9 68 25 34 41 90 27
86 -21z m289 -17 c4 -30 -3 -53 -16 -53 -12 0 -18 -7 -12 -16 5 -9 -12 -42
-39 -73 -27 -32 -49 -65 -49 -75 0 -10 -7 -14 -16 -8 -9 5 -29 -7 -44 -28 -15
-21 -35 -33 -45 -27 -9 6 -28 2 -41 -9 -13 -10 -37 -19 -54 -20 -63 -4 -151
-19 -180 -31 -16 -7 -120 -11 -230 -9 -110 2 -299 -3 -420 -12 -265 -20 -309
-20 -326 -3 -32 32 59 47 294 49 139 1 347 6 462 11 132 6 188 3 150 -7 l-60
-17 63 -3 c35 -1 67 8 71 21 5 13 60 27 124 33 99 8 126 19 184 77 37 38 68
62 68 55 0 -7 14 -2 30 12 33 28 42 70 10 50 -22 -14 -27 30 -8 78 7 18 20 27
30 21 10 -6 12 4 5 23 -9 23 -5 31 15 24 15 -5 31 -33 34 -63z m-2530 -80
c-14 -76 -26 -94 -26 -41 0 22 -13 58 -29 81 -27 39 -26 41 19 32 42 -8 47
-17 36 -72z m2814 -143 c22 -26 20 -29 -16 -15 -45 16 -45 15 -42 110 l2 65
15 -65 c9 -36 27 -78 41 -95z m-2247 100 c7 -19 33 -28 74 -25 58 5 63 0 63
-55 0 -51 -7 -59 -48 -55 -26 3 -58 -9 -72 -28 -33 -45 -97 -21 -81 31 8 23 1
42 -18 49 -42 16 -39 66 4 91 48 29 64 27 78 -8z m-146 -26 c-5 -20 4 -49 22
-63 17 -14 31 -42 31 -63 0 -38 65 -86 87 -64 7 7 13 2 13 -11 0 -40 -91 -25
-136 23 -50 53 -67 129 -41 179 24 45 36 45 24 -1z m1005 -64 c16 0 64 17 105
39 75 38 76 38 104 0 36 -50 52 -49 171 11 117 60 108 59 108 12 0 -69 138
-66 183 4 9 13 34 8 69 -16 l56 -36 -99 -26 c-129 -34 -572 -37 -605 -4 -19
19 -24 18 -24 -2 0 -19 -20 -24 -65 -17 -36 6 -110 3 -165 -7 -55 -10 -118
-20 -140 -23 -22 -3 -47 -14 -55 -25 -24 -33 -17 27 8 68 13 20 38 33 57 28
19 -5 69 15 111 44 l78 52 37 -51 c21 -28 50 -51 66 -51z m-1427 -112 c8 -76
117 -268 151 -268 8 0 50 -22 93 -48 l79 -48 -95 6 c-82 5 -162 30 -96 30 13
0 5 18 -17 40 -22 22 -40 49 -40 61 0 23 -23 54 -103 141 -30 32 -45 58 -33
58 11 0 15 15 8 33 -7 17 -2 45 11 60 29 36 31 33 42 -65z m837 57 c8 -82 7
-120 -5 -113 -8 5 -25 -9 -37 -31 -73 -138 -499 -133 -487 6 1 18 -7 27 -19
20 -13 -9 -16 -1 -7 21 7 20 13 48 13 63 0 17 12 23 31 16 25 -10 26 -17 5
-43 -21 -25 -21 -29 -1 -16 15 8 56 -4 96 -29 125 -77 369 -27 369 76 0 40 38
67 42 30z m1781 -122 c-27 -27 -36 -55 -28 -87 11 -43 9 -44 -27 -17 -21 16
-42 32 -47 36 -5 3 22 32 60 63 77 65 105 68 42 5z m-1542 -35 c28 -34 30 -32
-82 -100 -66 -41 -139 -148 -139 -204 0 -33 -12 -44 -45 -43 -117 4 -176 84
-80 108 73 19 173 100 233 192 58 87 75 94 113 47z m1243 -158 c-69 -58 -84
-61 -84 -21 0 34 54 70 107 70 29 1 24 -9 -23 -49z m-769 -90 c83 -50 104 -50
91 0 -15 55 99 55 189 0 82 -50 94 -130 15 -100 -35 13 -50 12 -50 -4 0 -13
-16 -8 -37 11 -44 41 -63 42 -63 4 0 -60 -407 -93 -430 -34 -10 25 -16 26 -28
6 -27 -43 -111 -20 -119 33 -11 78 30 109 98 73 76 -39 99 -37 99 11 0 55 145
55 235 0z m1213 23 c6 -10 -48 -55 -121 -102 -141 -90 -160 -151 -76 -235 17
-17 27 -43 21 -57 -5 -14 -16 -58 -23 -96 -10 -53 -21 -67 -44 -58 -21 8 -27
4 -17 -12 18 -29 66 -30 76 -1 4 11 24 3 45 -20 32 -36 33 -42 5 -42 -17 0
-37 -9 -44 -20 -16 -26 25 -100 56 -100 15 0 16 6 4 15 -46 34 -24 77 41 82
75 5 90 -85 24 -151 -40 -40 -155 47 -155 118 0 44 -57 48 -111 7 -22 -17 -51
-30 -66 -30 -15 -1 -47 -17 -73 -37 l-46 -36 57 -38 c31 -21 52 -45 47 -54 -6
-8 20 -11 56 -6 36 6 54 5 39 -2 -23 -11 -23 -15 0 -30 22 -14 21 -22 -6 -50
-31 -30 -35 -29 -65 16 -18 27 -77 70 -132 96 -60 28 -99 59 -98 78 1 23 4 25
12 6 7 -20 18 -16 38 13 15 22 57 46 91 54 l64 14 -54 32 c-73 44 -55 73 44
71 77 -1 81 1 53 32 -41 46 -38 72 20 148 61 80 63 114 10 162 -48 43 -46 45
110 130 66 36 127 78 136 93 18 30 66 36 82 10z m-2108 -43 c0 -12 -29 -20
-65 -18 -36 2 -87 -6 -115 -18 -27 -12 -37 -22 -21 -23 21 -1 23 -7 7 -23 -17
-17 -35 -13 -69 12 -26 20 -32 30 -14 24 19 -6 38 1 44 16 6 15 36 30 67 34
141 16 166 15 166 -4z m-23 -100 c-11 -33 -28 -55 -37 -50 -9 6 -13 -6 -10
-25 4 -19 8 -39 9 -45 1 -5 10 4 21 20 17 26 19 26 20 -2 0 -54 -21 -56 -71
-5 -60 60 -60 61 -4 110 45 39 45 39 1 18 -62 -30 -83 -25 -37 10 73 55 132
39 108 -31z m158 -37 c25 -27 45 -59 45 -72 0 -37 180 -211 219 -211 12 0 21
-25 20 -55 0 -48 -3 -50 -21 -19 -14 23 -34 32 -58 24 -110 -35 -270 130 -298
307 -17 112 7 119 93 26z m98 28 c-18 -48 154 -242 193 -217 11 6 16 1 11 -13
-20 -60 -156 29 -207 135 -22 45 -53 86 -70 90 -16 5 -10 6 15 4 25 -2 45 3
45 13 0 9 5 17 12 17 7 0 7 -13 1 -29z m1067 -106 c88 -16 87 -17 -80 -32
-212 -19 -263 -18 -288 7 -70 70 -168 -27 -102 -100 61 -67 370 -110 370 -52
0 16 6 43 12 61 9 22 4 28 -18 20 -16 -7 -36 -2 -43 10 -9 13 14 21 64 21 56
0 78 -8 78 -30 0 -16 -16 -30 -36 -30 -41 0 -52 -40 -12 -41 14 0 9 -9 -10
-21 -57 -33 -42 -64 25 -51 38 8 58 4 55 -10 -3 -12 8 -27 23 -32 16 -6 22 -1
15 11 -8 12 2 16 27 10 47 -12 53 -70 11 -105 -21 -18 -39 -18 -70 -2 -47 26
-56 51 -12 34 17 -6 36 -1 43 11 8 13 5 17 -7 9 -12 -7 -25 -3 -29 10 -5 13
-23 26 -41 28 -21 3 -28 -5 -21 -25 14 -35 -60 -4 -84 34 -7 12 -23 15 -34 7
-13 -7 -16 -4 -9 8 17 27 -134 19 -207 -11 -45 -19 -43 -20 26 -15 41 3 80 11
86 17 13 13 186 -90 187 -111 2 -27 -37 -16 -73 22 -20 20 -51 42 -70 49 -59
21 -59 -20 -1 -64 75 -55 11 -57 -80 -2 -36 22 -86 40 -111 40 -26 0 -41 8
-35 19 6 10 3 23 -7 29 -10 7 -23 -10 -30 -37 -10 -40 -22 -47 -71 -41 -48 6
-65 -2 -85 -44 -14 -29 -48 -60 -76 -70 l-50 -17 53 45 c48 41 97 115 97 145
0 31 -44 5 -64 -39 -27 -59 -65 -67 -50 -11 5 22 -1 43 -13 48 -13 6 -8 11 11
11 55 3 60 37 6 47 -27 5 -44 2 -39 -7 17 -26 -33 -44 -58 -19 -17 17 -16 27
4 39 19 12 21 21 5 31 -38 23 -24 54 18 41 30 -10 37 -5 28 19 -7 17 -2 31 10
31 12 0 22 -9 22 -20 0 -22 99 -67 114 -52 5 4 -16 21 -47 35 -71 34 -91 117
-28 117 22 0 41 -12 41 -28 0 -65 56 -76 70 -13 7 34 26 61 42 61 15 0 28 8
28 19 0 21 384 11 520 -14z m206 -25 c-8 -30 -1 -40 31 -40 22 0 56 -20 74
-45 25 -34 31 -36 21 -8 -6 20 -12 45 -12 55 0 10 -16 19 -35 20 -19 0 -24 5
-11 11 13 5 49 -3 80 -19 31 -16 67 -24 81 -20 14 5 25 0 25 -11 0 -11 -17
-17 -38 -13 -20 3 -37 -4 -36 -17 4 -166 -60 -238 -146 -164 -16 15 -51 33
-76 40 l-46 14 44 39 c24 21 56 38 71 38 15 0 27 9 27 20 0 25 1 26 -100 -10
-104 -37 -95 -37 -106 5 -6 22 -10 14 -12 -20 -1 -30 -11 -55 -22 -55 -62 0
14 135 102 182 87 47 96 46 84 -2z m-406 -89 c0 -43 -30 -54 -90 -31 -65 25
-47 60 31 60 38 0 59 -10 59 -29z m-560 -210 c0 -10 -9 -24 -19 -30 -11 -7
-14 -25 -8 -42 6 -16 1 -29 -12 -29 -13 0 -18 8 -12 18 6 10 -4 23 -21 30 -26
10 -28 18 -8 42 28 33 80 40 80 11z m429 -60 c34 -37 34 -39 -7 -36 -23 2 -42
15 -42 29 0 32 -53 34 -72 3 -9 -14 -5 -18 9 -9 13 8 23 5 23 -7 0 -24 -5 -25
-49 -9 -25 10 -27 19 -9 40 33 40 106 34 147 -11z m-199 -57 c196 -3 235 -7
216 -26 -11 -11 -51 -20 -88 -20 -131 1 -238 7 -238 13 0 28 28 68 38 53 7
-10 39 -19 72 -20z m74 -69 c85 0 150 -9 144 -18 -18 -30 -528 -7 -528 24 0 8
52 10 115 5 63 -5 184 -10 269 -11z m-51 -51 l182 -4 26 -65 c14 -36 39 -81
56 -100 16 -19 24 -41 18 -47 -18 -18 -57 12 -44 33 6 10 -14 15 -45 11 -31
-4 -45 -3 -31 2 36 13 31 40 -15 86 -67 67 -172 18 -125 -59 34 -56 32 -61
-26 -61 -28 0 -46 -8 -40 -18 15 -24 -8 -82 -32 -82 -11 0 -15 53 -11 121 6
93 2 119 -17 111 -15 -5 -53 1 -86 13 -78 29 -131 -9 -113 -80 9 -38 4 -47
-23 -42 -18 4 -35 27 -37 51 -2 24 5 39 15 33 10 -6 16 5 14 26 -7 72 1 81 76
78 41 -2 157 -5 258 -7z m-178 -109 c-13 -38 -95 -44 -95 -6 0 20 18 31 52 31
32 0 48 -9 43 -25z m305 -5 c0 -17 -18 -30 -40 -30 -22 0 -40 13 -40 30 0 17
18 30 40 30 22 0 40 -13 40 -30z"/>
</g>
</svg>
