<?xml version="1.0" standalone="no"?>
<!DOCTYPE svg PUBLIC "-//W3C//DTD SVG 20010904//EN"
 "http://www.w3.org/TR/2001/REC-SVG-20010904/DTD/svg10.dtd">
<svg version="1.0" xmlns="http://www.w3.org/2000/svg"
 width="224.000000pt" height="194.000000pt" viewBox="0 0 224.000000 194.000000"
 preserveAspectRatio="xMidYMid meet">
<metadata>
Created by potrace 1.10, written by Peter Selinger 2001-2011
</metadata>
<g transform="translate(0.000000,194.000000) scale(0.050000,-0.050000)"
fill="#000000" stroke="none">
<path d="M2214 3633 c-19 -28 -34 -59 -34 -67 0 -27 -118 -85 -131 -65 -6 11
-33 19 -59 19 -26 0 -53 9 -60 20 -7 11 -45 20 -85 20 l-72 0 51 -55 c92 -99
118 -156 110 -237 l-8 -77 -148 -26 c-145 -24 -201 -22 -196 9 15 88 -77 19
-103 -77 l-22 -83 -43 43 -42 42 64 63 c90 88 84 108 -56 178 -49 25 -115 75
-146 112 -44 53 -72 68 -125 68 -78 0 -92 -41 -36 -103 20 -22 24 -37 10 -37
-61 0 -12 -39 78 -62 146 -38 160 -67 57 -117 -47 -22 -95 -41 -107 -40 -27 1
-114 137 -101 159 34 55 -167 38 -218 -18 -96 -106 -29 -249 128 -274 l83 -14
-13 -76 c-11 -61 -4 -90 38 -151 29 -42 52 -83 52 -92 0 -33 -193 -134 -257
-135 -56 0 -64 -5 -44 -28 18 -23 15 -31 -18 -42 -42 -13 -50 -42 -29 -98 20
-51 92 -36 171 35 40 36 133 91 207 122 l134 57 -9 85 c-10 91 17 97 141 31
23 -12 78 -22 123 -22 54 0 81 -9 81 -27 0 -32 83 -113 116 -113 13 0 24 13
24 30 0 23 11 25 50 10 33 -12 50 -12 50 1 0 11 23 5 50 -13 45 -29 50 -29 50
-1 0 50 130 82 290 71 22 -1 60 -3 85 -5 25 -2 45 -9 45 -15 0 -7 33 -12 74
-10 56 1 76 -7 82 -33 6 -30 -8 -35 -93 -35 -91 0 -100 -4 -93 -41 17 -86
-129 -94 -264 -14 -66 39 -66 39 -66 -3 0 -55 -92 -57 -197 -3 -75 38 -77 38
-109 0 -41 -48 -164 -52 -267 -9 -94 39 -107 38 -107 -9 0 -56 -72 -88 -210
-93 -66 -2 -131 -5 -145 -6 -16 -1 -10 -17 15 -42 60 -60 24 -109 -131 -182
-141 -67 -151 -79 -84 -108 64 -29 67 -120 7 -250 -52 -111 -52 -146 -1 -127
46 18 81 -25 139 -169 71 -176 86 -194 131 -153 32 28 42 28 109 0 89 -37 97
-38 79 -9 -10 16 -3 16 24 2 37 -20 51 -24 84 -24 9 0 16 -13 16 -30 0 -38
-11 -38 -57 3 -20 18 -42 28 -48 22 -6 -7 24 -35 68 -62 145 -92 205 -208 129
-251 -46 -26 -20 -50 105 -96 84 -31 101 -46 106 -93 7 -56 9 -56 126 -50 111
7 144 -5 98 -33 -36 -22 -21 -50 28 -50 98 0 77 -106 -47 -239 -77 -82 -76
-89 4 -72 36 7 88 13 115 14 28 0 66 14 85 32 22 20 35 23 35 8 0 -13 21 -33
46 -45 26 -12 55 -48 65 -81 24 -77 50 -77 89 -2 34 69 132 134 152 102 7 -11
29 -16 50 -11 20 6 47 -3 60 -18 12 -15 55 -28 94 -28 l71 0 -51 55 c-92 99
-118 156 -110 237 l8 77 148 26 c162 27 198 22 198 -25 0 -63 78 9 101 93 l22
83 43 -43 42 -42 -64 -63 c-90 -88 -84 -107 56 -178 50 -25 120 -80 156 -122
56 -65 73 -74 113 -58 26 9 52 12 59 5 29 -29 9 66 -21 98 -20 22 -24 37 -10
37 61 0 12 39 -78 62 -146 38 -160 67 -57 117 47 22 95 41 107 40 27 -1 114
-137 101 -159 -34 -55 167 -38 218 18 96 106 29 249 -128 274 l-83 14 13 76
c11 61 4 90 -38 151 -29 42 -52 83 -52 92 0 35 190 135 256 135 57 0 65 5 45
28 -18 23 -15 31 18 42 42 13 50 42 29 98 -19 50 -92 37 -163 -29 -36 -34
-108 -79 -160 -102 -195 -82 -190 -78 -180 -169 10 -90 -18 -96 -141 -30 -23
12 -78 22 -123 22 -54 0 -81 9 -81 27 0 32 -83 113 -116 113 -13 0 -24 -13
-24 -30 0 -23 -11 -25 -50 -10 -33 12 -50 12 -50 -1 0 -11 -22 -5 -50 13 -45
29 -50 29 -50 1 0 -50 -130 -82 -290 -71 -22 1 -60 3 -85 5 -25 2 -45 9 -45
15 0 7 -34 12 -75 10 -64 -2 -76 5 -82 44 -11 79 30 109 100 73 58 -31 108
-23 86 12 -41 66 151 61 265 -6 66 -39 66 -39 66 3 0 55 92 57 197 3 75 -38
77 -38 109 0 41 48 164 52 267 9 94 -39 107 -38 107 9 0 57 72 88 210 92 177
5 175 4 130 49 -60 60 -24 109 131 182 141 67 151 79 84 108 -64 29 -67 120
-7 250 52 111 52 146 1 127 -46 -18 -81 25 -139 169 -70 176 -86 194 -130 154
-42 -38 -102 -19 -254 82 -169 112 -231 221 -151 266 46 26 20 50 -105 96 -84
31 -101 46 -106 93 -7 56 -9 56 -126 50 -111 -7 -144 5 -98 33 36 22 21 50
-28 50 -91 0 -84 74 21 212 26 34 40 68 33 76 -8 8 1 8 20 1 21 -8 34 -4 34
11 0 17 -20 20 -65 11 -36 -7 -87 -13 -115 -14 -27 0 -66 -14 -85 -32 -22 -20
-35 -23 -35 -8 0 13 -22 34 -50 47 -27 12 -50 37 -50 55 0 79 -50 110 -86 54z
m61 -77 c-7 -49 -2 -57 28 -50 19 6 46 -3 59 -18 18 -22 16 -28 -7 -28 -45 0
-58 -54 -23 -89 66 -67 168 -7 126 73 -11 20 -12 37 -4 37 9 1 50 4 91 7 41 3
75 4 75 1 0 -68 -141 -199 -210 -196 -44 2 -159 4 -255 5 -170 2 -177 4 -196
53 -10 29 -43 83 -71 120 -55 73 -25 103 39 39 17 -16 51 -30 76 -30 35 0 40
-5 21 -24 -59 -59 20 -137 96 -96 47 25 53 76 10 93 -47 18 -35 47 20 47 32 0
50 11 50 31 0 50 40 111 63 97 11 -7 17 -39 12 -72z m-1019 -166 c8 -11 57
-40 109 -65 108 -51 119 -87 47 -164 -53 -56 -93 -156 -53 -132 13 8 39 2 57
-15 19 -16 55 -36 80 -43 50 -16 36 -36 -69 -105 -36 -23 -15 -19 138 28 19 6
35 1 35 -10 0 -11 5 -34 11 -50 7 -19 -15 -44 -65 -73 l-75 -45 -131 45 c-71
25 -138 56 -147 67 -9 12 -10 -9 -2 -48 32 -157 29 -163 -101 -215 -66 -27
-141 -68 -167 -92 -51 -47 -61 -49 -85 -10 -16 26 13 77 45 77 30 0 216 129
217 150 0 11 -22 55 -48 99 -36 59 -45 97 -37 155 8 55 1 87 -24 115 -32 35
-32 38 2 47 21 5 0 10 -46 12 -93 2 -115 83 -42 156 37 36 155 -45 155 -107 0
-43 40 -52 90 -19 27 18 60 32 75 32 136 0 122 108 -19 143 -53 13 -80 29 -66
37 19 11 19 18 1 29 -17 11 -14 26 12 54 38 42 39 42 103 -53z m864 18 c0 -15
-18 -28 -40 -28 -38 0 -54 39 -28 65 19 20 68 -7 68 -37z m320 2 c0 -19 -19
-30 -50 -30 -49 0 -64 19 -37 47 25 25 87 13 87 -17z m-222 -137 c-21 -19
-259 -31 -248 -13 7 11 67 20 135 20 67 0 118 -3 113 -7z m-58 -63 c47 -27 44
-28 -65 -24 -117 4 -152 24 -70 40 76 14 83 14 135 -16z m-509 -122 c30 -24
32 -29 6 -21 -18 6 -39 5 -46 -2 -18 -19 -71 -24 -71 -7 0 54 61 71 111 30z
m139 -274 c22 -5 1 -10 -46 -12 -72 -2 -82 2 -60 26 14 15 35 21 46 12 11 -9
38 -20 60 -26z m1310 -149 c1 -64 -64 -9 -90 75 l-16 50 53 -50 c29 -28 52
-61 53 -75z m-1345 81 c-30 -5 -84 -5 -120 0 -36 4 -11 8 55 8 66 0 95 -4 65
-8z m1124 -61 c2 60 31 38 31 -23 0 -32 -8 -53 -18 -47 -11 6 -13 -3 -6 -22
21 -53 -1 -38 -31 23 -15 31 -23 69 -18 84 7 22 13 19 25 -11 13 -33 15 -34
17 -4z m351 -96 c33 -27 50 -49 38 -49 -12 0 -28 7 -36 15 -9 8 -24 16 -34 18
-10 1 -25 3 -35 5 -18 2 -23 62 -5 61 7 0 39 -23 72 -50z m342 -224 c41 -89
84 -152 115 -169 l50 -26 -46 -77 c-51 -84 -54 -81 -81 76 -12 74 -115 251
-146 251 -8 0 -50 22 -94 49 l-80 48 108 -5 108 -5 66 -142z m-545 33 c11 -46
4 -54 -57 -73 -39 -12 -70 -14 -70 -4 0 9 18 22 40 29 21 7 38 28 36 46 -9
122 22 123 51 2z m-1627 41 c0 -26 -85 -79 -127 -79 -33 0 -30 8 19 56 54 51
108 63 108 23z m2032 -94 c141 -117 173 -402 59 -541 -110 -135 -255 -211
-464 -245 -156 -24 -767 -20 -767 6 0 10 -20 12 -45 5 -32 -8 -37 -7 -15 6 29
18 248 38 609 56 196 10 377 50 492 109 41 20 80 33 87 28 6 -5 8 -3 3 3 -5 7
13 42 40 78 58 76 80 198 49 279 -17 44 -16 61 4 74 21 13 21 16 0 17 -15 0
-21 9 -14 20 7 11 3 20 -9 20 -11 0 -19 11 -16 25 3 14 -6 23 -20 20 -14 -3
-25 8 -25 23 0 16 -11 33 -25 39 -14 5 -16 10 -5 11 11 1 39 -14 62 -33z
m-2335 -7 c20 -1 24 -5 8 -11 -14 -6 -25 -19 -25 -29 0 -26 -102 -138 -126
-138 -11 0 4 22 33 49 45 42 50 56 33 102 -18 46 -16 52 11 41 18 -6 47 -13
66 -14z m1123 0 c0 -8 20 -10 45 -4 32 7 37 4 19 -9 -15 -11 -82 -21 -148 -23
-67 -2 -128 -7 -136 -12 -7 -4 -125 -13 -262 -20 -258 -12 -434 -47 -559 -111
-41 -20 -77 -35 -82 -33 -4 2 -5 1 -3 -3 2 -5 -18 -37 -45 -73 -58 -76 -80
-198 -49 -279 17 -44 16 -61 -4 -74 -21 -13 -20 -16 2 -17 16 0 23 -6 16 -13
-19 -18 25 -90 47 -76 10 6 19 -3 19 -20 0 -17 10 -31 23 -31 13 0 18 -5 12
-12 -15 -15 -115 51 -115 76 0 11 -18 43 -40 71 -64 81 -48 327 29 421 104
127 255 211 437 243 123 21 794 20 794 -1z m950 -18 c29 -11 47 -29 40 -40 -7
-11 -3 -20 9 -20 11 0 21 10 21 21 0 12 10 15 22 8 16 -10 15 -18 -2 -29 -14
-9 -18 -26 -9 -41 11 -18 7 -20 -13 -8 -47 30 -84 36 -203 35 -136 -2 -138 2
-40 52 91 46 107 48 175 22z m-1225 -95 c-58 -4 -152 -4 -210 0 -58 4 -10 8
105 8 116 0 163 -4 105 -8z m1237 -110 c16 -60 -15 -99 -34 -41 -6 20 -20 53
-31 73 -16 29 -13 35 15 30 19 -4 42 -32 50 -62z m-2009 -19 c-32 -24 -75 -70
-95 -104 -21 -34 -38 -50 -38 -35 0 30 145 183 173 182 9 0 -9 -20 -40 -43z
m1933 -7 c-2 -21 10 -46 25 -55 42 -23 35 -69 -14 -96 -36 -19 -48 -17 -68 10
-17 24 -40 30 -76 21 -43 -11 -53 -5 -64 38 -16 64 4 98 50 83 20 -6 47 3 61
20 35 42 91 29 86 -21z m-2274 -1 c-9 -23 -4 -29 16 -22 18 8 26 0 22 -22 -4
-19 -9 -61 -11 -94 l-3 -60 -16 66 c-8 36 -31 82 -49 103 -32 35 -32 38 2 47
21 5 40 10 44 12 4 1 2 -13 -5 -30z m1819 -7 c0 -22 -4 -35 -9 -30 -5 5 -25
-6 -45 -24 -31 -28 -38 -29 -48 -3 -16 43 -92 29 -181 -32 -57 -38 -80 -45
-92 -27 -24 38 -19 55 12 43 16 -6 58 5 95 24 37 19 98 38 135 42 53 6 109 25
133 45 0 1 0 -17 0 -38z m-131 -69 c0 -18 -187 -112 -222 -112 -21 0 -49 18
-63 40 -32 52 -50 50 -139 -10 -74 -50 -116 -63 -116 -35 0 66 229 122 265 65
32 -52 51 -50 136 9 60 43 139 67 139 43z m1168 -170 c32 -35 31 -38 -9 -48
-30 -8 -39 -3 -32 16 6 15 -1 31 -14 36 -17 7 -22 36 -16 87 l10 77 14 -66 c8
-36 29 -82 47 -102z m-2255 107 c9 -23 28 -28 69 -19 48 11 58 6 69 -37 16
-62 -5 -100 -46 -84 -17 7 -47 -3 -67 -21 -46 -42 -105 -22 -89 30 8 23 1 42
-18 49 -42 16 -39 66 4 91 49 29 64 27 78 -9z m787 -55 c0 -9 -9 -11 -19 -5
-11 7 -53 -3 -95 -21 -91 -39 -171 -52 -154 -25 7 11 23 15 37 10 14 -5 65 16
112 48 83 55 118 53 119 -7z m1220 48 c0 -29 -100 -141 -147 -165 -24 -11 -10
7 31 41 40 35 79 81 86 102 13 42 30 53 30 22z m-2572 -198 c15 -98 127 -283
172 -284 17 0 56 -18 88 -39 l59 -38 -107 5 -106 5 -66 142 c-43 94 -83 152
-119 170 -47 25 -49 32 -24 58 17 16 36 50 45 76 19 60 39 26 58 -95z m472 59
c0 -19 11 -47 25 -61 20 -21 18 -25 -14 -19 -36 7 -79 102 -56 125 18 18 45
-9 45 -45z m2153 -112 c-45 -41 -50 -57 -33 -100 21 -55 4 -63 -70 -31 -24 10
-28 18 -12 19 16 0 23 7 15 15 -15 15 104 146 134 146 10 0 -5 -22 -34 -49z
m-2026 -43 c140 17 189 -15 88 -57 -104 -44 -183 -42 -167 4 11 32 9 31 -16
-2 -38 -49 -114 -13 -98 46 9 33 17 36 51 19 23 -13 83 -17 142 -10z m1278 17
c-58 -4 -152 -4 -210 0 -58 4 -10 8 105 8 116 0 163 -4 105 -8z m443 -181
c-42 -40 -65 -50 -85 -35 -34 25 40 91 102 91 36 0 34 -6 -17 -56z m-380 -46
c-17 -19 -46 -30 -63 -23 -27 10 -27 14 1 35 55 40 101 31 62 -12z m832 -22
c0 -20 -16 -44 -36 -52 -69 -27 -224 -134 -224 -154 0 -11 22 -55 48 -99 36
-59 45 -97 37 -155 -8 -55 -1 -87 24 -115 32 -35 32 -38 -2 -47 -21 -5 0 -10
46 -12 93 -2 115 -83 42 -156 -37 -36 -155 45 -155 107 0 43 -40 52 -90 19
-27 -18 -58 -32 -70 -32 -137 0 -124 -108 17 -144 51 -13 81 -27 67 -31 -18
-6 -20 -16 -5 -34 15 -18 10 -35 -17 -59 -36 -33 -40 -32 -72 22 -19 32 -75
75 -132 100 -112 50 -123 87 -50 165 53 56 93 156 53 132 -13 -8 -39 -2 -57
15 -19 16 -55 36 -80 43 -50 16 -36 36 69 105 36 23 15 19 -138 -28 -19 -6
-35 -1 -35 10 0 11 -5 34 -11 50 -7 19 15 44 65 73 l75 45 131 -45 c71 -25
138 -56 147 -67 9 -12 10 10 2 48 -32 157 -29 163 101 215 66 26 136 64 156
83 47 46 94 45 94 -2z m-1916 -46 c-7 -60 -16 -70 -60 -70 -49 0 -50 1 -13 28
21 16 32 35 24 44 -15 15 19 68 43 68 8 0 10 -31 6 -70z m-238 -70 c-6 -22
-18 -45 -28 -51 -9 -6 -8 -33 3 -61 28 -74 24 -77 -31 -25 -60 57 -63 89 -10
103 22 6 40 25 40 42 0 18 8 32 18 32 10 0 14 -18 8 -40z m1359 -154 c-36 -5
-94 -5 -130 0 -36 4 -6 8 65 8 72 0 101 -4 65 -8z m-49 -74 c-14 -15 -35 -21
-46 -12 -11 9 -38 20 -60 26 -22 5 -1 10 46 12 72 2 82 -2 60 -26z m144 -233
c0 -38 -58 -61 -99 -40 -47 26 -56 51 -12 34 17 -6 34 -4 39 5 13 19 72 21 72
1z m-440 -141 c0 -30 -126 -36 -177 -9 -51 28 -49 29 62 25 63 -2 115 -10 115
-16z m-273 -53 c5 -9 -28 -13 -74 -9 -134 10 -151 19 -39 22 57 1 108 -5 113
-13z m282 -6 c-6 -11 -67 -18 -135 -18 -141 2 -104 27 47 33 57 2 95 -5 88
-15z m-184 -37 c170 -2 177 -4 196 -53 10 -29 43 -83 71 -120 55 -73 25 -103
-39 -39 -17 17 -51 30 -76 30 -35 0 -40 5 -21 24 59 59 -20 137 -96 96 -47
-25 -53 -76 -10 -93 46 -17 36 -47 -16 -47 -34 0 -50 -16 -65 -65 -23 -80 -59
-76 -59 7 0 47 -7 58 -34 51 -19 -5 -45 4 -58 19 -18 22 -17 28 5 28 59 0 78
73 25 97 -96 44 -168 -3 -126 -81 11 -20 12 -37 4 -37 -9 -1 -50 -4 -92 -7
-41 -3 -73 -1 -69 6 70 142 127 195 205 190 44 -3 159 -6 255 -6z m-190 -107
c-13 -38 -95 -44 -95 -6 0 20 18 31 52 31 32 0 48 -9 43 -25z m305 -2 c0 -37
-19 -52 -52 -39 -42 16 -33 66 12 66 22 0 40 -12 40 -27z"/>
<path d="M1254 2982 c6 -23 -8 -54 -36 -80 -25 -23 -36 -42 -25 -42 56 0 112
122 69 149 -10 6 -14 -6 -8 -27z"/>
</g>
</svg>
