<?xml version="1.0" standalone="no"?>
<!DOCTYPE svg PUBLIC "-//W3C//DTD SVG 20010904//EN"
 "http://www.w3.org/TR/2001/REC-SVG-20010904/DTD/svg10.dtd">
<svg version="1.0" xmlns="http://www.w3.org/2000/svg"
 width="672.000000pt" height="582.000000pt" viewBox="0 0 672.000000 582.000000"
 preserveAspectRatio="xMidYMid meet">
<metadata>
Created by potrace 1.10, written by Peter Selinger 2001-2011
</metadata>
<g transform="translate(0.000000,582.000000) scale(0.100000,-0.100000)"
fill="#000000" stroke="none">
<path d="M3337 5482 c-9 -10 -17 -22 -17 -25 0 -4 -11 -25 -25 -47 -14 -22
-29 -56 -33 -76 -6 -30 -13 -38 -47 -50 -22 -7 -47 -14 -54 -14 -8 0 -27 -12
-42 -26 l-28 -26 -29 21 c-21 15 -45 21 -80 21 -32 0 -54 5 -62 15 -30 36 -93
56 -169 53 -103 -4 -103 -15 -5 -98 55 -46 148 -201 160 -267 5 -27 2 -41 -15
-64 -20 -26 -21 -34 -11 -65 11 -31 10 -36 -12 -54 -17 -15 -39 -19 -88 -20
-43 0 -73 -5 -88 -16 -16 -11 -36 -14 -79 -9 -47 5 -65 2 -98 -14 -21 -12 -58
-21 -81 -21 -36 0 -43 4 -53 28 -7 16 -11 33 -10 38 9 52 -20 57 -79 14 -48
-34 -72 -75 -72 -122 0 -18 -9 -46 -20 -63 -11 -17 -17 -38 -14 -51 4 -13 0
-23 -9 -27 -21 -8 -107 85 -107 115 0 16 22 45 65 87 36 35 65 69 65 76 0 6 9
22 20 35 25 29 25 28 -4 71 -19 27 -49 48 -123 84 -54 26 -105 51 -113 56 -8
5 -25 13 -37 19 -12 5 -39 32 -60 61 -21 28 -59 74 -84 102 -47 51 -47 51
-113 53 -36 1 -69 -2 -72 -7 -3 -5 -16 -9 -29 -9 -18 0 -26 -8 -35 -35 -11
-34 -6 -75 9 -75 4 0 24 -16 45 -35 38 -35 40 -55 6 -55 -23 0 -32 -13 -24
-34 7 -17 84 -24 84 -7 0 5 14 12 30 16 l31 7 -30 30 -30 30 52 48 c49 46 53
47 70 32 11 -9 38 -45 60 -79 23 -35 50 -66 62 -69 11 -3 34 -12 50 -19 17 -8
37 -16 45 -19 8 -4 33 -17 55 -31 22 -13 47 -24 56 -25 21 0 56 -39 64 -70 3
-14 2 -37 -3 -50 -12 -32 -109 -129 -139 -141 -20 -7 -22 -13 -17 -52 5 -35 3
-45 -10 -50 -20 -8 -21 -47 -1 -47 8 0 15 5 15 10 0 6 12 10 28 10 18 0 33 -9
46 -28 21 -32 68 -62 96 -62 10 0 35 -9 54 -21 41 -24 49 -52 14 -47 -19 2
-23 -2 -23 -22 0 -18 -6 -26 -22 -28 -12 -2 -27 -10 -33 -18 -7 -8 -22 -14
-35 -14 -23 0 -55 -28 -55 -48 0 -8 9 -8 33 2 64 27 195 66 221 66 20 0 27 -6
31 -27 4 -16 13 -40 21 -55 8 -14 14 -33 14 -41 0 -14 -55 -47 -79 -47 -6 0
-11 -4 -11 -8 0 -5 -10 -14 -22 -21 -13 -6 -38 -23 -57 -36 -47 -34 -131 -33
-131 1 0 9 -11 14 -29 14 -17 0 -33 5 -36 10 -3 6 -15 10 -26 10 -10 0 -36 9
-56 20 -21 11 -51 20 -68 20 -17 0 -35 4 -40 9 -6 5 -23 11 -40 13 -22 2 -31
9 -35 28 -3 14 -12 25 -20 25 -20 0 -17 -77 4 -107 9 -12 16 -37 16 -54 0 -17
7 -37 15 -44 25 -21 19 -101 -9 -127 -13 -13 -31 -23 -39 -23 -8 0 -20 -7 -27
-15 -7 -8 -23 -15 -35 -15 -22 0 -63 -14 -132 -46 -17 -8 -35 -14 -39 -14 -22
0 -114 -55 -119 -72 -4 -10 -9 -18 -13 -18 -4 0 -18 -10 -32 -23 -26 -24 -100
-33 -100 -13 0 5 -7 17 -16 27 -15 17 -15 21 6 54 18 29 28 35 55 35 25 0 51
13 99 50 36 28 69 50 73 51 4 0 42 24 83 53 83 58 93 78 65 136 -38 77 -50 96
-75 123 -39 40 -57 100 -42 140 6 18 12 66 14 108 l3 75 -43 49 c-23 26 -42
51 -42 56 0 4 17 9 37 11 51 4 54 25 3 30 -22 2 -44 1 -48 -2 -4 -3 -37 -4
-74 -2 -62 3 -68 6 -68 26 0 12 5 27 12 34 9 9 6 22 -11 58 l-23 46 47 48 c64
65 87 68 139 19 124 -119 125 -120 128 -157 2 -27 10 -40 29 -51 33 -18 63
-10 127 33 28 18 67 37 87 40 42 8 57 16 133 65 56 37 62 45 35 55 -23 7 -48
24 -85 57 -31 27 -67 39 -120 39 -16 0 -38 5 -49 11 -11 5 -32 9 -47 7 l-27
-4 30 -13 c79 -36 96 -41 129 -41 26 0 50 -10 81 -32 24 -18 44 -37 45 -43 0
-22 -84 -64 -161 -79 -14 -3 -43 -19 -64 -36 -21 -16 -48 -30 -61 -30 -27 0
-54 24 -54 48 0 9 -23 43 -50 75 -53 62 -66 92 -55 127 5 17 0 23 -37 39 -40
18 -50 18 -136 6 -98 -14 -103 -16 -169 -79 -33 -31 -43 -47 -43 -72 0 -18 -5
-45 -11 -61 -14 -37 -4 -85 25 -116 14 -15 27 -34 31 -44 16 -49 65 -83 120
-83 22 0 47 -8 63 -20 20 -16 34 -19 67 -14 32 4 46 2 58 -11 21 -20 21 -21 2
-116 -18 -98 -10 -135 46 -209 42 -55 89 -139 89 -159 0 -18 -29 -51 -44 -51
-5 0 -25 -13 -45 -29 -20 -15 -46 -31 -57 -35 -12 -4 -34 -18 -48 -31 -49 -46
-90 -58 -166 -51 -101 9 -156 -20 -92 -49 26 -12 31 -55 6 -55 -9 0 -31 -7
-50 -16 -27 -13 -34 -22 -34 -46 0 -16 -4 -37 -10 -47 -12 -24 47 -91 81 -91
13 0 34 -3 46 -6 17 -5 31 2 57 28 19 19 51 47 71 62 20 16 60 50 87 77 28 27
57 49 64 49 7 0 30 7 51 16 58 26 105 45 138 59 84 34 169 81 182 102 19 29
13 116 -11 165 -9 17 -16 37 -16 44 0 19 20 28 33 15 6 -6 29 -11 52 -11 22 0
49 -7 59 -15 11 -8 30 -15 42 -15 13 0 26 -4 29 -10 3 -5 15 -10 25 -10 10 0
26 -8 36 -17 12 -13 36 -19 78 -20 34 -1 75 -3 91 -4 17 -1 35 -1 40 1 31 8
45 -2 55 -41 13 -48 123 -164 165 -175 34 -9 55 11 55 53 0 38 3 38 79 7 44
-19 51 -18 51 6 0 26 29 38 44 19 22 -29 86 -71 100 -66 8 3 16 22 18 43 3 35
6 37 64 59 52 19 75 22 140 18 57 -3 95 0 134 12 79 24 144 18 188 -16 22 -17
26 -17 48 -3 27 18 54 13 54 -10 0 -18 36 -40 50 -31 6 3 10 12 10 20 0 20 28
26 79 19 54 -7 101 -46 101 -81 0 -38 -47 -51 -178 -49 -112 2 -131 -2 -115
-26 4 -7 8 -27 10 -44 2 -43 -30 -72 -100 -86 -69 -15 -173 3 -229 39 -21 12
-41 23 -46 23 -5 0 -26 13 -48 30 -21 16 -49 30 -62 30 -24 0 -24 -6 -5 -56 2
-6 -5 -22 -16 -35 -17 -22 -27 -24 -93 -23 -68 0 -80 4 -173 53 -55 29 -104
56 -110 62 -18 18 -35 9 -52 -27 -27 -56 -78 -77 -197 -82 -77 -3 -111 0 -155
14 -31 10 -61 22 -67 26 -21 15 -138 48 -152 43 -10 -4 -13 -14 -8 -36 11 -54
-2 -75 -64 -107 -78 -41 -149 -53 -315 -50 -103 2 -146 -1 -164 -11 l-24 -13
41 -37 c50 -44 66 -80 51 -118 -27 -73 -87 -116 -216 -158 -29 -10 -53 -21
-53 -26 0 -5 -8 -9 -19 -9 -29 0 -131 -70 -131 -90 0 -13 11 -19 40 -23 46 -6
71 -31 96 -95 26 -65 14 -126 -51 -259 -62 -126 -88 -199 -79 -225 7 -22 27
-23 44 -3 20 25 66 18 104 -15 30 -27 76 -101 76 -124 0 -4 6 -22 14 -39 7
-18 24 -60 36 -95 13 -34 27 -65 31 -68 5 -3 9 -14 9 -25 0 -30 28 -79 68
-121 l36 -38 31 30 c45 44 87 48 167 16 35 -14 68 -26 72 -26 4 0 33 -20 65
-45 31 -25 63 -45 69 -45 7 0 12 -5 12 -10 0 -9 18 -18 115 -62 11 -5 27 -23
34 -39 7 -17 28 -40 47 -52 19 -12 34 -25 34 -29 0 -4 11 -24 25 -44 43 -64
30 -175 -22 -189 -18 -4 -23 -11 -21 -27 3 -25 69 -74 111 -83 16 -4 40 -13
55 -21 15 -8 37 -14 49 -14 12 0 24 -4 27 -9 3 -5 21 -12 40 -15 47 -9 70 -39
71 -89 0 -23 -4 -52 -8 -64 -7 -19 -4 -25 18 -33 33 -13 119 -13 182 -1 91 18
161 20 167 6 2 -7 -13 -33 -35 -57 -21 -23 -39 -51 -39 -62 0 -17 5 -18 58
-11 96 13 97 13 100 -20 2 -16 8 -34 13 -40 14 -15 11 -30 -21 -97 -59 -122
-146 -229 -214 -263 -11 -6 -22 -18 -24 -28 -3 -14 5 -17 40 -19 92 -4 123 4
180 44 13 10 24 8 52 -7 32 -17 40 -18 73 -6 21 7 52 26 69 43 l31 29 24 -36
c21 -32 89 -75 118 -75 6 0 11 -7 11 -15 0 -48 25 -117 54 -151 39 -45 50 -41
87 29 12 23 28 53 35 67 8 14 14 35 14 48 0 12 6 24 13 26 73 21 105 34 129
54 l28 24 30 -22 c21 -15 42 -20 75 -19 33 2 51 -2 67 -17 44 -40 92 -54 169
-52 46 2 74 7 76 15 5 13 -19 39 -75 83 -17 14 -31 29 -32 34 0 4 -13 25 -29
45 -40 50 -89 146 -97 188 -5 27 -2 41 16 65 19 26 20 33 10 59 -11 27 -10 32
10 54 20 22 32 25 87 25 38 0 76 6 93 15 21 11 45 14 82 9 42 -4 61 -1 93 15
21 12 58 21 81 21 36 0 43 -4 53 -28 6 -15 10 -39 9 -52 -5 -42 39 -39 89 7
49 45 63 71 63 115 0 18 9 46 20 63 11 17 17 38 14 51 -4 13 0 23 9 27 21 8
107 -85 107 -115 0 -16 -22 -45 -65 -87 -36 -35 -65 -69 -65 -76 0 -6 -9 -22
-20 -35 -25 -29 -25 -28 5 -72 17 -25 47 -47 100 -73 41 -21 78 -42 81 -46 3
-5 16 -9 29 -9 13 0 27 -5 30 -11 4 -5 18 -14 31 -19 13 -5 45 -37 71 -72 103
-134 143 -169 168 -148 8 7 27 9 47 5 25 -5 38 -2 48 9 7 9 21 14 31 11 13 -4
20 3 29 29 11 35 6 76 -9 76 -4 0 -24 16 -45 35 -38 35 -40 55 -6 55 23 0 32
13 24 34 -7 17 -84 24 -84 7 0 -5 -14 -12 -30 -16 l-31 -7 30 -30 30 -30 -52
-48 c-49 -46 -53 -47 -70 -32 -11 9 -38 45 -60 79 -23 35 -50 66 -62 69 -11 3
-33 12 -50 19 -16 8 -37 16 -45 19 -8 4 -33 17 -55 31 -22 13 -47 24 -56 25
-21 0 -56 39 -64 70 -3 14 -2 37 3 50 12 32 109 129 139 141 20 7 22 13 17 52
-5 35 -3 45 10 50 20 8 21 47 1 47 -8 0 -15 -4 -15 -10 0 -5 -12 -10 -27 -10
-19 0 -34 9 -47 28 -21 32 -68 62 -97 62 -25 0 -89 41 -89 58 0 8 9 12 23 10
18 -2 22 2 22 22 0 18 6 26 22 28 12 2 27 10 33 18 7 8 22 14 35 14 22 0 63
35 52 46 -6 6 -21 2 -148 -41 -101 -33 -127 -33 -134 3 -4 15 -13 39 -21 54
-8 14 -14 33 -14 41 0 14 55 47 79 47 6 0 11 4 11 8 0 5 10 14 23 21 12 6 37
23 56 36 47 34 131 33 131 -1 0 -9 11 -14 29 -14 17 0 33 -4 36 -10 3 -5 15
-10 26 -10 10 0 36 -9 56 -20 21 -11 51 -20 68 -20 17 0 35 -4 41 -9 5 -5 22
-11 39 -13 22 -2 31 -9 35 -28 3 -14 12 -25 20 -25 20 0 17 77 -4 107 -9 12
-16 37 -16 54 0 17 -7 37 -15 44 -24 20 -20 97 8 126 12 13 29 24 38 24 9 0
22 7 29 15 7 8 23 15 35 15 22 0 63 14 132 46 17 8 35 14 39 14 20 0 114 55
119 69 8 25 74 65 109 67 25 0 35 -5 44 -25 16 -33 15 -47 -4 -76 -12 -18 -25
-25 -50 -25 -24 0 -50 -13 -96 -48 -35 -27 -70 -52 -78 -56 -28 -13 -56 -31
-108 -69 -58 -43 -64 -65 -36 -120 10 -18 24 -45 32 -62 9 -16 26 -41 39 -54
37 -38 56 -86 49 -123 -13 -62 -23 -183 -17 -200 3 -9 23 -34 44 -57 20 -22
37 -45 37 -50 0 -5 -17 -11 -37 -13 -51 -4 -54 -25 -3 -30 22 -2 44 -1 48 2 4
3 37 4 75 2 61 -3 67 -6 67 -26 0 -12 -5 -27 -12 -34 -9 -9 -6 -22 11 -58 l23
-46 -47 -48 c-64 -65 -87 -68 -139 -19 -124 119 -125 120 -128 157 -2 27 -10
40 -29 51 -33 18 -63 10 -129 -34 -29 -19 -70 -38 -91 -41 -21 -4 -66 -24 -99
-45 -32 -22 -64 -39 -70 -39 -23 0 -7 -27 27 -45 20 -11 50 -32 66 -46 30 -27
66 -39 119 -39 16 0 38 -5 49 -11 11 -5 32 -9 47 -7 l27 4 -30 13 c-79 36 -96
41 -129 41 -26 0 -50 10 -81 33 -24 17 -44 37 -45 42 0 18 64 54 109 61 24 4
68 24 101 45 32 22 67 39 78 39 25 0 52 -25 52 -48 0 -9 23 -43 50 -75 53 -62
66 -92 55 -127 -5 -17 0 -23 37 -39 40 -18 50 -18 136 -6 98 14 103 16 170 79
32 31 42 47 42 72 0 18 5 45 11 61 14 37 4 85 -25 116 -14 15 -27 34 -31 44
-16 49 -65 83 -120 83 -22 0 -47 8 -63 20 -20 16 -34 19 -67 14 -32 -4 -46 -2
-58 11 -21 20 -21 21 -2 116 18 98 10 135 -46 209 -42 55 -89 139 -89 159 0
18 29 51 44 51 5 0 25 13 45 28 20 16 43 32 51 36 30 14 63 34 69 43 3 4 23
16 43 27 31 15 49 17 106 12 101 -10 158 20 94 49 -12 5 -22 19 -22 30 0 15
12 24 48 35 44 14 47 17 52 55 3 22 9 45 12 51 11 17 -56 84 -83 84 -13 0 -34
3 -46 6 -17 5 -31 -2 -57 -28 -19 -19 -51 -47 -71 -62 -20 -16 -59 -50 -86
-76 -27 -26 -59 -50 -72 -53 -40 -10 -97 -33 -109 -45 -7 -7 -19 -12 -27 -12
-9 0 -29 -7 -45 -15 -15 -8 -36 -15 -46 -15 -10 0 -25 -6 -32 -13 -7 -6 -31
-21 -52 -32 -56 -29 -70 -55 -63 -120 3 -30 13 -69 21 -87 9 -17 16 -37 16
-44 0 -19 -20 -28 -33 -15 -6 6 -29 11 -51 11 -23 0 -50 7 -60 15 -11 8 -30
15 -42 15 -13 0 -26 5 -29 10 -3 6 -15 10 -25 10 -10 0 -26 8 -36 17 -12 13
-36 19 -78 20 -34 1 -74 3 -91 4 -16 1 -34 1 -40 -1 -30 -8 -45 2 -54 38 -6
21 -24 53 -40 71 -17 19 -32 37 -33 40 -7 14 -93 71 -109 71 -24 0 -41 -25
-39 -57 1 -15 2 -31 1 -35 -1 -4 -26 4 -56 18 -67 29 -75 30 -75 4 0 -26 -29
-38 -44 -19 -19 25 -82 69 -99 69 -12 0 -17 -11 -19 -42 -3 -39 -6 -43 -38
-53 -19 -6 -45 -16 -57 -23 -16 -9 -46 -11 -100 -6 -59 5 -93 2 -138 -11 -84
-24 -149 -19 -194 17 -22 17 -26 17 -48 2 -27 -17 -53 -13 -53 10 0 18 -36 40
-50 31 -6 -3 -10 -12 -10 -20 0 -36 -103 -28 -150 12 -26 21 -30 32 -30 73 0
54 29 115 59 125 21 6 53 -4 127 -41 28 -14 62 -24 75 -22 20 2 24 8 22 34 -8
97 201 127 329 47 21 -13 41 -23 46 -23 5 0 26 -13 48 -30 21 -16 49 -30 62
-30 24 0 24 6 5 56 -2 6 5 22 16 35 18 22 26 24 98 23 67 -1 85 -5 128 -31 28
-16 71 -39 97 -52 27 -12 50 -27 54 -32 11 -19 31 -8 50 27 14 26 34 43 73 61
87 40 250 31 345 -19 36 -19 141 -48 154 -43 10 4 13 14 8 36 -10 54 2 75 62
107 77 41 151 52 317 49 104 -1 146 2 164 12 l24 13 -41 34 c-52 44 -69 91
-48 132 22 43 66 92 81 92 8 0 20 6 27 13 7 7 46 23 86 36 39 13 72 27 72 32
0 5 8 9 19 9 29 0 131 70 131 90 0 13 -11 19 -40 23 -46 6 -71 31 -96 94 -26
66 -15 122 51 258 52 108 64 138 82 212 7 30 -21 41 -47 18 -26 -24 -79 -13
-113 23 -27 28 -67 97 -67 115 0 5 -6 23 -14 40 -7 18 -24 60 -36 95 -13 34
-27 65 -31 68 -5 3 -9 14 -9 25 0 30 -28 79 -68 121 l-35 37 -39 -34 c-45 -41
-71 -44 -148 -14 -30 11 -64 23 -75 26 -11 3 -44 25 -74 49 -29 24 -60 44 -67
44 -8 0 -14 4 -14 9 0 13 -68 51 -91 51 -11 0 -33 19 -54 48 -19 27 -46 54
-60 62 -14 7 -25 19 -25 26 0 7 -6 17 -13 21 -34 21 -49 126 -26 177 6 13 22
27 36 31 55 13 -9 89 -97 113 -41 12 -93 30 -137 49 -17 7 -38 13 -45 13 -42
0 -68 85 -45 147 7 19 4 25 -18 33 -33 13 -119 13 -182 1 -26 -5 -74 -12 -105
-15 -53 -4 -58 -3 -58 15 0 11 15 36 33 55 34 38 51 71 39 78 -4 2 -36 -2 -71
-10 -77 -18 -91 -14 -91 25 0 16 -4 33 -10 36 -5 3 -10 13 -10 20 0 17 52 128
78 166 60 89 76 106 172 179 36 27 16 41 -61 42 -48 0 -73 -5 -99 -21 -57 -34
-61 -35 -92 -17 -40 24 -89 14 -137 -30 l-38 -34 -24 36 c-21 30 -89 74 -117
74 -5 0 -14 28 -20 62 -8 41 -21 74 -40 97 -35 43 -44 46 -65 23z m62 -155
c-2 -94 6 -108 54 -85 32 16 35 15 65 -9 18 -13 32 -28 32 -33 0 -5 -18 -14
-39 -20 -29 -8 -44 -19 -55 -42 -18 -35 -21 -58 -7 -58 5 0 12 -11 15 -25 4
-14 12 -25 19 -25 6 0 26 -7 42 -16 34 -18 96 -12 132 11 12 8 27 33 34 54 10
35 9 44 -10 76 -25 43 -26 55 -6 55 8 0 24 6 35 12 16 10 25 9 49 -5 37 -22
60 -22 85 2 23 20 82 35 90 22 3 -5 -15 -29 -39 -54 -25 -25 -45 -48 -45 -51
0 -10 -65 -101 -77 -109 -7 -4 -13 -16 -13 -26 0 -10 -7 -32 -15 -48 l-15 -31
-110 3 c-60 2 -114 6 -120 10 -6 4 -126 9 -268 12 -215 4 -260 7 -274 20 -10
9 -18 22 -18 29 0 18 -65 140 -85 161 -9 9 -28 33 -41 55 -13 21 -33 44 -44
50 -35 22 -25 41 18 35 60 -8 112 -35 112 -57 0 -26 32 -42 62 -31 29 11 88 2
88 -13 -1 -6 -15 -20 -33 -32 -26 -16 -31 -25 -29 -50 8 -74 92 -125 161 -97
42 17 80 59 80 88 0 23 -36 69 -61 78 -10 4 -18 15 -18 26 0 24 27 33 99 35
l46 1 -3 52 c-3 41 0 54 12 59 9 3 16 14 16 23 0 9 10 29 22 44 l22 28 18 -23
c14 -18 18 -39 17 -101z m-254 -173 c29 -7 39 -42 19 -71 -21 -34 -87 -32
-110 2 -8 13 -13 33 -10 43 7 22 44 43 64 36 8 -2 24 -7 37 -10z m491 -4 c10
0 14 -13 14 -45 0 -43 -1 -44 -35 -51 -57 -10 -104 3 -111 32 -11 42 35 78 90
69 16 -3 35 -5 42 -5z m-347 -249 c23 -6 22 -8 -15 -19 -28 -8 -62 -9 -110 -3
-51 6 -78 5 -104 -5 -19 -7 -53 -15 -75 -16 -31 -2 -40 1 -43 15 -2 11 5 21
20 26 26 11 291 12 327 2z m416 -33 c35 -3 50 -38 16 -38 -11 0 -23 5 -27 11
-4 8 -40 9 -114 4 -109 -7 -180 4 -180 27 0 9 193 6 305 -4z m-491 -58 c36
-16 70 -30 77 -30 8 0 8 -4 -1 -15 -16 -19 -51 -19 -114 0 -60 18 -116 22
-178 12 -48 -8 -55 -4 -39 22 6 9 26 13 55 13 35 -1 51 4 64 19 21 25 47 21
136 -21z m-886 -79 c5 -29 -24 -61 -55 -61 -27 0 -27 2 -10 33 33 60 59 71 65
28z m667 -31 c9 -16 20 -30 25 -30 15 0 12 -20 -4 -26 -24 -9 -86 63 -69 80
14 14 33 4 48 -24z m151 4 c-3 -9 -6 -20 -6 -25 0 -5 -7 -9 -15 -9 -15 0 -21
31 -8 43 13 14 35 7 29 -9z m-271 -44 c22 -22 48 -40 57 -40 8 0 21 -6 27 -14
10 -12 6 -15 -20 -21 -19 -4 -34 -3 -38 4 -4 6 -29 22 -56 36 -84 44 -113 92
-48 82 24 -4 50 -20 78 -47z m349 31 c8 -12 -41 -54 -54 -46 -8 5 -5 15 11 31
24 25 35 29 43 15z m-527 -66 c24 -25 43 -49 43 -55 0 -5 -27 6 -60 23 -46 25
-60 37 -60 55 0 35 29 27 77 -23z m-273 20 c11 -8 28 -15 38 -15 9 0 22 -9 28
-20 9 -16 8 -20 -5 -20 -9 0 -25 5 -36 11 -15 7 -24 7 -33 0 -8 -6 -21 -8 -31
-5 -14 6 -16 3 -10 -15 6 -20 4 -22 -13 -17 -14 5 -24 1 -31 -11 -13 -23 -23
-12 -24 28 -2 27 4 37 32 56 39 27 58 28 85 8z m626 -95 c0 -11 -7 -20 -15
-20 -8 0 -15 2 -15 4 0 2 -3 11 -6 20 -4 12 0 16 15 16 14 0 21 -6 21 -20z
m1339 -124 c6 -7 42 -16 81 -20 39 -4 70 -12 70 -17 0 -16 -62 -71 -70 -62 -5
4 -10 17 -12 28 -2 12 -13 21 -25 23 -27 4 -92 62 -70 62 8 0 20 -6 26 -14z
m-1354 -36 c3 -5 -3 -10 -14 -10 -11 0 -23 5 -26 10 -3 6 3 10 14 10 11 0 23
-4 26 -10z m-565 -21 c0 -36 -22 -99 -35 -99 -17 0 -28 89 -14 106 18 22 49
17 49 -7z m160 -24 c0 -41 -21 -47 -38 -11 -7 17 -7 27 1 35 22 22 37 12 37
-24z m145 -15 c-3 -6 -10 -10 -16 -10 -10 0 -12 33 -2 44 9 9 26 -22 18 -34z
m-60 -40 c-5 -8 -11 -8 -17 -2 -6 6 -7 16 -3 22 5 8 11 8 17 2 6 -6 7 -16 3
-22z m125 15 c0 -14 -34 -55 -45 -55 -10 0 -4 26 11 48 17 25 34 29 34 7z
m1408 -56 c20 -18 45 -43 54 -55 21 -26 36 -104 19 -104 -6 0 -11 11 -11 25 0
16 -11 32 -30 47 -16 12 -30 29 -30 39 0 9 -11 27 -25 40 -16 16 -24 34 -23
54 0 23 2 25 5 8 2 -12 21 -37 41 -54z m-1660 -3 c12 -24 19 -27 45 -23 37 5
90 -11 81 -24 -3 -5 -57 -9 -120 -9 -105 0 -115 2 -112 18 2 9 13 18 26 20 13
2 22 10 22 21 0 41 38 40 58 -3z m1398 -49 c23 -25 37 -57 26 -57 -13 0 -62
55 -62 68 0 18 13 14 36 -11z m-1069 -43 c33 -9 18 -24 -23 -24 -33 0 -46 13
-21 23 17 7 19 7 44 1z m1593 -7 c0 -7 8 -20 18 -28 11 -9 25 -25 33 -35 8
-10 27 -26 43 -34 30 -16 49 -51 40 -75 -9 -22 -73 -20 -81 3 -3 9 -12 24 -20
33 -8 9 -13 20 -11 25 3 13 -22 57 -38 67 -15 8 -19 39 -7 50 11 11 23 8 23
-6z m-1660 -7 c0 -5 -18 -10 -40 -10 -22 0 -40 5 -40 10 0 6 18 10 40 10 22 0
40 -4 40 -10z m-150 -27 c32 -12 -49 -20 -116 -11 -38 5 -99 6 -136 2 -37 -3
-73 -2 -80 3 -27 17 287 23 332 6z m280 -37 c-6 -8 -18 -12 -26 -9 -23 9 -16
23 12 23 22 0 24 -2 14 -14z m1375 -48 c-6 -43 -8 -50 -40 -121 -19 -44 -35
-40 -35 8 0 26 -7 39 -31 58 -32 25 -32 25 -10 36 15 9 20 18 16 32 -4 10 -2
19 4 19 13 0 23 -33 15 -54 -4 -12 0 -16 15 -16 12 0 21 6 21 14 0 29 20 66
36 66 13 0 15 -7 9 -42z m-1915 -36 c0 -13 -3 -12 -15 4 -19 25 -19 40 0 24 8
-7 15 -20 15 -28z m2110 -45 c-1 -13 -45 -67 -55 -67 -13 0 8 65 24 76 17 13
31 9 31 -9z m200 -17 c0 -5 6 -10 13 -10 7 0 28 -13 47 -30 19 -16 40 -29 46
-30 13 0 48 -49 41 -56 -6 -6 -81 26 -88 39 -4 5 -14 7 -23 4 -9 -4 -16 -2
-16 3 0 6 -14 10 -31 10 -28 0 -31 2 -25 24 3 14 2 28 -4 31 -18 11 -10 25 15
25 14 0 25 -4 25 -10z m-82 -27 c-3 -18 -74 -51 -85 -39 -3 3 4 17 17 31 28
29 73 35 68 8z m-318 -58 c0 -8 -7 -15 -15 -15 -16 0 -20 12 -8 23 11 12 23 8
23 -8z m130 -60 c0 -8 -4 -15 -10 -15 -5 0 -10 7 -10 15 0 8 5 15 10 15 6 0
10 -7 10 -15z m565 -30 c43 -27 80 -27 131 -1 45 23 50 23 66 9 10 -9 18 -24
18 -33 0 -9 7 -25 15 -36 8 -10 15 -34 15 -51 0 -18 4 -33 9 -33 5 0 14 -13
20 -30 5 -16 15 -30 20 -30 6 0 11 -11 11 -25 0 -57 122 -235 161 -235 10 0
21 -5 24 -11 4 -5 18 -15 32 -20 24 -9 25 -11 9 -28 -9 -9 -16 -25 -16 -34 0
-9 -9 -21 -20 -27 -11 -6 -20 -20 -20 -30 0 -11 -3 -20 -8 -20 -4 0 -18 -24
-32 -52 -24 -51 -25 -52 -28 -23 -2 17 -8 35 -13 41 -5 7 -7 30 -4 52 2 23 0
44 -5 47 -6 3 -10 21 -10 40 0 19 -4 36 -9 39 -5 4 -12 28 -16 56 -4 27 -13
55 -22 61 -8 7 -28 39 -44 71 -16 32 -33 58 -37 58 -5 0 -16 15 -25 34 -9 19
-25 37 -36 41 -11 3 -23 15 -26 26 -4 10 -13 19 -21 19 -16 0 -137 61 -162 82
-8 7 -29 17 -46 23 -17 5 -32 17 -34 27 -3 14 4 15 40 11 24 -3 52 -11 63 -18z
m-1361 -24 c7 -11 -14 -20 -31 -13 -7 2 -10 8 -7 13 7 12 31 12 38 0z m801
-19 c0 -12 6 -27 13 -34 7 -7 12 -22 12 -34 0 -12 7 -38 15 -57 29 -70 16 -87
-80 -103 -22 -4 -51 -15 -64 -25 -31 -25 -43 -24 -39 3 2 15 19 31 51 48 44
23 86 63 87 83 0 4 -11 7 -25 7 -18 0 -25 5 -25 20 0 11 7 23 16 27 8 3 14 15
13 27 -3 46 1 68 14 63 6 -2 12 -13 12 -25z m-1899 3 c4 -8 12 -15 19 -15 26
0 26 -20 1 -30 -30 -11 -86 -3 -86 13 0 16 31 47 47 47 7 0 16 -7 19 -15z
m-522 -39 l28 -24 -23 -32 c-32 -44 -130 -90 -191 -90 -37 0 -50 -4 -58 -20
-12 -22 -35 -26 -45 -9 -8 13 23 38 48 39 9 0 25 9 34 20 10 11 27 20 39 20
21 0 81 57 104 99 14 27 28 26 64 -3z m2516 -15 c0 -26 -16 -35 -24 -15 -10
25 -7 34 9 34 8 0 15 -9 15 -19z m-2042 -18 c6 -19 -25 -16 -32 3 -4 11 -1 14
11 12 9 -2 18 -9 21 -15z m1733 -6 c-1 -12 -15 -9 -19 4 -3 6 1 10 8 8 6 -3
11 -8 11 -12z m-81 -62 c0 -8 -4 -15 -10 -15 -5 0 -10 7 -10 15 0 8 5 15 10
15 6 0 10 -7 10 -15z m925 -46 c11 -10 37 -32 57 -49 20 -17 35 -37 32 -44 -3
-7 2 -19 11 -26 8 -7 15 -20 15 -29 0 -9 9 -22 20 -29 11 -6 32 -31 47 -55 27
-41 28 -44 27 -207 0 -168 -9 -221 -50 -302 -8 -14 -14 -34 -14 -43 0 -9 -9
-19 -20 -22 -11 -3 -20 -14 -20 -25 0 -10 -6 -26 -12 -35 -41 -50 -184 -173
-203 -173 -7 0 -18 -7 -25 -15 -7 -8 -20 -15 -29 -15 -9 0 -22 -5 -29 -12 -13
-13 -135 -60 -217 -84 -137 -40 -363 -65 -602 -65 -98 -1 -191 -1 -208 -2 -16
0 -64 1 -105 2 -41 1 -87 -1 -102 -4 -17 -5 -39 -1 -59 9 -36 18 -110 21 -126
5 -7 -7 -30 -8 -69 -2 -51 7 -59 11 -62 31 -3 18 -8 21 -30 15 -26 -6 -26 -6
-11 18 16 24 19 24 185 26 93 2 178 7 189 12 30 14 153 21 455 27 192 3 290 9
325 19 28 8 69 16 91 19 23 3 54 13 70 21 16 8 43 15 61 15 17 0 35 5 38 10 3
6 18 10 33 10 15 0 61 18 102 40 41 21 94 49 117 61 43 21 163 134 163 153 0
5 6 17 14 25 19 22 56 138 50 156 -3 8 1 34 10 57 16 41 16 46 -4 102 -11 33
-20 69 -20 82 0 13 -5 26 -11 30 -7 4 -9 22 -6 46 4 28 1 41 -9 45 -22 8 -17
22 6 16 11 -3 20 -14 20 -24 0 -11 5 -19 11 -19 12 0 2 58 -13 78 -6 6 -23 12
-39 12 -16 0 -29 5 -29 11 0 6 6 9 13 6 8 -3 20 -1 28 4 11 7 7 15 -19 41 -30
30 -34 31 -43 15 -14 -24 -32 -10 -24 20 7 31 -9 53 -35 46 -13 -4 -20 0 -20
9 0 20 48 12 75 -13z m-2205 1 c41 -1 87 1 101 5 17 4 38 1 57 -9 34 -18 117
-22 127 -6 4 7 59 8 128 1 14 -2 7 -52 -8 -57 -8 -4 -15 -10 -15 -15 0 -17 20
-9 42 16 16 19 31 25 57 24 28 -1 30 -3 11 -6 -14 -3 -35 -15 -48 -28 -21 -22
-30 -23 -189 -24 -105 -1 -171 -5 -180 -12 -7 -6 -26 -9 -42 -6 -16 4 -44 2
-63 -4 -18 -5 -163 -12 -322 -15 -160 -2 -308 -9 -330 -15 -23 -6 -67 -15 -99
-20 -32 -5 -71 -16 -87 -24 -16 -8 -42 -15 -59 -15 -16 0 -33 -4 -36 -10 -3
-5 -17 -10 -30 -10 -23 0 -118 -43 -218 -99 -58 -32 -125 -95 -167 -157 -35
-53 -72 -156 -64 -178 3 -8 -1 -35 -10 -58 -16 -41 -16 -46 4 -102 11 -33 20
-69 20 -81 0 -11 5 -26 11 -32 6 -6 9 -23 7 -39 -2 -21 -8 -28 -20 -26 -21 3
-21 0 -7 -50 5 -21 14 -38 19 -38 6 0 10 -8 10 -18 0 -10 11 -29 25 -42 28
-26 32 -40 12 -40 -20 0 -58 45 -52 61 3 8 -14 36 -38 64 -84 98 -82 91 -82
275 1 168 10 221 51 302 8 14 14 36 14 47 0 14 6 21 20 21 13 0 20 7 20 20 0
31 39 75 137 154 70 55 95 71 146 91 6 3 19 9 27 14 42 25 159 67 235 85 167
40 345 57 578 56 104 -1 191 1 195 4 3 4 13 4 21 2 9 -3 50 -6 91 -6z m-1302
-20 c55 0 63 -2 60 -17 -3 -13 -12 -17 -30 -15 -35 3 -43 -12 -22 -43 16 -25
16 -27 -4 -45 -12 -11 -28 -20 -37 -20 -8 0 -15 -5 -15 -11 0 -23 -109 -117
-140 -121 -16 -3 -30 -1 -30 4 0 4 9 8 20 8 11 0 20 4 20 9 0 5 16 19 34 32
19 13 44 40 56 61 18 33 19 42 9 83 -6 25 -15 48 -20 51 -5 3 -9 12 -9 21 0
11 6 14 23 9 12 -3 50 -6 85 -6z m3062 -20 c19 0 41 -4 48 -8 17 -12 4 -42
-18 -42 -34 0 -30 -17 5 -27 39 -12 50 -4 40 27 -8 27 19 37 51 20 22 -13 23
-15 9 -36 -26 -40 -20 -56 20 -48 33 6 35 5 35 -20 0 -29 -20 -35 -40 -11 -7
8 -19 15 -26 15 -8 0 -14 -7 -14 -15 0 -25 -30 -17 -60 15 -28 29 -29 30 -113
26 -46 -2 -93 -8 -103 -14 -11 -6 -42 -11 -69 -13 -45 -3 -50 -1 -47 17 5 27
21 44 42 44 9 0 25 9 35 20 18 20 18 20 51 -1 31 -19 34 -19 34 -3 0 28 41 66
65 60 11 -3 36 -6 55 -6z m215 -80 c18 -19 17 -20 -3 -20 -15 0 -22 6 -22 20
0 11 2 20 3 20 2 0 12 -9 22 -20z m167 -22 c21 -23 38 -47 38 -54 0 -6 7 -14
15 -18 16 -6 21 -46 5 -46 -5 0 -12 11 -16 24 -3 14 -12 27 -20 30 -8 3 -14
11 -14 19 0 7 -13 26 -30 42 -29 27 -38 45 -23 45 3 0 23 -19 45 -42z m-1407
-17 c30 -12 -55 -21 -123 -13 l-57 7 45 6 c65 9 112 9 135 0z m653 -29 c4 -35
-13 -44 -23 -12 -3 11 -15 20 -26 20 -19 0 -25 11 -13 23 3 3 18 5 32 4 23 -2
28 -8 30 -35z m-1248 -4 c10 -4 -546 -13 -575 -8 l-30 4 35 6 c33 5 559 3 570
-2z m150 2 c0 -5 -7 -10 -15 -10 -8 0 -15 5 -15 10 0 6 7 10 15 10 8 0 15 -4
15 -10z m1170 -25 c0 -8 -7 -15 -15 -15 -16 0 -20 12 -8 23 11 12 23 8 23 -8z
m-2131 -9 c-8 -8 -88 -10 -95 -3 -4 4 17 7 46 7 29 0 51 -2 49 -4z m2061 -23
c0 -9 -5 -33 -11 -52 -7 -20 -14 -42 -16 -50 -3 -11 -9 -9 -26 8 -13 11 -29
21 -35 21 -21 0 -13 16 21 40 17 13 36 29 40 37 11 18 27 16 27 -4z m-2217
-10 c-13 -2 -33 -2 -45 0 -13 2 -3 4 22 4 25 0 35 -2 23 -4z m2649 -36 c27
-20 29 -26 24 -65 -4 -32 -2 -44 9 -48 19 -8 19 -23 0 -48 -12 -16 -19 -18
-39 -8 -23 10 -24 15 -19 69 l5 58 -47 30 c-40 25 -44 30 -28 37 25 10 60 1
95 -25z m412 -3 c10 -25 7 -79 -3 -68 -14 14 -25 84 -13 84 5 0 13 -7 16 -16z
m-1054 -34 c-23 -18 -80 -28 -80 -15 0 9 63 34 85 34 18 1 18 -1 -5 -19z m558
-25 c15 -32 15 -62 2 -70 -19 -12 -10 -35 18 -47 48 -21 63 -44 60 -90 -4 -50
-34 -77 -96 -85 -48 -6 -92 16 -92 47 0 34 -32 42 -76 19 -48 -24 -71 -21 -97
12 -47 64 -26 179 32 179 16 0 34 -7 41 -15 19 -23 48 -18 67 13 34 54 45 62
88 62 35 0 44 -4 53 -25z m-2868 -12 c0 -5 -18 -21 -40 -37 -22 -17 -40 -33
-40 -38 0 -4 -6 -8 -12 -8 -7 0 -22 -14 -33 -30 -11 -16 -23 -30 -28 -30 -4 0
-12 -10 -18 -22 -5 -13 -19 -39 -29 -58 -19 -35 -19 -35 -20 -7 0 15 4 27 9
27 5 0 12 14 16 30 8 36 95 132 145 159 39 22 50 25 50 14z m2204 -11 c-21
-20 -97 -109 -118 -137 -12 -17 -14 -17 -39 0 -15 9 -27 25 -27 35 0 15 -10
17 -85 14 -47 -2 -85 -1 -85 1 0 17 59 29 148 30 93 1 104 4 118 23 8 12 21
19 29 16 7 -3 18 4 25 15 6 12 20 21 32 21 22 0 22 0 2 -18z m-2747 -28 c-6
-36 -6 -36 26 -31 32 5 33 4 34 -29 1 -19 -3 -37 -8 -40 -5 -3 -7 -33 -3 -68
6 -59 -5 -106 -24 -106 -4 0 -8 28 -8 61 -1 34 -7 64 -12 68 -6 3 -14 19 -17
34 -4 15 -11 27 -16 27 -5 0 -9 5 -9 12 0 6 -15 24 -32 39 -25 21 -30 30 -21
39 9 10 55 25 87 29 5 1 6 -15 3 -35z m3004 3 c-1 -12 -15 -9 -19 4 -3 6 1 10
8 8 6 -3 11 -8 11 -12z m929 -19 c0 -36 -4 -35 -14 5 -4 16 -2 27 4 27 5 0 10
-14 10 -32z m-870 -13 c0 -8 -4 -15 -9 -15 -13 0 -22 16 -14 24 11 11 23 6 23
-9z m-680 -55 c0 -5 -4 -10 -10 -10 -5 0 -19 -8 -29 -17 -37 -34 -50 -43 -93
-65 -24 -12 -46 -26 -49 -31 -9 -13 -29 1 -29 19 0 8 -4 14 -9 14 -7 0 -31 51
-31 66 0 2 11 4 25 4 14 0 25 -4 25 -10 0 -11 63 -14 74 -3 11 11 88 41 109
42 9 1 17 -3 17 -9z m135 -29 c8 -14 -71 -73 -157 -115 -43 -20 -80 -42 -83
-47 -4 -5 -32 -9 -63 -9 -59 0 -102 19 -102 44 0 8 -7 19 -15 26 -8 7 -15 21
-15 31 0 13 -7 19 -24 19 -39 0 -75 -17 -178 -86 -102 -68 -158 -84 -158 -45
0 24 44 56 142 104 43 21 80 43 83 48 4 5 33 9 67 9 55 0 63 -3 90 -32 16 -17
32 -45 35 -61 5 -26 9 -29 38 -24 52 9 93 30 207 109 52 37 119 51 133 29z
m1691 -92 c1 -34 7 -64 12 -68 6 -3 14 -19 17 -34 4 -15 11 -27 16 -27 5 0 9
-6 9 -13 0 -7 14 -23 30 -35 17 -13 30 -27 30 -32 0 -12 -27 -26 -67 -33 -28
-6 -33 -4 -33 13 0 10 5 22 10 25 17 11 0 25 -29 25 -23 0 -30 5 -34 27 -3 15
-1 36 4 45 5 10 6 35 3 57 -8 49 3 111 19 111 8 0 12 -21 13 -61z m-3198 29
c-7 -19 -38 -22 -38 -4 0 10 9 16 21 16 12 0 19 -5 17 -12z m772 -3 c-7 -8
-16 -12 -21 -9 -13 8 -1 24 18 24 13 0 13 -3 3 -15z m-873 -16 c7 -6 13 -20
13 -30 0 -32 30 -39 72 -18 61 31 86 26 108 -23 37 -81 16 -168 -39 -168 -16
0 -34 7 -41 15 -22 26 -48 17 -77 -27 -26 -39 -33 -43 -74 -46 -40 -3 -47 0
-57 23 -15 33 -15 50 0 74 13 22 -3 51 -28 51 -49 0 -74 99 -34 135 37 33 124
41 157 14z m1151 -41 c31 -52 37 -78 16 -78 -10 0 -25 6 -33 14 -14 12 -23 12
-66 -1 -27 -8 -63 -21 -78 -29 -33 -16 -57 -18 -57 -4 0 6 7 10 15 10 9 0 18
7 21 15 4 8 12 15 20 15 7 0 17 6 21 13 8 13 101 75 115 76 3 1 15 -14 26 -31z
m1834 -17 c-6 -3 -13 -18 -17 -32 -14 -55 -170 -197 -193 -174 -3 3 -3 6 -1 8
53 40 107 86 117 99 7 9 20 25 30 34 20 20 37 48 54 88 12 27 13 27 16 6 2
-13 -1 -26 -6 -29z m-642 13 c0 -8 -9 -14 -20 -14 -22 0 -26 10 -8 28 13 13
28 7 28 -14z m-820 -34 c0 -5 -9 -10 -21 -10 -11 0 -17 5 -14 10 3 6 13 10 21
10 8 0 14 -4 14 -10z m-2410 -105 c5 -5 7 -29 6 -53 -1 -24 1 -45 6 -48 4 -3
8 -20 8 -39 0 -19 4 -36 9 -39 5 -3 12 -26 15 -51 4 -25 13 -50 20 -57 18 -19
66 -109 66 -124 0 -8 6 -14 13 -14 7 0 21 -15 30 -34 9 -19 25 -37 36 -41 12
-3 24 -17 27 -31 4 -16 13 -24 27 -24 26 0 149 -59 160 -77 4 -7 16 -13 25
-13 23 0 64 -29 57 -40 -7 -11 -85 -1 -110 15 -45 28 -83 28 -134 1 -47 -24
-50 -24 -65 -7 -9 10 -16 24 -16 32 0 9 -7 24 -15 35 -8 10 -15 33 -15 50 0
19 -6 34 -15 38 -8 3 -15 15 -15 26 0 11 -7 23 -15 26 -8 4 -15 17 -15 30 0
57 -123 234 -164 234 -9 0 -19 7 -22 15 -4 8 -14 15 -24 15 -26 0 -33 15 -15
30 8 7 15 21 15 31 0 10 9 23 20 29 11 6 20 20 20 30 0 11 3 20 8 20 4 0 18
24 32 53 24 50 25 51 28 22 2 -16 7 -34 12 -40z m720 15 c15 -8 17 -18 13 -67
l-5 -58 41 -25 c22 -14 41 -28 41 -31 0 -13 -42 -18 -67 -8 -49 18 -58 37 -58
121 -1 79 2 86 35 68z m1085 0 c-3 -5 -24 -15 -46 -21 -36 -11 -42 -10 -61 8
l-20 21 66 0 c37 0 64 -4 61 -8z m-1521 -42 c4 -17 2 -28 -4 -28 -5 0 -10 14
-10 32 0 36 4 35 14 -4z m31 -100 c5 -24 3 -38 -3 -38 -13 0 -22 25 -22 63 0
40 16 24 25 -25z m3205 -28 c0 -5 -12 -10 -27 -9 -25 0 -26 1 -8 9 27 12 35
12 35 0z m530 0 c0 -5 -9 -10 -20 -10 -11 0 -20 -4 -20 -10 0 -5 -16 -20 -35
-32 -70 -47 -88 -118 -47 -190 9 -15 13 -30 10 -33 -3 -3 -42 -3 -87 1 -68 6
-81 10 -79 23 3 12 13 15 36 13 35 -4 44 16 17 38 -8 7 -15 18 -15 24 0 13 44
56 58 56 5 0 12 7 16 15 3 8 17 20 31 25 14 5 25 16 25 24 0 23 55 57 103 65
4 0 7 -3 7 -9z m-3704 -55 c3 -14 10 -25 15 -25 5 0 12 -8 16 -17 3 -10 20
-33 36 -50 17 -18 28 -36 24 -40 -9 -8 -87 75 -87 93 0 6 -7 14 -15 18 -16 6
-21 46 -5 46 5 0 12 -11 16 -25z m3052 18 c-10 -2 -26 -2 -35 0 -10 3 -2 5 17
5 19 0 27 -2 18 -5z m-98 -29 c0 -2 -24 -3 -52 -3 -52 2 -53 2 -13 8 37 6 65
4 65 -5z m-3046 -20 c23 -9 20 -23 -4 -17 -11 3 -20 9 -20 14 0 11 3 11 24 3z
m2711 -4 l30 -8 -32 -1 c-56 -3 -563 -2 -570 1 -5 1 107 5 247 8 140 3 264 6
275 7 11 0 34 -3 50 -7z m-2345 -15 c15 -18 5 -35 -20 -35 -13 0 -20 -8 -22
-26 l-3 -26 -19 21 c-20 22 -20 22 2 28 15 3 22 13 22 29 0 27 21 32 40 9z
m105 -21 c13 -14 31 -24 48 -24 15 0 27 -2 27 -4 0 -17 -15 -36 -27 -36 -8 0
-13 -7 -11 -17 4 -21 28 -30 28 -10 0 8 7 17 15 21 8 3 14 15 12 28 -2 21 2
23 39 23 22 1 58 6 80 12 137 40 164 42 164 13 0 -15 7 -20 25 -20 14 0 25 -4
25 -9 0 -14 -72 -67 -100 -74 -14 -3 -45 -13 -70 -22 -34 -13 -62 -15 -115
-11 -38 4 -88 7 -109 9 -22 1 -41 8 -44 15 -2 7 -13 10 -25 7 -12 -3 -31 1
-42 9 -16 12 -18 18 -8 37 7 13 15 39 18 57 6 28 10 32 28 27 12 -4 31 -18 42
-31z m1545 26 c0 -5 -7 -10 -15 -10 -8 0 -15 5 -15 10 0 6 7 10 15 10 8 0 15
-4 15 -10z m-302 -25 c8 -7 -140 -15 -164 -8 l-29 7 30 7 c26 6 154 1 163 -6z
m-1620 -128 c-3 -28 0 -32 25 -35 15 -2 27 -9 27 -16 0 -22 -58 -6 -76 21 -13
20 -14 30 -5 50 15 32 33 19 29 -20z m3312 -7 c13 -8 12 -11 -5 -24 -11 -9
-27 -16 -36 -16 -9 0 -28 -9 -42 -20 -14 -11 -32 -20 -40 -20 -15 0 -78 -64
-97 -99 -14 -27 -29 -26 -62 4 -27 24 -28 24 -10 54 22 39 136 93 199 95 31 1
47 6 54 19 11 19 18 21 39 7z m-676 -134 c-3 -7 -16 -19 -28 -26 -13 -7 -34
-25 -45 -41 -24 -32 -48 -38 -57 -14 -4 8 -12 15 -20 15 -8 0 -14 4 -14 10 0
12 34 30 58 30 11 0 22 7 26 15 5 13 9 13 26 3 18 -11 23 -10 31 5 12 20 31
23 23 3z m-1654 -60 c0 -7 -7 -19 -15 -26 -9 -7 -15 -26 -13 -44 1 -17 1 -50
0 -73 l-2 -41 -49 -4 c-26 -1 -56 -2 -65 0 -22 5 -20 22 3 22 26 0 54 46 48
78 -7 34 8 64 41 84 34 20 52 22 52 4z m-765 -116 c3 -5 15 -10 25 -10 10 0
25 -7 34 -15 8 -8 36 -18 61 -22 43 -5 46 -8 40 -31 -4 -17 -1 -28 12 -38 16
-12 15 -13 -14 -14 -18 0 -33 4 -33 10 0 5 -11 12 -24 16 -14 3 -33 15 -43 26
-10 11 -28 24 -40 29 -13 5 -23 15 -23 24 0 8 -4 15 -10 15 -5 0 -10 5 -10 10
0 6 4 10 9 10 6 0 13 -4 16 -10z m403 -47 c-8 -10 -19 -31 -22 -48 -9 -35 -33
-65 -53 -65 -18 0 -17 -39 2 -46 9 -4 14 -11 13 -18 -3 -14 21 -58 40 -72 8
-6 13 -19 11 -29 -5 -22 -29 -33 -29 -13 0 15 -96 108 -111 108 -13 0 -30 47
-23 65 4 9 19 15 38 15 46 1 99 52 94 91 -4 27 -2 29 25 29 28 0 29 -1 15 -17z
m-98 -12 c0 -13 -63 -51 -84 -51 -26 0 -19 28 12 43 31 17 72 21 72 8z m286
-73 c11 -24 28 -44 43 -50 l26 -10 -24 -9 c-14 -6 -21 -15 -17 -24 3 -8 1 -17
-3 -20 -10 -6 -21 18 -21 46 0 34 -27 21 -34 -17 -6 -31 -29 -54 -41 -42 -3 2
-2 28 2 56 4 34 10 52 19 52 20 0 17 20 -3 36 -15 11 -16 15 -4 23 22 14 37 3
57 -41z m207 16 c-4 -12 -8 -13 -14 -3 -9 15 -2 32 11 24 5 -3 6 -13 3 -21z
m-129 0 c22 -9 10 -24 -20 -24 -23 0 -31 10 -17 23 8 9 17 9 37 1z m1801 -102
c-6 -7 -35 18 -35 31 0 5 9 2 20 -8 11 -10 18 -20 15 -23z m-535 -52 c0 -5 -9
-10 -20 -10 -11 0 -20 5 -20 10 0 6 9 10 20 10 11 0 20 -4 20 -10z m-1370 -28
c0 -10 14 -31 30 -47 17 -16 30 -39 30 -51 0 -15 11 -29 30 -41 32 -19 32 -19
22 -46 -6 -15 -12 -11 -32 22 -14 22 -30 41 -36 41 -31 1 -86 140 -55 140 6 0
11 -8 11 -18z m1825 2 c66 -1 122 -3 125 -4 3 -2 -47 -6 -110 -10 -126 -7
-240 -2 -240 11 0 11 40 17 75 11 17 -3 84 -6 150 -8z m-375 -33 c0 -5 -9 -12
-19 -16 -24 -7 -73 4 -65 16 7 12 84 12 84 0z m90 -1 c0 -5 -18 -10 -41 -10
-24 0 -38 4 -34 10 3 6 22 10 41 10 19 0 34 -4 34 -10z m-1207 -25 c25 -22 37
-55 20 -55 -11 0 -48 42 -56 63 -9 23 3 21 36 -8z m734 -62 c-3 -10 -5 -2 -5
17 0 19 2 27 5 18 2 -10 2 -26 0 -35z m761 20 c-2 -10 -13 -19 -25 -21 -14 -2
-23 -12 -25 -25 -4 -32 -40 -28 -56 6 -12 25 -19 28 -45 24 -37 -5 -90 11 -81
24 3 5 57 9 120 9 105 0 115 -2 112 -17z m-308 -56 c0 -17 -29 -57 -41 -57
-15 0 -10 29 9 49 20 23 32 26 32 8z m374 -53 c7 -51 -4 -74 -35 -74 -22 0
-25 24 -7 81 15 53 34 49 42 -7z m-279 6 c-5 -8 -11 -8 -17 -2 -6 6 -7 16 -3
22 5 8 11 8 17 2 6 -6 7 -16 3 -22z m101 -24 c7 -29 -1 -46 -22 -46 -9 0 -14
11 -14 35 0 41 26 49 36 11z m-1864 -13 c2 -22 9 -29 29 -31 15 -2 39 -17 55
-34 24 -26 26 -30 9 -25 -102 29 -133 37 -152 37 -32 0 -29 16 9 51 40 36 46
36 50 2z m1708 8 c0 -11 -4 -22 -9 -25 -11 -7 -23 22 -15 35 9 16 24 10 24
-10z m-260 -211 c9 -17 8 -20 -14 -20 -13 0 -26 6 -29 14 -12 31 27 36 43 6z
m704 -26 c8 -31 -11 -56 -56 -75 -25 -10 -34 -10 -58 4 -15 10 -35 17 -44 17
-8 0 -20 9 -26 20 -9 16 -8 20 5 20 9 0 25 -5 36 -11 14 -7 24 -7 33 0 6 6 22
8 34 4 24 -6 29 6 10 26 -11 11 -9 12 9 7 12 -4 24 -2 28 4 11 17 23 11 29
-16z m-582 -21 c1 -5 21 -17 42 -28 55 -28 86 -54 86 -72 0 -30 -69 -8 -115
37 -22 22 -46 40 -53 40 -7 0 -19 6 -26 12 -11 10 -9 15 8 24 20 10 50 4 58
-13z m228 -8 c21 -14 44 -34 50 -45 6 -11 17 -20 25 -20 8 0 15 -4 15 -10 0
-13 -9 -13 -51 1 -38 13 -99 66 -99 86 0 19 16 16 60 -12z m-510 -48 c0 -20
-37 -50 -50 -42 -8 5 -4 15 11 31 25 27 39 31 39 11z m199 -17 c34 -31 37 -53
8 -58 -10 -2 -21 7 -28 22 -15 32 -39 34 -40 4 -1 -15 -3 -17 -6 -7 -5 18 13
69 25 69 4 0 22 -14 41 -30z m-139 -20 c0 -11 -7 -23 -15 -27 -21 -7 -25 -2
-18 25 7 28 33 29 33 2z m860 15 c0 -22 -49 -85 -67 -85 -19 0 -16 50 4 72 14
16 63 26 63 13z m-931 -90 c51 -18 120 -22 184 -12 39 7 47 6 47 -7 0 -22 -17
-29 -66 -28 -32 1 -49 -4 -63 -20 -24 -24 -44 -21 -140 24 -79 36 -79 37 -61
48 21 14 51 12 99 -5z m-524 -75 c4 -7 55 -10 138 -8 130 3 177 -3 177 -24 0
-8 -94 -8 -315 2 -18 1 -35 16 -35 33 0 11 28 9 35 -3z m765 -30 c0 -32 -39
-40 -193 -39 -171 1 -202 8 -132 32 34 11 53 13 62 5 13 -11 110 -6 183 10 71
15 80 14 80 -8z m-560 -65 c7 -4 128 -9 268 -12 282 -4 284 -5 298 -67 3 -17
11 -38 18 -46 6 -8 20 -31 30 -50 11 -19 22 -37 26 -40 3 -3 25 -31 49 -62 23
-32 46 -58 51 -58 6 0 10 -7 10 -16 0 -13 -7 -16 -37 -11 -61 8 -113 35 -113
57 0 28 -18 35 -87 32 -73 -4 -82 10 -30 43 28 18 32 25 29 55 -7 70 -85 114
-161 91 -42 -12 -81 -55 -81 -88 1 -22 38 -67 63 -76 25 -9 21 -44 -5 -53 -13
-5 -45 -8 -73 -9 l-50 0 3 -52 c3 -41 0 -54 -12 -59 -9 -3 -16 -14 -16 -24 0
-9 -11 -29 -23 -44 l-24 -27 -17 26 c-13 20 -17 44 -15 101 3 91 -7 105 -55
82 -33 -16 -34 -16 -67 12 -28 25 -32 31 -19 40 8 5 22 10 30 10 23 1 43 21
68 69 17 32 18 42 7 37 -9 -3 -19 3 -25 15 -18 33 -93 62 -141 54 -83 -14
-117 -80 -79 -152 13 -24 21 -45 19 -46 -2 -1 -21 -8 -41 -15 -32 -11 -41 -11
-60 2 -30 21 -57 20 -82 -3 -24 -22 -81 -37 -90 -23 -3 5 14 28 37 53 39 40
56 62 74 99 4 8 11 20 15 25 5 6 17 21 28 34 11 13 20 32 20 43 0 10 5 18 10
18 6 0 10 8 10 18 0 10 2 21 5 24 8 8 221 2 235 -7z m-22 -131 c57 -40 -5
-101 -89 -88 -38 6 -39 7 -39 50 0 46 6 51 70 53 20 0 46 -6 58 -15z m468 -19
c32 -50 -14 -93 -79 -73 -41 13 -53 42 -31 75 21 34 87 32 110 -2z"/>
<path d="M1952 2429 c1 -13 8 -23 13 -21 15 3 12 35 -3 40 -9 3 -13 -3 -10
-19z"/>
<path d="M2317 2444 c-11 -11 3 -24 18 -18 8 4 12 10 9 15 -6 11 -18 12 -27 3z"/>
<path d="M1340 4803 c0 -5 5 -15 10 -23 8 -12 10 -11 10 8 0 12 -4 22 -10 22
-5 0 -10 -3 -10 -7z"/>
<path d="M1477 4772 c-17 -19 -23 -53 -11 -65 14 -14 54 26 54 54 0 33 -19 38
-43 11z"/>
<path d="M1850 4506 c0 -8 7 -16 15 -20 9 -3 15 -18 15 -39 0 -19 -7 -40 -15
-47 -8 -7 -15 -18 -15 -24 0 -7 -18 -28 -40 -46 -46 -38 -50 -50 -17 -50 23 0
67 40 100 90 24 36 22 92 -6 123 -25 30 -37 34 -37 13z"/>
<path d="M4853 1518 c-48 -52 -63 -80 -63 -119 0 -33 33 -89 53 -89 13 0 7 28
-8 34 -9 3 -15 18 -15 39 0 19 7 40 15 47 8 7 15 18 15 25 0 7 18 27 40 46 46
39 49 49 17 49 -13 0 -36 -14 -54 -32z"/>
<path d="M5203 1113 c-26 -17 -33 -73 -10 -73 20 0 47 33 47 58 0 28 -11 33
-37 15z"/>
<path d="M5335 1050 c-4 -6 -2 -17 4 -23 15 -15 25 -2 13 19 -7 12 -11 13 -17
4z"/>
</g>
</svg>
