<?xml version="1.0" standalone="no"?>
<!DOCTYPE svg PUBLIC "-//W3C//DTD SVG 20010904//EN"
 "http://www.w3.org/TR/2001/REC-SVG-20010904/DTD/svg10.dtd">
<svg version="1.0" xmlns="http://www.w3.org/2000/svg"
 width="224.000000pt" height="194.000000pt" viewBox="0 0 224.000000 194.000000"
 preserveAspectRatio="xMidYMid meet">
<metadata>
Created by potrace 1.10, written by Peter Selinger 2001-2011
</metadata>
<g transform="translate(0.000000,194.000000) scale(0.100000,-0.100000)"
fill="#000000" stroke="none">
<path d="M1107 1816 c-9 -14 -17 -29 -17 -33 0 -13 -59 -43 -65 -32 -4 5 -17
9 -30 9 -13 0 -27 5 -30 10 -3 6 -23 10 -42 10 l-37 0 26 -27 c46 -50 59 -78
55 -119 l-4 -39 -74 -12 c-73 -13 -100 -11 -98 4 7 44 -39 9 -51 -39 l-12 -41
-21 21 -21 22 32 31 c45 44 42 54 -28 89 -25 12 -58 38 -73 56 -22 27 -36 34
-63 34 -39 0 -46 -21 -17 -52 9 -11 11 -18 5 -18 -31 0 -6 -20 38 -31 74 -19
81 -33 29 -58 -24 -12 -48 -21 -53 -21 -14 1 -58 69 -51 80 8 13 -25 21 -61
14 -39 -7 -62 -30 -70 -70 -8 -41 30 -81 86 -90 l41 -7 -6 -38 c-5 -31 -2 -45
19 -76 14 -21 26 -41 26 -45 0 -17 -96 -68 -129 -68 -28 0 -31 -2 -22 -14 10
-11 8 -16 -8 -21 -21 -6 -26 -21 -15 -49 10 -26 46 -18 85 17 20 18 67 46 104
62 l67 28 -5 43 c-4 42 -4 42 23 34 15 -4 37 -13 48 -19 11 -6 39 -11 61 -11
27 0 41 -4 41 -13 0 -16 42 -57 58 -57 7 0 12 7 12 15 0 11 5 12 25 5 16 -6
25 -6 25 0 0 6 11 3 25 -6 22 -15 25 -15 25 -1 0 9 5 19 11 22 11 7 100 16
134 14 11 0 30 -2 43 -3 12 0 22 -4 22 -7 0 -4 17 -6 37 -5 28 1 38 -3 41 -16
3 -15 -4 -18 -47 -18 -45 0 -49 -2 -46 -20 8 -44 -64 -47 -132 -7 -33 19 -33
19 -33 -2 0 -28 -46 -28 -99 -2 -37 19 -38 19 -54 0 -21 -23 -82 -26 -134 -4
-46 20 -53 19 -53 -5 0 -28 -36 -44 -105 -46 -33 -1 -66 -2 -73 -3 -7 -1 -4
-9 8 -21 30 -30 12 -54 -65 -91 -36 -17 -65 -34 -65 -37 0 -4 10 -12 22 -17
33 -14 34 -60 4 -125 -26 -56 -26 -73 -1 -63 24 8 41 -13 70 -85 35 -88 43
-97 65 -77 16 15 21 15 55 1 44 -19 48 -19 39 -5 -4 8 -1 8 12 1 19 -10 26
-12 42 -12 5 0 9 -7 9 -15 0 -19 -6 -19 -29 2 -10 9 -21 14 -24 10 -3 -3 12
-17 34 -31 72 -45 102 -104 65 -125 -24 -13 -11 -25 52 -48 42 -16 51 -23 53
-47 3 -27 4 -28 63 -24 55 3 72 -3 49 -17 -18 -11 -10 -25 14 -25 49 0 38 -53
-23 -119 -17 -18 -31 -35 -31 -38 0 -3 15 -2 33 1 17 4 43 7 57 7 14 1 33 8
43 16 11 10 17 12 17 4 0 -6 10 -16 23 -22 13 -6 28 -24 33 -41 12 -38 25 -38
44 0 17 34 66 67 76 51 3 -6 15 -9 25 -6 10 3 23 -1 30 -9 6 -8 27 -14 47 -14
l36 0 -26 27 c-46 50 -59 78 -55 119 l4 39 74 12 c81 14 99 12 99 -12 0 -32
39 4 50 47 l12 41 21 -21 21 -22 -32 -31 c-45 -44 -42 -54 28 -89 25 -12 60
-40 78 -61 28 -33 36 -37 56 -29 13 5 27 6 30 3 14 -15 4 32 -11 49 -9 11 -11
18 -5 18 31 0 6 20 -38 31 -74 19 -81 33 -29 58 24 12 48 21 53 21 14 -1 58
-69 51 -80 -8 -13 25 -21 61 -14 39 7 62 30 70 70 8 41 -30 81 -86 90 l-41 7
6 38 c5 31 2 45 -19 76 -14 21 -26 41 -26 46 0 17 95 67 128 67 29 0 32 2 23
14 -10 11 -8 16 8 21 21 6 26 21 15 49 -10 25 -46 19 -82 -15 -18 -16 -54 -39
-80 -50 -97 -41 -95 -39 -89 -85 4 -41 4 -42 -23 -34 -15 4 -37 13 -48 19 -11
6 -39 11 -61 11 -27 0 -41 4 -41 13 0 16 -42 57 -58 57 -7 0 -12 -7 -12 -15 0
-11 -5 -12 -25 -5 -16 6 -25 6 -25 0 0 -6 -11 -3 -25 6 -22 15 -25 15 -25 1 0
-9 -5 -19 -11 -22 -11 -7 -100 -16 -134 -14 -11 0 -30 2 -42 3 -13 0 -23 4
-23 7 0 4 -17 6 -37 5 -32 -1 -38 2 -41 22 -2 13 2 29 8 37 10 13 16 12 41 -1
29 -15 55 -11 44 7 -9 14 43 30 73 22 14 -3 41 -15 59 -26 33 -19 33 -19 33 2
0 28 46 28 99 2 37 -19 38 -19 54 0 21 23 82 26 134 4 46 -20 53 -19 53 5 0
28 36 44 105 46 88 2 87 2 65 24 -30 30 -12 54 65 91 36 17 65 34 65 37 0 4
-10 12 -22 17 -33 14 -34 60 -4 125 26 56 26 73 1 63 -24 -8 -41 13 -70 85
-35 88 -43 97 -65 77 -21 -19 -51 -10 -127 41 -85 56 -115 110 -75 133 23 13
10 25 -53 48 -42 16 -51 23 -53 47 -3 27 -4 28 -63 24 -55 -3 -72 3 -49 17 18
11 10 25 -14 25 -45 0 -42 37 11 106 12 17 20 34 16 38 -4 4 0 4 10 0 10 -4
17 -1 17 6 0 9 -10 10 -32 6 -18 -4 -44 -7 -58 -7 -14 -1 -33 -8 -42 -16 -12
-10 -18 -12 -18 -4 0 6 -11 17 -25 23 -14 6 -25 19 -25 28 0 9 -6 24 -13 34
-13 17 -14 17 -30 -8z m31 -38 c-4 -25 -2 -29 13 -25 10 3 23 -1 30 -9 9 -11
8 -14 -4 -14 -22 0 -29 -27 -11 -45 33 -33 84 -3 63 37 -5 10 -6 18 -2 19 4 0
25 1 46 3 20 2 37 2 37 0 0 -1 -15 -24 -33 -50 -30 -46 -35 -49 -72 -47 -22 1
-79 2 -128 2 -84 1 -88 2 -97 27 -6 14 -22 41 -36 60 -20 26 -23 34 -11 34 9
0 22 -7 31 -15 8 -8 25 -15 37 -15 18 0 20 -3 11 -12 -29 -29 10 -68 48 -48
24 13 26 38 5 46 -24 9 -17 24 10 24 16 0 25 6 25 16 0 24 20 55 31 48 6 -3 9
-20 7 -36z m-510 -83 c4 -5 28 -20 55 -32 54 -26 59 -44 23 -82 -26 -29 -46
-79 -26 -66 6 4 19 0 28 -8 9 -8 27 -18 40 -22 23 -7 23 -7 3 -23 -10 -10 -28
-22 -38 -29 -18 -12 -7 -9 70 14 9 3 17 1 17 -5 0 -6 3 -17 6 -25 3 -9 -8 -22
-33 -37 l-38 -22 -65 23 c-36 12 -69 27 -73 33 -5 6 -5 -5 -2 -24 16 -78 15
-81 -50 -108 -33 -13 -70 -33 -83 -45 -26 -24 -31 -25 -43 -6 -8 14 6 39 22
39 15 0 109 64 109 75 0 6 -11 28 -24 49 -18 30 -22 49 -18 78 3 28 0 44 -12
57 -17 18 -17 20 1 24 10 3 -1 5 -23 6 -40 1 -42 2 -40 31 1 16 9 37 19 47 16
16 18 15 47 -12 16 -16 30 -34 30 -41 0 -22 20 -26 45 -10 13 9 30 16 37 16 8
0 24 7 36 16 30 21 15 41 -45 56 -27 6 -40 14 -33 18 9 6 9 9 0 15 -8 5 -6 12
6 27 20 21 20 21 52 -27z m432 9 c0 -8 -9 -14 -20 -14 -19 0 -27 19 -14 33 10
9 34 -4 34 -19z m160 1 c0 -9 -9 -15 -25 -15 -24 0 -32 10 -18 23 12 13 43 7
43 -8z m-111 -69 c-11 -9 -130 -15 -124 -6 3 6 34 10 67 10 34 0 59 -2 57 -4z
m104 -13 c-13 -2 -35 -2 -50 0 -16 2 -5 4 22 4 28 0 40 -2 28 -4z m34 -10 c-4
-3 -7 0 -7 7 0 7 3 10 7 7 3 -4 3 -10 0 -14z m-167 -8 c24 -13 22 -14 -32 -12
-59 2 -76 12 -35 20 37 7 41 7 67 -8z m-305 -34 c-3 -6 -11 -11 -17 -11 -6 0
-6 6 2 15 14 17 26 13 15 -4z m225 -3 c0 -9 4 -8 10 2 6 9 10 10 10 3 0 -19
-17 -24 -30 -8 -9 10 -9 15 -1 15 6 0 11 -6 11 -12z m47 -5 c-4 -3 -7 0 -7 7
0 7 3 10 7 7 3 -4 3 -10 0 -14z m-80 -13 c14 -11 23 -20 20 -20 -14 0 -57 24
-57 32 0 13 10 10 37 -12z m113 16 c0 -3 -5 -8 -12 -12 -7 -4 -8 -3 -4 4 7 12
16 16 16 8z m-254 -22 c15 -12 15 -14 2 -11 -9 3 -19 3 -22 -1 -9 -9 -36 -11
-36 -3 0 9 22 31 30 31 3 0 15 -7 26 -16z m80 -5 c19 -22 19 -22 -3 -10 -24
12 -39 31 -25 31 5 0 17 -10 28 -21z m111 -26 c-4 -3 -7 0 -7 7 0 7 3 10 7 7
3 -4 3 -10 0 -14z m493 -59 c-9 -10 -15 -10 -31 4 -10 9 -19 17 -19 17 0 1 14
0 30 -3 24 -3 28 -7 20 -18z m-680 9 c0 -5 -5 -15 -10 -23 -8 -12 -10 -11 -10
8 0 12 5 22 10 22 6 0 10 -3 10 -7z m187 0 c-4 -3 -10 -3 -14 0 -3 4 0 7 7 7
7 0 10 -3 7 -7z m-137 -13 c0 -5 -7 -7 -15 -4 -8 4 -15 8 -15 10 0 2 7 4 15 4
8 0 15 -4 15 -10z m47 -7 c-4 -3 -7 0 -7 7 0 7 3 10 7 7 3 -4 3 -10 0 -14z
m148 -3 c3 -5 4 -10 1 -10 -3 0 -8 5 -11 10 -3 6 -4 10 -1 10 3 0 8 -4 11 -10z
m-128 -15 c0 -8 -4 -12 -9 -9 -5 3 -6 10 -3 15 9 13 12 11 12 -6z m487 -34
c-5 -5 -33 30 -34 43 0 4 9 -2 19 -15 11 -13 17 -26 15 -28z m-539 16 c11 -2
1 -5 -23 -6 -36 -1 -41 1 -30 13 7 8 18 10 23 6 6 -4 19 -10 30 -13z m192 -9
c-3 -8 -6 -5 -6 6 -1 11 2 17 5 13 3 -3 4 -12 1 -19z m248 2 c3 -5 4 -10 1
-10 -3 0 -8 5 -11 10 -3 6 -4 10 -1 10 3 0 8 -4 11 -10z m-388 -17 c-4 -3 -10
-3 -14 0 -3 4 0 7 7 7 7 0 10 -3 7 -7z m30 0 c-4 -3 -10 -3 -14 0 -3 4 0 7 7
7 7 0 10 -3 7 -7z m573 -50 c0 -32 -32 -5 -45 37 l-8 25 26 -25 c15 -14 27
-31 27 -37z m-672 40 c-15 -2 -42 -2 -60 0 -18 2 -6 4 27 4 33 0 48 -2 33 -4z
m119 -10 c-4 -3 -10 -3 -14 0 -3 4 0 7 7 7 7 0 10 -3 7 -7z m442 -20 c1 29 16
19 16 -12 0 -16 -4 -27 -9 -23 -5 3 -7 -2 -3 -11 10 -27 0 -19 -15 11 -8 15
-12 34 -10 42 4 11 7 10 13 -5 6 -17 8 -17 8 -2z m-624 -3 c3 -5 4 -10 1 -10
-3 0 -8 5 -11 10 -3 6 -4 10 -1 10 3 0 8 -4 11 -10z m696 -37 c-8 -15 -10 -15
-11 -2 0 17 10 32 18 25 2 -3 -1 -13 -7 -23z m104 -8 c17 -14 25 -25 19 -25
-6 0 -14 3 -18 8 -4 4 -12 8 -17 8 -5 1 -13 2 -17 3 -10 1 -12 31 -3 31 3 -1
20 -12 36 -25z m-60 5 c-3 -5 -11 -10 -16 -10 -6 0 -7 5 -4 10 3 6 11 10 16
10 6 0 7 -4 4 -10z m231 -118 c21 -44 42 -76 58 -84 l25 -13 -24 -39 c-25 -42
-27 -40 -40 38 -6 37 -58 126 -73 126 -4 0 -25 11 -47 24 l-40 25 54 -3 54 -3
33 -71z m-912 47 c-3 -5 -10 -7 -15 -4 -5 4 -9 1 -9 -6 0 -7 -3 -10 -6 -6 -12
12 5 37 21 31 8 -3 12 -10 9 -15z m639 -30 c6 -23 3 -27 -28 -36 -19 -6 -35
-7 -35 -3 0 5 9 11 20 15 11 3 19 14 18 23 -1 9 0 26 1 37 1 16 3 17 10 5 5
-8 11 -27 14 -41z m-813 20 c0 -13 -42 -39 -63 -39 -17 0 -16 4 9 28 27 25 54
31 54 11z m827 -6 c-4 -3 -7 0 -7 7 0 7 3 10 7 7 3 -4 3 -10 0 -14z m189 -41
c39 -32 64 -86 64 -139 0 -51 -15 -107 -34 -131 -55 -67 -128 -106 -233 -122
-78 -13 -383 -10 -383 3 0 4 -10 6 -22 2 -17 -4 -19 -3 -8 3 15 9 124 19 305
28 97 5 188 25 246 54 20 11 39 17 43 15 3 -3 4 -2 1 1 -2 4 7 21 21 39 29 38
40 99 24 139 -8 23 -8 31 2 38 11 6 11 8 0 8 -7 0 -10 5 -7 10 3 6 1 10 -4 10
-6 0 -10 6 -8 13 1 6 -4 11 -10 10 -7 -2 -13 3 -13 11 0 8 -6 17 -12 19 -7 3
-8 6 -3 6 6 0 19 -7 31 -17z m-1168 -3 c11 0 12 -2 5 -6 -7 -2 -13 -9 -13 -14
0 -13 -51 -69 -63 -69 -6 0 2 11 16 24 23 22 25 29 17 52 -9 22 -8 25 6 20 8
-3 23 -6 32 -7z m59 4 c-4 -3 -10 -3 -14 0 -3 4 0 7 7 7 7 0 10 -3 7 -7z m503
-4 c0 -4 10 -5 23 -2 15 3 18 2 9 -5 -7 -5 -41 -10 -74 -11 -34 -1 -64 -4 -68
-6 -3 -2 -62 -7 -131 -10 -129 -6 -217 -23 -280 -55 -20 -11 -38 -18 -40 -17
-2 1 -3 0 -2 -2 1 -2 -9 -18 -23 -36 -29 -38 -40 -99 -24 -139 8 -23 8 -31 -2
-38 -10 -6 -10 -8 1 -8 8 0 11 -3 8 -6 -9 -10 12 -46 24 -39 5 4 9 -1 9 -9 0
-9 5 -16 12 -16 6 0 9 -3 6 -6 -8 -7 -58 25 -58 38 0 5 -9 21 -20 35 -32 41
-24 164 14 211 52 64 128 106 219 121 62 11 397 11 397 0z m475 -9 c14 -5 23
-14 20 -20 -3 -5 -1 -10 4 -10 6 0 11 5 11 11 0 5 5 7 11 3 8 -5 8 -9 -1 -14
-7 -4 -9 -13 -5 -20 6 -9 4 -11 -6 -4 -24 14 -42 18 -101 17 -32 0 -58 1 -58
3 0 6 73 42 87 43 6 1 24 -3 38 -9z m121 -51 c8 -17 14 -34 12 -38 -2 -4 -12
12 -24 35 -23 48 -13 50 12 3z m-498 14 c-10 -2 -26 -2 -35 0 -10 3 -2 5 17 5
19 0 27 -2 18 -5z m232 -3 c0 -5 -7 -7 -15 -4 -8 4 -15 8 -15 10 0 2 7 4 15 4
8 0 15 -4 15 -10z m-467 -7 c-29 -2 -77 -2 -105 0 -29 2 -6 3 52 3 58 0 81 -1
53 -3z m-226 -9 c-3 -3 -12 -4 -19 -1 -8 3 -5 6 6 6 11 1 17 -2 13 -5z m-50
-11 c-4 -3 -10 -3 -14 0 -3 4 0 7 7 7 7 0 10 -3 7 -7z m736 -12 c-3 -13 -10
-18 -20 -14 -14 5 -13 8 3 20 23 17 23 17 17 -6z m-776 2 c-4 -3 -10 -3 -14 0
-3 4 0 7 7 7 7 0 10 -3 7 -7z m934 -25 c8 -31 -8 -50 -17 -21 -3 10 -10 26
-15 36 -8 15 -7 18 7 15 10 -1 21 -15 25 -30z m-226 12 c-3 -5 -12 -10 -18
-10 -7 0 -6 4 3 10 19 12 23 12 15 0z m-779 -22 c-15 -12 -37 -35 -47 -52 -10
-17 -19 -25 -19 -17 0 15 72 91 86 91 5 0 -4 -10 -20 -22z m967 -3 c-1 -11 5
-24 13 -28 21 -12 17 -35 -8 -48 -17 -9 -24 -8 -34 5 -8 12 -20 15 -38 10 -21
-5 -26 -2 -32 19 -8 33 3 49 25 42 10 -3 24 1 31 10 18 21 45 14 43 -10z
m-1137 -1 c-4 -11 -2 -15 8 -11 9 4 13 0 11 -11 -2 -9 -4 -30 -5 -47 l-2 -30
-8 33 c-4 18 -15 41 -25 52 -16 17 -15 19 2 23 10 3 20 5 22 6 2 0 0 -6 -3
-15z m910 -4 c0 -10 -2 -17 -5 -15 -2 3 -13 -2 -22 -11 -16 -15 -19 -15 -24
-2 -8 21 -46 15 -91 -16 -28 -19 -40 -22 -46 -13 -12 19 -9 27 6 21 8 -3 29 2
48 12 18 9 48 19 67 21 26 3 54 13 66 23 1 0 1 -9 1 -20z m401 -7 c-4 -3 -7 0
-7 7 0 7 3 10 7 7 3 -4 3 -10 0 -14z m-467 -27 c0 -9 -94 -56 -111 -56 -10 0
-24 9 -31 20 -16 26 -26 25 -70 -5 -37 -25 -58 -31 -58 -17 0 10 82 52 102 52
10 0 23 -9 30 -20 16 -26 26 -25 68 5 31 21 70 33 70 21z m584 -85 c16 -17 15
-19 -4 -24 -15 -4 -20 -2 -16 8 2 7 -1 16 -8 18 -8 3 -11 18 -7 43 l4 39 8
-33 c3 -18 14 -41 23 -51z m-1127 53 c4 -11 13 -13 34 -9 24 6 29 3 35 -19 7
-31 -3 -49 -23 -41 -9 3 -24 -2 -34 -11 -23 -21 -53 -11 -44 15 3 12 0 21 -10
25 -20 7 -19 33 3 45 24 14 32 13 39 -5z m393 -27 c0 -5 -4 -6 -10 -2 -5 3
-26 -2 -47 -11 -46 -20 -85 -26 -77 -12 3 5 12 7 19 5 7 -3 32 8 56 23 41 28
58 27 59 -3z m610 24 c0 -15 -50 -70 -74 -82 -11 -6 -4 3 16 20 20 17 40 40
43 51 7 21 15 27 15 11z m-480 -5 c0 -3 -5 -8 -12 -12 -7 -4 -8 -3 -4 4 7 12
16 16 16 8z m-806 -94 c7 -49 64 -142 86 -142 8 0 28 -9 44 -19 l29 -20 -53 3
-53 3 -33 71 c-22 47 -42 75 -59 85 -24 12 -25 15 -12 28 8 8 18 26 22 39 9
30 20 13 29 -48z m236 29 c0 -9 6 -23 13 -30 10 -10 8 -12 -7 -9 -19 3 -40 51
-29 62 10 9 23 -4 23 -23z m-153 2 c-4 -3 -7 0 -7 7 0 7 3 10 7 7 3 -4 3 -10
0 -14z m45 -90 c6 -7 8 -13 4 -13 -10 0 -46 63 -46 80 1 8 7 0 16 -19 8 -19
19 -41 26 -48z m1035 50 c-4 -3 -10 -3 -14 0 -3 4 0 7 7 7 7 0 10 -3 7 -7z
m150 -17 c-23 -21 -25 -29 -17 -50 10 -28 2 -32 -35 -16 -12 5 -14 9 -6 9 8 1
11 4 7 8 -7 8 53 73 67 73 6 0 -2 -11 -16 -24z m-190 7 c-4 -3 -10 -3 -14 0
-3 4 0 7 7 7 7 0 10 -3 7 -7z m-933 -36 c-3 -9 -10 -14 -16 -11 -5 4 -5 11 1
18 6 7 9 15 7 18 -1 3 1 2 6 -2 5 -3 6 -14 2 -23z m893 27 c-3 -3 -12 -4 -19
-1 -8 3 -5 6 6 6 11 1 17 -2 13 -5z m-783 -20 c69 8 94 -8 44 -29 -52 -21 -92
-20 -84 3 5 15 5 15 -8 -1 -19 -25 -57 -7 -49 23 4 16 9 18 25 9 12 -6 42 -8
72 -5z m639 9 c-29 -2 -77 -2 -105 0 -29 2 -6 3 52 3 58 0 81 -1 53 -3z m-305
-10 c-10 -2 -26 -2 -35 0 -10 3 -2 5 17 5 19 0 27 -2 18 -5z m579 -50 c-4 -3
-10 -3 -14 0 -3 4 0 7 7 7 7 0 10 -3 7 -7z m-53 -31 c-21 -20 -33 -25 -43 -18
-10 8 -9 14 9 28 12 10 31 18 42 18 19 0 18 -3 -8 -28z m-190 -23 c-9 -10 -23
-15 -31 -12 -14 6 -14 7 0 18 9 6 23 12 32 12 13 0 13 -2 -1 -18z m416 -11 c0
-10 -8 -22 -18 -26 -34 -13 -112 -67 -112 -77 0 -5 11 -28 24 -49 18 -30 22
-49 18 -78 -3 -28 0 -44 12 -57 17 -18 17 -20 -1 -24 -10 -3 1 -5 23 -6 40 -1
42 -2 40 -31 -1 -16 -9 -37 -19 -47 -16 -16 -18 -15 -47 12 -16 16 -30 34 -30
41 0 22 -20 26 -45 10 -13 -9 -29 -16 -35 -16 -6 0 -22 -7 -36 -16 -32 -22
-17 -40 45 -56 25 -6 40 -13 33 -16 -9 -3 -10 -8 -2 -16 7 -9 5 -18 -9 -30
-18 -17 -20 -16 -36 11 -10 16 -38 37 -66 50 -56 25 -62 43 -25 82 26 29 46
79 26 66 -6 -4 -19 0 -28 8 -9 8 -27 18 -40 22 -23 7 -23 7 -3 23 10 10 28 22
38 29 18 12 7 9 -69 -14 -10 -3 -18 -1 -18 5 0 6 -3 17 -6 25 -3 9 8 22 33 37
l38 22 65 -23 c36 -12 69 -27 73 -33 5 -6 5 5 2 24 -16 78 -15 81 50 107 33
14 68 32 78 42 24 23 47 23 47 -1z m-958 -23 c-4 -30 -8 -35 -30 -35 -25 0
-25 1 -6 14 10 8 16 18 12 22 -8 7 9 34 21 34 4 0 5 -16 3 -35z m-119 -35 c-3
-11 -9 -23 -14 -26 -4 -2 -4 -16 1 -30 14 -37 13 -39 -15 -13 -30 29 -32 45
-5 52 11 3 20 12 20 21 0 9 4 16 9 16 5 0 7 -9 4 -20z m-38 0 c-3 -5 -11 -10
-16 -10 -6 0 -7 5 -4 10 3 6 11 10 16 10 6 0 7 -4 4 -10z m99 -38 c-4 -12 -10
-22 -15 -22 -5 0 -4 11 1 24 5 13 7 26 6 29 -2 2 1 2 5 -2 5 -3 6 -16 3 -29z
m73 21 c-4 -3 -7 0 -7 7 0 7 3 10 7 7 3 -4 3 -10 0 -14z m-40 0 c-4 -3 -10 -3
-14 0 -3 4 0 7 7 7 7 0 10 -3 7 -7z m-13 -28 c-4 -8 -8 -15 -10 -15 -2 0 -4 7
-4 15 0 8 4 15 10 15 5 0 7 -7 4 -15z m611 5 c3 -5 4 -10 1 -10 -3 0 -8 5 -11
10 -3 6 -4 10 -1 10 3 0 8 -4 11 -10z m-178 -27 c-4 -3 -10 -3 -14 0 -3 4 0 7
7 7 7 0 10 -3 7 -7z m-417 -68 c-1 -11 -27 20 -41 50 -6 11 1 7 15 -10 14 -16
26 -34 26 -40z m583 58 c-18 -2 -48 -2 -65 0 -18 2 -4 4 32 4 36 0 50 -2 33
-4z m-146 -9 c-3 -3 -12 -4 -19 -1 -8 3 -5 6 6 6 11 1 17 -2 13 -5z m30 -1
c-4 -3 -10 -3 -14 0 -3 4 0 7 7 7 7 0 10 -3 7 -7z m-392 -13 c3 -5 4 -10 1
-10 -3 0 -8 5 -11 10 -3 6 -4 10 -1 10 3 0 8 -4 11 -10z m242 -17 c-4 -3 -7 0
-7 7 0 7 3 10 7 7 3 -4 3 -10 0 -14z m241 3 c-7 -8 -17 -10 -23 -6 -5 4 -19
10 -30 13 -11 2 -1 5 23 6 36 1 41 -1 30 -13z m-93 -5 c3 -5 2 -12 -3 -15 -5
-3 -9 1 -9 9 0 17 3 19 12 6z m-130 -21 c3 -5 4 -10 1 -10 -3 0 -8 5 -11 10
-3 6 -4 10 -1 10 3 0 8 -4 11 -10z m251 -27 c-11 -11 -17 4 -9 23 7 18 8 18
11 1 2 -10 1 -21 -2 -24z m-649 -9 c-1 -1 -14 0 -30 3 -21 4 -25 8 -17 19 9
10 15 10 30 -4 11 -9 18 -17 17 -18z m540 19 c-4 -3 -7 0 -7 7 0 7 3 10 7 7 3
-4 3 -10 0 -14z m50 0 c-4 -3 -7 0 -7 7 0 7 3 10 7 7 3 -4 3 -10 0 -14z m-132
-63 c3 -5 1 -10 -4 -10 -6 0 -11 5 -11 10 0 6 2 10 4 10 3 0 8 -4 11 -10z
m145 -46 c0 -9 -37 15 -51 33 -10 12 -5 11 19 -6 17 -12 32 -24 32 -27z m90
36 c0 -19 -29 -31 -49 -20 -24 12 -28 25 -6 17 8 -4 17 -3 19 2 6 10 36 10 36
1z m-177 -17 c18 -9 26 -18 20 -20 -7 -3 -25 5 -39 16 -32 25 -24 27 19 4z
m-113 -7 c0 -3 -5 -8 -12 -12 -7 -4 -8 -3 -4 4 7 12 16 16 16 8z m75 -25 c-3
-3 -10 1 -15 9 -8 13 -10 13 -10 1 0 -8 -3 -12 -6 -8 -3 3 -3 11 1 17 5 8 11
8 21 -1 8 -6 12 -14 9 -18z m-58 2 c-4 -3 -7 0 -7 7 0 7 3 10 7 7 3 -4 3 -10
0 -14z m283 2 c-7 -9 -15 -13 -17 -11 -7 7 7 26 19 26 6 0 6 -6 -2 -15z m-230
-26 c0 -15 -63 -18 -88 -4 -26 14 -25 14 30 12 32 -1 58 -5 58 -8z m-253 -26
c-4 -3 -7 0 -7 7 0 7 3 10 7 7 3 -4 3 -10 0 -14z m117 -1 c2 -4 -14 -6 -37 -4
-68 5 -76 10 -20 11 28 0 54 -2 57 -7z m141 -3 c-4 -5 -34 -9 -68 -8 -71 1
-52 13 23 16 29 1 48 -2 45 -8z m-92 -18 c84 -1 88 -2 97 -27 6 -14 22 -41 36
-60 20 -26 23 -34 11 -34 -9 0 -22 7 -31 15 -8 8 -25 15 -37 15 -18 0 -20 3
-11 12 29 29 -10 68 -48 48 -24 -13 -26 -38 -5 -46 23 -9 18 -24 -8 -24 -17 0
-25 -8 -32 -32 -12 -40 -30 -38 -30 3 0 24 -3 29 -17 26 -9 -3 -22 1 -29 9 -9
11 -8 14 2 14 8 0 19 8 26 19 10 16 8 20 -13 30 -14 6 -31 11 -39 11 -21 0
-35 -31 -24 -52 5 -10 6 -18 2 -19 -4 0 -25 -1 -46 -3 -21 -2 -36 0 -35 3 2 3
17 27 33 52 28 43 32 45 70 43 22 -1 79 -3 128 -3z m-95 -53 c-7 -20 -48 -23
-48 -4 0 11 9 16 26 16 16 0 24 -5 22 -12z m152 -1 c0 -19 -10 -27 -26 -20
-21 8 -17 33 6 33 11 0 20 -6 20 -13z"/>
<path d="M450 1600 c0 -7 3 -10 7 -7 3 4 3 10 0 14 -4 3 -7 0 -7 -7z"/>
<path d="M497 1593 c-4 -3 -7 -11 -7 -17 0 -6 5 -5 12 2 6 6 9 14 7 17 -3 3
-9 2 -12 -2z"/>
<path d="M627 1491 c3 -11 -4 -27 -18 -40 -13 -11 -18 -21 -12 -21 28 0 56 61
34 74 -5 4 -7 -2 -4 -13z"/>
<path d="M1568 1143 c7 -3 16 -2 19 1 4 3 -2 6 -13 5 -11 0 -14 -3 -6 -6z"/>
<path d="M773 813 c4 -3 10 -3 14 0 3 4 0 7 -7 7 -7 0 -10 -3 -7 -7z"/>
<path d="M1617 502 c-19 -20 -22 -48 -8 -56 5 -4 7 3 4 13 -3 11 4 28 16 40
12 12 17 21 13 21 -5 0 -16 -8 -25 -18z"/>
<path d="M1737 373 c-4 -3 -7 -11 -7 -17 0 -6 5 -5 12 2 6 6 9 14 7 17 -3 3
-9 2 -12 -2z"/>
<path d="M1780 350 c0 -7 3 -10 7 -7 3 4 3 10 0 14 -4 3 -7 0 -7 -7z"/>
</g>
</svg>
