<?xml version="1.0" standalone="no"?>
<!DOCTYPE svg PUBLIC "-//W3C//DTD SVG 20010904//EN"
 "http://www.w3.org/TR/2001/REC-SVG-20010904/DTD/svg10.dtd">
<svg version="1.0" xmlns="http://www.w3.org/2000/svg"
 width="672.000000pt" height="582.000000pt" viewBox="0 0 672.000000 582.000000"
 preserveAspectRatio="xMidYMid meet">
<metadata>
Created by potrace 1.10, written by Peter Selinger 2001-2011
</metadata>
<g transform="translate(0.000000,582.000000) scale(0.100000,-0.100000)"
fill="#000000" stroke="none">
<path d="M3324 5493 c-9 -29 -37 -87 -50 -103 -7 -8 -14 -31 -16 -50 -2 -29
-8 -35 -33 -41 -52 -11 -104 -38 -115 -59 -9 -17 -14 -18 -33 -7 -12 6 -27 18
-33 26 -8 10 -24 12 -57 9 -37 -4 -50 -2 -63 13 -9 11 -23 19 -31 19 -7 0 -16
7 -19 15 -4 10 -19 15 -43 15 -20 0 -43 6 -49 12 -10 10 -17 10 -33 0 -12 -8
-33 -11 -48 -7 -19 4 -32 1 -41 -10 -11 -14 -8 -21 20 -50 19 -19 39 -35 44
-35 12 0 56 -44 56 -55 0 -4 13 -24 28 -44 15 -20 37 -54 47 -76 11 -22 25
-47 32 -55 6 -8 14 -31 18 -50 5 -29 2 -39 -14 -54 -25 -22 -27 -53 -6 -82 13
-19 12 -23 -15 -42 -23 -17 -44 -22 -97 -22 -43 -1 -75 -6 -87 -15 -14 -11
-34 -13 -77 -8 -47 5 -65 2 -99 -16 -22 -11 -58 -21 -80 -21 -43 0 -43 0 -44
75 -1 37 -3 40 -32 43 -26 3 -40 -6 -82 -47 -53 -52 -69 -85 -59 -123 4 -13
-2 -32 -14 -49 -13 -19 -18 -36 -13 -53 10 -40 -19 -33 -66 15 -56 58 -53 77
25 155 36 36 65 74 65 84 0 11 5 20 10 20 14 0 28 40 23 61 -7 26 -74 89 -94
89 -10 0 -20 4 -23 9 -6 9 -38 26 -146 74 -33 15 -65 38 -79 58 -14 19 -30 38
-38 42 -7 4 -13 14 -13 21 0 15 -71 90 -109 114 -21 15 -24 14 -36 -1 -15 -21
-24 -21 -45 -2 -15 14 -20 13 -43 -5 -14 -11 -32 -17 -41 -14 -10 4 -18 -1
-21 -12 -4 -11 -12 -31 -19 -45 -17 -34 -6 -53 43 -79 55 -27 70 -70 25 -70
-22 0 -25 -4 -22 -27 2 -22 9 -29 30 -31 14 -2 32 -10 38 -18 7 -8 25 -14 40
-14 15 0 33 -7 40 -15 8 -10 30 -15 65 -15 35 0 57 -5 65 -15 7 -8 18 -15 24
-15 13 -1 56 -35 56 -45 0 -17 -49 -44 -80 -45 -40 0 -94 -24 -140 -64 -50
-41 -93 -34 -105 19 -4 17 -27 50 -50 75 -56 59 -64 77 -54 112 7 26 5 30 -32
48 -38 20 -44 20 -144 6 -102 -14 -106 -15 -160 -62 -30 -26 -56 -53 -57 -58
-2 -18 -8 -68 -14 -126 -5 -52 -4 -57 25 -84 17 -17 31 -35 31 -40 1 -16 41
-61 72 -80 18 -12 37 -15 61 -11 29 6 37 3 50 -15 14 -20 21 -22 66 -16 47 6
51 5 67 -20 15 -22 16 -29 4 -47 -8 -13 -16 -60 -18 -109 -4 -71 -1 -90 12
-103 9 -9 16 -22 16 -29 0 -7 12 -25 28 -42 15 -16 36 -47 47 -69 11 -22 26
-48 34 -57 18 -23 3 -42 -57 -70 -24 -12 -46 -27 -49 -34 -2 -7 -16 -15 -30
-19 -14 -3 -37 -19 -52 -36 -14 -16 -33 -29 -42 -29 -9 0 -22 -7 -29 -15 -16
-19 -68 -19 -108 0 -27 14 -33 14 -66 -2 -43 -20 -51 -59 -14 -65 17 -2 24
-11 26 -30 3 -26 1 -27 -26 -22 -46 9 -82 -19 -82 -65 0 -20 -4 -41 -10 -47
-6 -6 2 -23 23 -47 25 -29 39 -37 66 -37 19 0 39 -7 45 -16 11 -14 18 -10 58
29 25 24 72 65 104 90 33 25 72 59 88 76 19 20 39 31 57 31 15 0 30 4 34 9 3
5 18 12 34 16 16 3 35 13 42 21 6 8 23 14 38 14 14 0 35 7 45 15 11 8 27 15
37 15 9 0 22 7 29 15 7 8 20 15 29 15 9 0 34 17 54 38 41 42 50 92 22 128 -8
10 -15 29 -15 40 0 12 -7 24 -15 28 -16 6 -20 41 -6 51 5 3 12 1 16 -5 3 -5
23 -10 44 -10 20 0 46 -7 57 -15 10 -8 31 -15 45 -15 15 0 32 -7 39 -15 7 -8
19 -15 28 -15 8 0 23 -6 31 -14 17 -15 203 -27 216 -14 8 8 37 -2 47 -16 4 -6
8 -19 8 -29 0 -21 86 -137 101 -137 5 0 18 -9 29 -20 11 -11 27 -20 35 -20 19
0 19 -13 1 -48 -20 -39 -43 -55 -106 -76 -86 -28 -230 -16 -300 25 -8 5 -22
12 -30 15 -8 3 -28 12 -45 20 -33 16 -105 21 -124 10 -9 -6 -9 -12 2 -24 9
-10 16 -24 17 -32 7 -45 -1 -55 -68 -87 -77 -36 -132 -46 -247 -42 -140 4
-179 2 -218 -10 -20 -7 -37 -18 -37 -24 0 -7 21 -24 45 -39 48 -29 61 -57 51
-111 -7 -39 -67 -107 -94 -107 -11 0 -22 -7 -26 -15 -3 -8 -18 -15 -34 -15
-15 0 -37 -7 -48 -15 -10 -8 -29 -15 -40 -15 -12 0 -27 -7 -34 -15 -7 -8 -21
-15 -31 -15 -10 0 -20 -4 -24 -9 -3 -6 -25 -20 -49 -32 -70 -34 -71 -79 -3
-79 39 0 44 -3 77 -51 32 -47 35 -58 34 -116 -1 -43 -7 -70 -18 -82 -9 -10
-16 -22 -16 -28 0 -6 -20 -49 -45 -96 -25 -48 -45 -95 -45 -106 0 -11 -7 -26
-15 -35 -8 -8 -15 -31 -15 -50 0 -33 2 -36 29 -36 16 0 31 6 35 15 3 9 19 15
41 15 27 0 42 -8 70 -38 19 -20 35 -44 35 -53 0 -9 7 -22 15 -29 8 -7 15 -25
15 -40 0 -15 7 -33 15 -40 8 -7 15 -23 15 -35 0 -26 36 -111 50 -120 6 -3 10
-17 10 -30 0 -24 36 -95 49 -95 4 0 15 -13 24 -30 23 -38 37 -38 62 0 11 16
32 32 48 36 35 7 106 -4 134 -22 12 -8 30 -14 39 -14 9 0 35 -15 58 -33 83
-67 160 -117 180 -117 25 -1 66 -33 66 -52 0 -16 34 -50 68 -67 12 -6 22 -18
22 -26 0 -8 4 -15 8 -15 15 0 42 -70 42 -106 0 -50 -25 -94 -54 -94 -25 0 -39
-20 -31 -43 9 -21 99 -77 126 -77 15 0 32 -7 39 -15 7 -8 27 -15 44 -15 17 0
40 -7 50 -15 11 -8 32 -15 46 -15 55 0 84 -72 55 -134 -10 -20 -16 -38 -14
-39 15 -10 80 -27 101 -27 14 0 80 11 148 25 147 30 150 30 150 6 0 -22 -8
-31 -69 -81 -50 -42 -57 -80 -13 -80 15 0 37 7 49 15 11 8 39 17 62 21 42 7
47 3 41 -35 -1 -8 4 -25 11 -37 10 -19 9 -29 -5 -56 -37 -74 -73 -135 -96
-162 -75 -89 -116 -128 -142 -133 -30 -6 -54 -36 -43 -53 3 -6 48 -10 100 -10
89 0 94 1 125 30 37 34 43 36 60 15 8 -10 30 -15 61 -15 42 0 55 5 88 35 l38
35 24 -34 c26 -39 52 -57 94 -66 23 -4 31 -12 32 -30 6 -69 21 -110 50 -143
35 -40 70 -48 79 -19 9 28 37 86 50 102 7 8 14 31 16 50 3 30 7 36 33 40 47 9
103 38 115 60 9 17 14 18 33 7 12 -6 27 -18 33 -26 8 -10 24 -12 58 -9 39 5
48 2 57 -13 5 -11 19 -19 30 -19 11 0 22 -7 25 -15 4 -10 19 -15 43 -15 20 0
43 -6 49 -12 10 -10 17 -10 32 0 10 6 32 9 48 6 18 -4 32 -1 41 9 10 13 6 21
-20 51 -17 20 -36 36 -43 36 -12 0 -56 43 -56 55 0 4 -13 24 -28 44 -33 42
-102 179 -102 202 0 9 9 24 20 34 21 19 27 60 10 70 -17 10 -11 36 13 56 17
14 38 18 90 19 45 0 76 5 92 16 20 13 33 14 75 5 45 -10 54 -9 94 14 27 15 61
25 84 25 46 0 56 -18 45 -82 l-6 -38 37 0 c32 0 45 8 87 51 51 52 65 84 56
121 -4 13 2 32 14 49 13 19 18 36 13 53 -10 40 19 33 66 -15 56 -58 53 -77
-25 -155 -36 -36 -65 -73 -65 -83 0 -11 -7 -21 -15 -25 -9 -3 -15 -18 -15 -39
0 -39 49 -90 115 -121 22 -10 47 -22 55 -27 8 -5 22 -12 30 -16 89 -37 118
-55 139 -84 14 -19 30 -38 38 -42 7 -4 13 -14 13 -22 0 -15 109 -125 124 -125
5 0 18 7 28 17 17 15 19 15 37 -1 20 -18 46 -13 55 10 4 10 13 13 26 9 14 -5
22 -1 26 12 3 10 11 31 19 46 14 26 13 30 -8 50 -13 12 -38 30 -55 39 -41 22
-45 58 -6 58 22 0 25 4 22 28 -2 21 -9 28 -30 30 -14 2 -32 10 -38 18 -7 8
-25 14 -40 14 -15 0 -33 7 -40 15 -8 10 -30 15 -65 15 -35 0 -57 5 -65 15 -7
8 -18 15 -24 15 -13 1 -56 35 -56 45 0 20 49 44 88 45 42 0 89 23 141 69 42
37 85 26 97 -24 4 -17 29 -53 55 -82 54 -57 58 -67 45 -110 -10 -33 55 -65
121 -58 142 15 160 21 218 71 30 26 56 53 57 58 0 6 3 25 4 41 2 17 7 53 10
82 5 48 4 54 -25 85 -17 18 -31 38 -31 43 -1 15 -41 60 -72 79 -19 12 -37 15
-61 11 -30 -6 -37 -3 -47 15 -11 20 -17 22 -63 17 -39 -5 -55 -3 -69 10 -21
19 -23 44 -6 61 7 7 14 51 16 101 4 74 1 93 -12 106 -9 9 -16 22 -16 28 0 7
-12 26 -27 42 -16 16 -42 58 -60 92 l-32 62 26 21 c14 11 31 20 38 20 7 0 24
11 39 25 14 13 42 32 61 41 20 9 40 25 46 35 5 11 18 19 28 19 10 0 24 7 31
15 17 20 71 19 108 -2 29 -16 32 -16 66 2 43 23 50 62 14 67 -17 2 -24 11 -26
30 -3 26 -1 27 26 22 46 -9 82 19 82 65 0 20 4 41 10 47 6 6 -2 23 -24 47 -26
30 -40 37 -69 37 -21 0 -37 5 -37 10 0 21 -32 8 -68 -27 -20 -21 -58 -54 -82
-72 -25 -19 -66 -54 -92 -78 -26 -24 -57 -43 -70 -43 -13 0 -32 -7 -42 -15
-11 -8 -27 -15 -37 -15 -9 0 -22 -7 -29 -15 -7 -8 -22 -15 -35 -15 -21 0 -71
-20 -105 -41 -8 -5 -26 -14 -40 -20 -14 -5 -40 -24 -57 -42 -37 -35 -45 -88
-18 -123 8 -10 15 -29 15 -40 0 -12 7 -24 15 -28 16 -6 20 -41 6 -51 -5 -3
-12 -1 -16 5 -3 5 -23 10 -44 10 -20 0 -46 7 -57 15 -10 8 -31 15 -45 15 -15
0 -32 7 -39 15 -7 8 -19 15 -28 15 -8 0 -23 6 -31 14 -17 15 -203 27 -216 14
-8 -8 -37 2 -47 16 -4 6 -8 23 -8 39 0 15 -4 27 -8 27 -4 0 -25 23 -45 50 -21
28 -44 50 -51 50 -8 0 -16 6 -19 14 -8 21 -64 31 -83 15 -12 -10 -14 -23 -10
-51 6 -33 4 -38 -14 -38 -11 0 -20 3 -20 8 0 7 -90 52 -105 52 -3 0 -4 -13 0
-29 5 -22 2 -30 -12 -35 -10 -4 -19 -3 -21 3 -8 23 -83 91 -101 91 -17 0 -20
-8 -23 -47 -3 -42 -6 -47 -33 -56 -16 -5 -43 -15 -60 -22 -23 -10 -50 -11
-113 -5 -83 9 -125 2 -190 -32 -17 -9 -25 -9 -34 0 -7 7 -26 12 -43 12 -21 0
-40 9 -55 25 l-24 26 -24 -26 c-26 -29 -45 -28 -50 1 -5 24 -42 65 -53 58 -5
-3 -9 -16 -9 -29 0 -15 -7 -26 -20 -30 -33 -11 -103 5 -135 31 -25 20 -30 31
-30 67 0 47 30 119 57 136 13 8 27 5 60 -10 58 -28 88 -45 101 -58 6 -6 28
-11 49 -11 41 0 48 13 27 52 -29 55 97 99 216 76 33 -6 67 -18 76 -25 8 -7 23
-13 31 -13 9 0 21 -7 28 -15 7 -8 18 -15 26 -15 7 0 28 -14 46 -30 30 -28 75
-39 91 -23 4 3 -2 21 -13 38 -20 32 -20 33 -1 56 18 22 26 24 95 22 64 -1 84
-6 124 -30 26 -16 70 -39 97 -52 28 -13 58 -30 67 -38 15 -13 18 -12 34 14 27
44 56 73 72 73 8 0 29 7 47 16 58 27 228 12 295 -27 8 -5 22 -12 30 -15 8 -3
29 -11 45 -19 39 -18 98 -25 115 -15 11 7 11 14 -2 41 -22 45 -11 68 53 103
68 38 189 55 303 43 86 -9 176 4 197 29 6 8 10 16 8 18 -2 1 -21 13 -42 26
-60 36 -74 98 -35 153 34 48 56 67 77 67 10 0 21 7 25 15 3 8 18 15 34 15 15
0 37 7 48 15 10 8 29 15 42 15 12 0 25 7 28 15 4 8 17 15 29 15 13 0 26 4 30
9 3 6 26 20 50 32 72 36 73 79 2 79 -39 0 -44 3 -77 51 -32 47 -35 57 -33 116
1 43 7 71 17 82 9 10 16 22 16 28 0 12 67 144 81 157 5 6 9 22 9 36 0 14 7 35
15 46 8 10 15 34 15 52 0 28 -3 32 -28 32 -16 0 -32 -8 -39 -19 -8 -13 -19
-17 -40 -14 -33 6 -103 70 -103 94 0 9 -7 22 -15 29 -8 7 -15 25 -15 40 0 15
-7 33 -15 40 -8 7 -15 23 -15 35 0 26 -36 111 -50 120 -6 3 -10 17 -10 31 0
28 -21 65 -62 108 -15 17 -28 33 -28 38 0 17 -19 7 -54 -28 -36 -36 -38 -37
-94 -30 -31 4 -67 13 -79 21 -12 8 -30 15 -40 15 -10 0 -41 20 -70 45 -28 25
-54 45 -58 45 -4 0 -24 14 -45 30 -21 17 -49 30 -62 30 -25 0 -68 37 -68 57 0
6 -14 22 -31 35 -77 58 -109 110 -109 175 0 49 25 93 54 93 24 0 40 28 27 47
-16 24 -97 73 -121 73 -15 0 -33 7 -40 15 -7 8 -27 15 -44 15 -17 0 -40 7 -50
15 -11 8 -32 15 -46 15 -55 0 -83 69 -56 135 9 21 15 39 14 39 -22 11 -80 26
-100 26 -14 0 -80 -11 -148 -25 -68 -14 -129 -25 -137 -25 -23 0 -7 49 22 72
46 36 86 80 82 92 -6 18 -56 19 -82 2 -13 -9 -42 -18 -64 -22 -42 -7 -47 -2
-41 35 1 8 -4 25 -11 37 -12 23 3 62 65 169 38 68 159 185 191 185 21 0 25 5
25 29 0 35 -9 37 -111 33 -69 -3 -79 -7 -110 -34 -26 -24 -36 -28 -48 -19 -55
39 -113 33 -166 -19 l-32 -31 -23 34 c-24 34 -67 63 -105 69 -16 3 -22 15 -30
65 -12 74 -57 142 -93 143 -13 0 -25 -7 -28 -17z m68 -127 c1 -23 2 -61 3 -86
0 -42 2 -45 25 -43 14 1 37 5 52 8 21 6 33 1 55 -21 l27 -27 -29 -11 c-46 -17
-58 -28 -81 -72 -20 -37 -20 -41 -4 -37 11 3 19 -2 22 -15 6 -22 79 -62 113
-62 45 0 87 23 111 61 30 48 30 54 -2 96 -14 18 -23 37 -20 42 12 18 73 21
110 6 37 -16 39 -15 71 9 32 24 85 36 85 18 0 -11 -66 -72 -79 -72 -6 0 -11
-5 -11 -11 0 -5 -5 -7 -11 -4 -11 7 -49 -22 -49 -37 0 -4 7 -8 15 -8 22 0 18
-24 -10 -54 -14 -15 -25 -36 -25 -47 0 -10 -4 -27 -9 -37 -5 -9 -12 -24 -15
-33 -4 -15 -19 -16 -118 -12 -62 3 -121 9 -131 15 -9 5 -128 9 -263 10 -233 2
-248 3 -265 22 -11 11 -19 26 -19 34 0 18 -69 162 -78 162 -4 0 -18 17 -32 38
-14 20 -38 49 -53 63 -41 38 -18 46 54 19 41 -16 59 -28 59 -40 0 -32 23 -40
93 -33 79 7 91 -10 31 -42 -33 -18 -35 -21 -29 -54 13 -72 89 -115 163 -93 46
14 85 52 85 85 0 28 -29 65 -60 78 -13 5 -23 15 -23 23 0 24 38 38 93 34 l52
-3 3 54 c2 30 10 60 18 68 8 8 14 21 14 29 0 7 8 23 17 34 17 19 19 19 30 3 7
-9 14 -35 15 -57z m-1690 -156 c12 -11 18 -20 12 -20 -11 1 -44 25 -44 34 0
11 10 7 32 -14z m-65 -26 c-9 -9 -28 6 -21 18 4 6 10 6 17 -1 6 -6 8 -13 4
-17z m174 -31 c19 -27 41 -61 50 -78 16 -30 74 -67 124 -79 15 -4 42 -18 60
-31 17 -14 46 -28 64 -31 45 -9 74 -50 67 -94 -3 -19 -10 -36 -16 -38 -5 -2
-10 -10 -10 -18 0 -8 -7 -14 -15 -14 -8 0 -15 7 -15 16 0 21 -34 14 -38 -9 -2
-10 3 -17 12 -17 20 0 20 -10 -2 -36 -27 -34 -52 -43 -79 -31 -19 8 -23 16
-18 35 5 20 3 23 -12 18 -9 -4 -37 -10 -60 -13 -48 -6 -64 -20 -36 -29 25 -8
52 -19 95 -37 51 -22 60 -58 25 -91 -15 -14 -34 -26 -43 -28 -10 -2 -19 -9
-22 -15 -2 -9 10 -13 42 -13 25 0 46 4 46 9 0 5 9 12 20 16 15 5 31 -5 65 -39
36 -37 52 -46 79 -46 44 0 108 -37 104 -59 -3 -11 -12 -15 -29 -13 -21 2 -25
-2 -25 -20 1 -19 -4 -23 -28 -23 -16 -1 -31 -6 -34 -13 -2 -7 -15 -12 -28 -12
-28 0 -79 -45 -69 -60 9 -14 38 -12 71 5 16 8 37 15 46 15 9 0 29 6 45 14 53
27 78 35 108 38 28 3 30 0 33 -32 2 -19 9 -42 15 -50 17 -22 39 -62 35 -64 -2
-1 -23 -8 -47 -15 -25 -7 -72 -31 -105 -52 -46 -30 -70 -39 -103 -39 -40 0
-43 2 -38 23 3 13 -3 31 -15 45 -22 26 -40 22 -40 -10 0 -15 -4 -18 -17 -13
-10 3 -31 9 -46 12 -15 3 -45 14 -65 24 -20 11 -46 19 -57 19 -12 0 -25 3 -29
8 -4 4 -24 7 -44 7 -33 0 -37 3 -42 30 -6 34 -27 42 -55 21 -18 -13 -19 -15
-3 -33 9 -10 20 -30 23 -46 4 -15 11 -30 16 -33 5 -3 9 -22 9 -43 0 -22 6 -44
15 -51 10 -8 15 -30 15 -61 0 -37 -4 -49 -15 -49 -8 0 -15 -7 -15 -15 0 -9 -9
-15 -25 -15 -14 0 -28 -7 -31 -15 -4 -9 -20 -15 -43 -15 -20 0 -45 -7 -55 -15
-11 -8 -30 -15 -42 -15 -13 0 -25 -4 -28 -9 -6 -9 -52 -32 -119 -59 -15 -7
-31 -20 -35 -30 -12 -31 -78 -83 -96 -76 -9 3 -22 1 -30 -5 -11 -9 -15 -7 -19
9 -3 11 -13 20 -22 20 -14 0 -16 6 -11 26 9 33 43 63 73 64 30 0 105 34 125
56 26 29 44 42 92 68 24 13 65 38 90 56 38 27 46 39 46 64 0 38 -51 139 -90
181 -33 35 -56 103 -37 111 9 3 11 34 9 107 l-4 102 -49 50 c-27 28 -49 55
-49 60 0 23 -42 36 -96 29 -60 -7 -65 -1 -43 61 10 27 9 36 -13 71 l-25 39 59
53 c43 38 67 52 88 52 17 0 30 -4 30 -9 0 -5 31 -40 68 -78 54 -54 70 -77 75
-107 3 -21 14 -47 23 -57 25 -27 78 -24 118 6 18 14 38 25 43 25 6 0 16 6 22
14 7 8 31 18 54 22 45 7 186 91 186 111 1 7 -14 19 -32 28 -18 8 -46 28 -63
43 -16 15 -42 33 -57 39 -15 7 -27 18 -27 24 0 8 -4 8 -15 -1 -14 -12 -83 -8
-121 7 -23 8 -16 23 10 23 14 0 28 5 31 10 3 6 2 10 -3 10 -6 0 -24 12 -40 26
l-30 27 51 48 c29 27 52 48 53 49 0 0 16 -21 35 -47z m1360 -30 c20 -56 -82
-91 -115 -40 -19 28 -11 62 17 74 30 14 88 -7 98 -34z m477 -16 c3 -33 0 -38
-25 -48 -51 -19 -123 3 -123 39 0 35 31 53 89 50 l56 -3 3 -38z m-241 -208 c6
-6 76 -13 167 -16 135 -5 158 -8 173 -25 26 -29 3 -43 -67 -40 -57 3 -59 3
-62 -24 -2 -22 -11 -30 -39 -38 -42 -13 -109 -68 -109 -90 0 -8 -13 -38 -30
-66 -16 -28 -30 -55 -30 -60 0 -19 21 -21 49 -4 25 15 35 32 71 122 10 23 18
26 44 16 19 -7 22 -74 4 -92 -6 -6 -8 -15 -4 -19 11 -11 39 10 60 46 16 27 17
36 6 55 -6 13 -10 34 -8 47 4 33 40 36 93 10 38 -19 43 -26 48 -63 6 -45 -3
-64 -38 -79 -11 -5 -27 -13 -35 -18 -38 -24 -86 -41 -116 -41 -18 0 -36 -5
-39 -11 -4 -5 -18 -14 -31 -19 -13 -5 -24 -16 -24 -25 0 -24 76 -20 97 5 10
11 25 20 33 20 9 0 25 7 36 15 26 20 48 19 68 -4 23 -25 17 -65 -9 -69 -37 -7
-35 -18 8 -63 37 -39 47 -44 67 -37 19 7 36 0 96 -41 40 -27 76 -51 81 -52 22
-10 97 -110 128 -170 29 -58 54 -159 55 -224 1 -60 -35 -184 -59 -205 -3 -3
-15 -22 -25 -43 -11 -20 -43 -58 -72 -85 -70 -63 -81 -72 -94 -72 -6 0 -18 -7
-26 -15 -9 -8 -24 -15 -33 -15 -10 0 -24 -7 -31 -15 -7 -8 -28 -17 -49 -21
-20 -3 -49 -10 -66 -15 -76 -24 -306 -34 -938 -43 -225 -3 -333 -9 -342 -16
-8 -7 -18 -9 -23 -6 -12 7 -231 -11 -267 -23 -16 -5 -63 -17 -103 -26 -126
-29 -296 -127 -364 -210 -40 -49 -78 -122 -78 -149 0 -13 -5 -37 -11 -53 -13
-33 -12 -124 2 -137 5 -6 9 -25 9 -43 0 -18 9 -50 20 -70 11 -21 20 -43 20
-50 0 -7 4 -13 9 -13 5 0 12 -8 15 -17 8 -23 92 -113 106 -113 5 0 10 -7 10
-15 0 -19 -13 -19 -50 0 -69 36 -139 140 -175 262 -17 58 -21 238 -5 248 6 3
10 13 10 22 0 31 53 128 94 171 39 41 125 103 170 123 12 5 28 13 36 19 15 9
55 26 120 50 19 7 55 15 80 19 25 4 55 13 67 19 13 7 58 13 100 14 44 0 87 6
99 13 15 10 108 14 359 16 237 3 343 7 354 16 37 27 14 28 -490 19 -233 -4
-371 -19 -444 -47 -28 -10 -65 -19 -82 -19 -18 0 -35 -4 -38 -10 -3 -5 -17
-10 -30 -10 -53 0 -270 -121 -319 -178 -6 -7 -19 -21 -29 -30 -31 -29 -77
-102 -77 -123 0 -11 -6 -32 -14 -47 -22 -42 -17 -279 7 -315 9 -14 17 -35 17
-46 0 -12 14 -43 30 -69 16 -27 30 -53 30 -58 1 -5 14 -20 30 -34 17 -13 30
-32 30 -42 0 -12 13 -21 43 -29 23 -7 61 -27 84 -46 23 -18 49 -33 59 -33 32
0 138 -22 169 -35 22 -9 60 -10 140 -5 137 10 220 28 252 58 13 12 30 22 36
22 21 0 187 174 187 196 0 4 10 28 22 53 37 75 35 271 -1 203 -16 -31 -31 -27
-31 7 0 35 15 48 35 31 12 -10 15 -9 15 9 0 19 -5 22 -31 19 -43 -4 -63 -34
-46 -68 7 -14 25 -31 40 -38 23 -11 27 -19 27 -58 0 -32 -6 -49 -20 -61 -11
-10 -20 -26 -20 -36 0 -17 -35 -56 -52 -57 -4 0 -8 10 -10 23 -4 30 -19 26
-40 -12 -31 -55 -123 -126 -199 -154 -68 -25 -189 -38 -251 -27 -29 5 -71 12
-92 14 -21 3 -44 10 -49 15 -6 6 -19 11 -30 11 -19 0 -100 40 -105 53 -2 4
-24 32 -48 62 -24 29 -44 58 -44 64 0 5 -6 14 -13 18 -45 27 -77 214 -44 251
10 11 13 22 7 32 -5 9 -3 21 5 34 8 11 12 30 9 43 -5 19 6 36 64 93 39 39 78
70 86 70 8 0 19 7 23 15 8 14 70 52 123 76 14 6 37 11 52 11 15 0 30 4 33 9 4
5 19 9 35 9 16 0 31 4 34 9 3 4 37 11 76 15 38 4 72 12 76 17 3 6 29 10 57 10
29 1 96 3 149 6 54 2 105 0 115 -5 13 -8 24 -5 42 9 25 20 57 24 81 10 8 -6
19 -7 25 -3 16 11 89 10 103 -1 8 -6 16 -6 25 1 14 12 105 11 125 -1 7 -5 20
-6 30 -3 19 6 293 19 365 17 26 0 53 -1 60 -1 6 0 53 4 102 9 50 5 122 12 160
16 39 3 77 12 85 19 8 7 30 18 49 25 111 37 305 184 328 250 7 18 19 41 25 49
14 17 28 126 28 212 -1 75 -18 159 -41 196 -10 17 -19 38 -19 46 0 8 -13 27
-30 43 -16 16 -30 35 -30 43 0 7 -18 31 -40 53 -22 22 -40 43 -40 48 0 4 -21
18 -47 30 -27 12 -60 29 -75 37 -14 8 -43 14 -63 14 -34 0 -37 2 -30 23 17 56
16 64 -9 88 -33 31 -33 52 0 78 38 30 99 28 119 -2 11 -18 31 -26 77 -35 35
-6 64 -16 66 -22 2 -5 9 -10 16 -10 7 0 31 -17 53 -37 22 -21 61 -55 87 -76
26 -22 55 -58 66 -83 11 -24 24 -44 28 -44 11 0 47 -77 66 -140 13 -44 29
-188 26 -235 -3 -52 -20 -147 -30 -175 -27 -71 -54 -126 -76 -157 -13 -17 -24
-36 -24 -41 0 -13 -99 -100 -173 -151 -62 -44 -155 -91 -178 -91 -8 0 -20 -5
-26 -11 -13 -13 -109 -35 -193 -43 -36 -4 -81 -11 -100 -16 -19 -5 -244 -11
-500 -13 -292 -2 -473 -8 -485 -14 -11 -6 -83 -11 -160 -12 -77 -1 -171 -8
-210 -16 -38 -8 -97 -19 -131 -24 -110 -17 -137 -28 -192 -80 -28 -28 -52 -55
-52 -60 0 -5 -13 -21 -30 -34 -19 -17 -30 -35 -30 -52 0 -14 -4 -34 -9 -43
-12 -23 6 -148 25 -178 9 -13 13 -28 10 -33 -4 -6 6 -17 21 -25 15 -7 40 -25
54 -38 47 -44 131 -89 178 -97 25 -5 51 -10 56 -11 32 -10 196 49 242 86 23
19 53 34 67 34 25 0 26 1 19 60 -4 38 -2 64 5 73 6 7 14 39 18 70 7 61 14 71
56 81 20 4 30 2 37 -11 8 -16 15 -13 59 25 33 27 62 43 83 44 30 3 33 0 40
-29 3 -18 11 -39 17 -46 6 -7 12 -56 14 -109 2 -98 -3 -119 -53 -223 -76 -156
-225 -316 -281 -302 -10 3 -18 2 -18 -3 0 -4 -8 -10 -17 -13 -10 -4 -29 -15
-43 -26 -52 -42 -353 -66 -443 -37 -23 8 -61 17 -84 21 -23 4 -47 13 -54 21
-6 8 -20 14 -30 14 -10 0 -20 4 -23 9 -3 5 -17 12 -31 15 -76 19 -211 131
-247 205 -12 25 -35 65 -51 89 -46 68 -59 203 -36 376 6 43 14 86 18 95 24 46
41 94 41 111 0 11 9 24 20 30 11 6 20 15 20 21 0 16 73 109 86 109 7 0 38 22
69 48 56 48 76 60 175 104 106 48 232 87 304 94 27 3 57 9 67 15 20 10 645 41
854 41 107 1 373 -12 388 -17 9 -4 24 -2 32 5 7 6 62 15 120 19 98 7 108 10
131 34 14 15 30 27 36 27 16 0 98 69 98 83 0 6 8 20 18 31 10 12 24 39 30 61
15 48 12 175 -4 175 -6 0 -33 27 -60 61 -32 40 -58 62 -76 66 -15 3 -33 12
-39 19 -6 8 -17 14 -25 14 -18 0 -36 37 -29 59 8 26 79 34 132 16 86 -30 217
-152 229 -214 4 -17 13 -36 20 -42 8 -6 14 -21 14 -33 0 -12 5 -27 11 -33 21
-21 -7 -199 -35 -215 -8 -5 -13 -14 -11 -21 3 -6 -18 -38 -45 -70 -28 -32 -50
-63 -50 -68 0 -5 -11 -9 -25 -9 -14 0 -28 -7 -31 -15 -5 -11 -22 -15 -63 -15
-31 -1 -67 -7 -81 -15 -14 -8 -35 -14 -47 -15 -12 0 -24 -6 -27 -12 -3 -7 -3
-3 0 10 7 29 -4 28 -40 -3 -24 -21 -38 -24 -105 -24 -42 0 -83 -1 -91 -2 -8 0
-62 0 -119 1 -100 2 -131 -6 -116 -30 4 -7 27 -9 63 -6 32 3 138 8 237 11 99
4 184 10 190 15 5 4 36 11 68 15 31 4 60 11 63 16 3 5 22 9 42 9 37 1 82 28
82 49 0 6 6 11 13 11 32 0 147 163 147 208 0 10 6 24 13 31 7 7 12 42 12 94 0
86 -17 147 -61 218 -31 50 -125 149 -142 149 -7 0 -29 12 -47 26 -19 14 -39
23 -44 19 -19 -11 -53 15 -48 36 4 14 0 19 -14 19 -10 0 -37 7 -59 16 -42 17
-63 13 -42 -8 7 -7 12 -22 12 -34 0 -49 -42 -39 -70 16 -14 27 -31 42 -60 54
-45 18 -105 22 -95 6 4 -6 10 -8 15 -5 4 3 15 -6 24 -20 9 -14 25 -25 36 -25
44 0 130 -134 103 -161 -11 -11 -106 -15 -121 -5 -7 4 -12 16 -12 27 0 39 -28
89 -49 89 -17 0 -21 -6 -21 -30 0 -17 7 -33 18 -39 9 -5 24 -29 32 -52 14 -38
14 -49 1 -91 -8 -26 -20 -48 -26 -48 -19 0 -31 43 -25 87 7 48 -12 107 -32
101 -17 -6 -22 -56 -8 -73 9 -10 7 -21 -5 -45 -17 -32 -35 -32 -35 1 0 10 -7
19 -15 19 -8 0 -15 -4 -15 -9 0 -5 -16 -19 -36 -30 -33 -20 -50 -22 -188 -20
-83 1 -159 -2 -170 -6 -11 -5 -21 -3 -26 5 -9 15 -30 5 -30 -16 0 -20 -29 -18
-37 4 -10 26 -23 32 -79 32 -27 0 -55 5 -60 10 -20 20 -128 40 -219 40 -76 0
-95 3 -95 14 0 8 4 18 10 21 5 3 81 6 167 7 105 1 168 5 188 14 17 7 69 18
117 25 98 14 162 3 210 -36 15 -13 47 -26 72 -29 41 -7 48 -5 71 20 33 35 41
83 21 122 -19 38 -71 78 -111 88 -16 4 -35 11 -42 16 -13 10 -233 39 -244 32
-4 -2 -33 1 -65 6 -129 22 -116 24 -108 -15 8 -44 -2 -85 -21 -85 -8 0 -17 11
-21 24 -4 19 -14 26 -37 28 -24 2 -32 8 -32 23 0 17 6 20 36 17 30 -3 37 1 47
23 7 14 12 29 12 34 0 7 -55 6 -160 -4 -144 -13 -160 -2 -160 110 0 70 2 75
29 94 30 22 85 28 96 11 3 -5 15 -10 26 -10 25 0 100 -41 148 -81 20 -16 40
-29 46 -29 6 0 16 -5 23 -12 6 -6 22 -12 34 -13 13 -1 38 -5 56 -9 21 -5 32
-4 32 3 0 6 -9 11 -20 11 -10 0 -23 6 -27 13 -9 13 -18 19 -100 68 -29 17 -53
37 -53 45 0 7 -9 18 -20 24 -31 17 -24 30 18 30 43 0 82 -21 142 -79 24 -22
51 -41 60 -41 9 0 26 -10 39 -21 20 -19 26 -20 47 -9 13 8 24 17 24 21 0 10
-75 69 -88 69 -17 0 -72 51 -72 66 0 19 40 27 73 15 16 -6 45 -25 67 -42 21
-17 44 -28 50 -24 6 4 24 -4 38 -18 42 -38 67 -47 134 -49 68 -2 128 20 128
47 0 8 6 15 14 15 7 0 19 7 26 15 7 8 21 15 31 15 28 0 59 31 59 58 0 22 -3
24 -27 17 -68 -16 -90 -16 -140 4 -49 19 -102 25 -170 18 -18 -2 -44 -4 -58
-5 -34 -3 -31 -18 5 -31 18 -6 30 -17 31 -28 0 -15 2 -14 11 5 18 36 37 27 40
-20 3 -43 3 -43 46 -46 43 -3 58 11 22 21 -37 10 -18 67 21 67 21 0 38 -22 21
-28 -14 -4 -16 -32 -3 -32 5 0 14 7 21 15 7 8 21 15 31 15 26 0 24 -32 -2 -50
-12 -8 -27 -21 -35 -27 -7 -8 -39 -13 -75 -13 -51 0 -68 5 -95 25 -18 14 -36
25 -41 25 -9 0 -33 48 -33 66 0 7 -8 14 -17 16 -14 2 -11 10 16 41 31 34 37
37 87 37 39 0 56 4 60 15 9 22 56 18 126 -10 67 -27 127 -32 158 -13 44 28
105 -29 65 -62 -8 -7 -15 -20 -15 -29 0 -10 -11 -32 -25 -51 -29 -39 -31 -50
-11 -50 27 0 64 45 68 79 4 41 61 92 106 95 35 3 54 14 46 27 -3 6 -30 7 -65
3 -61 -7 -103 6 -151 44 -17 14 -46 13 -139 -3 -23 -4 -39 -3 -43 4 -11 16
-113 13 -147 -5 -33 -17 -110 -16 -116 2 -2 7 3 19 12 28 14 14 47 16 234 16
142 0 221 -4 228 -11z m-2198 -139 c14 -20 20 -38 16 -51 -7 -22 -25 -21 -35
2 -4 8 -12 24 -19 37 -11 22 -8 42 8 42 4 0 17 -14 30 -30z m2579 11 c2 -6 -7
-11 -21 -11 -14 0 -31 -2 -39 -5 -7 -3 -20 0 -28 5 -13 9 -13 11 0 20 19 13
83 6 88 -9z m-1458 -49 c-1 -31 -42 -67 -66 -58 -17 7 -6 35 29 73 24 27 37
21 37 -15z m1532 -74 c6 -17 208 -25 217 -9 4 6 28 14 54 17 45 6 47 6 47 -17
-1 -30 -22 -59 -43 -59 -9 0 -19 -4 -22 -10 -4 -6 7 -10 26 -10 23 0 46 -13
90 -51 46 -40 68 -52 108 -58 28 -4 56 -13 63 -18 7 -6 38 -16 68 -24 30 -7
59 -16 63 -19 5 -4 -5 -22 -22 -41 -17 -19 -31 -45 -31 -59 0 -14 -4 -31 -9
-39 -11 -17 7 -68 37 -100 12 -13 31 -38 42 -55 10 -17 33 -39 50 -49 58 -34
60 -97 4 -97 -24 0 -83 -54 -84 -76 0 -6 -7 -17 -15 -24 -9 -8 -15 -30 -15
-60 0 -30 6 -52 15 -60 13 -11 15 -6 15 39 0 37 4 53 15 57 8 4 15 13 15 21 0
17 47 62 79 74 26 10 53 -4 45 -25 -2 -6 -31 -25 -64 -41 -33 -17 -60 -35 -60
-42 0 -22 22 -25 58 -8 21 10 44 21 52 25 25 12 62 72 50 84 -5 5 -10 14 -10
18 0 19 37 5 103 -39 77 -51 107 -77 107 -93 0 -5 11 -10 24 -10 14 0 28 -4
31 -10 3 -5 18 -10 33 -10 15 0 37 -6 48 -14 40 -28 89 -30 133 -4 47 27 74
18 79 -25 2 -14 10 -31 18 -37 8 -7 14 -21 14 -31 0 -20 37 -96 51 -105 5 -3
9 -14 9 -25 0 -40 70 -166 115 -208 24 -22 51 -41 59 -41 7 0 16 -7 20 -15 3
-8 15 -15 27 -15 21 0 21 -1 6 -18 -10 -10 -17 -26 -17 -36 0 -9 -7 -19 -15
-22 -8 -4 -15 -12 -15 -19 0 -7 -13 -40 -30 -73 -16 -34 -30 -72 -30 -86 0
-14 -4 -28 -10 -31 -13 -8 -13 -102 -1 -110 5 -3 12 -18 16 -35 3 -16 24 -48
45 -71 21 -24 37 -46 34 -51 -3 -4 -25 -13 -49 -19 -25 -6 -50 -17 -56 -25 -6
-8 -22 -14 -36 -14 -22 0 -84 -35 -91 -52 -2 -5 -10 -8 -18 -8 -8 0 -41 -27
-74 -59 -68 -67 -75 -97 -39 -165 11 -21 18 -41 15 -44 -3 -3 -65 -4 -138 -3
-106 2 -137 -1 -153 -13 -11 -9 -30 -16 -41 -16 -12 0 -27 -7 -34 -15 -7 -8
-23 -15 -35 -15 -22 0 -71 -46 -106 -99 l-15 -25 -47 23 c-26 13 -50 29 -55
36 -5 10 -40 14 -127 15 -135 2 -199 -5 -216 -26 -6 -8 -17 -14 -23 -14 -7 0
-25 -13 -41 -30 -16 -16 -35 -30 -43 -30 -8 0 -37 16 -63 35 -27 19 -53 35
-59 35 -18 0 -120 45 -120 53 0 5 33 6 73 3 96 -7 137 -6 269 9 27 3 49 1 53
-5 4 -6 12 -7 18 -3 18 11 98 25 152 27 28 1 56 5 63 9 7 5 43 7 80 6 51 -2
77 2 110 18 23 12 61 24 84 28 23 4 80 27 126 51 46 24 88 44 94 44 16 0 109
73 188 148 30 28 63 55 72 58 10 3 20 20 24 40 3 19 13 42 22 51 8 8 18 31 21
49 8 44 24 45 32 2 5 -24 7 -13 8 37 1 39 6 102 12 140 21 148 15 290 -18 363
-12 28 -20 52 -16 52 3 0 -2 9 -13 21 -10 11 -26 42 -35 67 -11 34 -21 47 -34
47 -11 0 -22 9 -25 21 -9 36 -170 171 -190 159 -5 -3 -20 1 -32 9 -12 9 -39
16 -59 16 -20 0 -42 7 -49 15 -7 8 -21 15 -31 15 -11 0 -27 4 -37 9 -26 14
-91 29 -151 36 -40 5 -59 2 -79 -11 -24 -16 -26 -16 -38 1 -12 15 -15 14 -42
-16 -29 -33 -33 -62 -16 -117 8 -25 23 -1 22 33 -1 19 1 37 3 40 3 2 41 7 86
11 61 5 94 3 130 -9 26 -8 67 -18 90 -22 23 -4 47 -13 54 -21 6 -8 18 -14 26
-14 17 0 113 -47 168 -82 50 -33 121 -106 130 -135 3 -13 11 -23 16 -23 5 0 9
-7 9 -14 0 -8 14 -36 31 -61 48 -71 61 -203 38 -379 -6 -43 -14 -86 -18 -95
-24 -47 -41 -94 -41 -112 0 -12 -8 -23 -20 -26 -11 -3 -20 -12 -20 -19 0 -20
-72 -114 -86 -114 -7 0 -38 -22 -69 -48 -56 -48 -76 -60 -175 -104 -107 -49
-234 -88 -310 -97 -30 -4 -60 -10 -67 -14 -13 -8 -723 -42 -843 -40 -189 4
-379 12 -393 18 -9 4 -24 2 -31 -4 -8 -7 -62 -15 -120 -18 -100 -6 -107 -7
-131 -34 -14 -16 -33 -29 -43 -29 -31 0 -114 -102 -140 -170 -18 -50 -6 -156
22 -192 52 -69 88 -101 144 -128 45 -22 61 -35 66 -56 9 -35 0 -42 -54 -45
-64 -4 -109 9 -154 45 -57 44 -146 139 -146 154 0 8 -6 28 -13 45 -29 67 -35
95 -24 106 7 7 7 18 -1 36 -18 39 -15 61 15 108 27 43 157 177 171 177 5 0 21
14 38 31 16 17 40 37 54 44 39 20 100 28 115 15 14 -12 52 1 66 23 4 5 44 11
90 13 46 2 89 4 94 5 6 0 57 0 114 -1 101 -2 120 4 121 33 0 4 -37 5 -82 3
-46 -3 -153 -8 -238 -12 -85 -3 -159 -10 -165 -15 -12 -12 -82 -12 -90 0 -7
12 21 40 48 46 84 20 352 32 891 40 245 3 373 8 382 16 7 6 17 9 21 6 14 -9
256 12 267 23 5 5 24 10 41 10 106 1 347 128 427 225 40 49 78 122 78 149 0
13 5 37 11 53 13 33 12 124 -2 138 -5 5 -9 25 -9 45 0 19 -6 44 -14 55 -7 11
-17 31 -21 45 -6 21 -30 54 -105 143 -8 9 -20 17 -27 17 -7 0 -13 7 -13 15 0
10 -10 15 -30 15 -20 0 -30 5 -30 15 0 9 -9 15 -25 15 -14 0 -28 7 -31 15 -4
10 -21 15 -54 15 -55 0 -82 8 -74 21 9 15 114 11 120 -5 3 -8 21 -17 39 -20
19 -4 47 -17 62 -30 15 -12 44 -29 63 -36 71 -29 146 -138 185 -267 21 -70 20
-221 -1 -270 -45 -105 -60 -131 -98 -171 -39 -41 -124 -103 -170 -123 -12 -5
-28 -13 -36 -19 -15 -9 -57 -27 -120 -49 -19 -7 -56 -17 -82 -21 -26 -5 -56
-13 -67 -19 -11 -6 -55 -12 -98 -12 -43 -1 -87 -7 -98 -13 -13 -7 -137 -13
-360 -16 -187 -3 -346 -9 -353 -14 -32 -20 12 -28 154 -27 338 3 584 10 595
17 7 4 26 8 43 10 87 7 128 15 155 29 17 8 46 15 65 15 19 0 38 5 41 10 3 6
15 10 27 10 55 0 272 120 322 178 6 7 19 21 30 30 30 28 70 94 85 142 8 28 14
96 15 180 1 114 -2 140 -16 163 -10 14 -18 37 -18 50 0 14 -7 30 -15 37 -8 7
-15 19 -15 27 0 15 -3 19 -54 79 -20 23 -36 49 -36 57 0 11 -15 20 -42 28 -24
6 -61 26 -83 43 -28 23 -55 35 -91 40 -28 3 -75 12 -105 20 -30 7 -77 16 -106
20 l-52 7 -17 -60 c-19 -65 -22 -67 -114 -93 -89 -25 -140 -97 -140 -197 0
-50 3 -62 20 -71 16 -8 18 -15 10 -29 -12 -23 -81 -22 -108 2 -21 19 -50 23
-82 12 -24 -7 -24 -8 -5 -16 11 -4 31 -8 44 -8 14 -1 36 -14 52 -32 22 -25 31
-29 42 -21 16 14 27 6 27 -20 0 -13 -8 -18 -30 -18 -16 0 -30 5 -30 10 0 6 -7
10 -16 10 -9 0 -18 8 -20 18 -4 13 -17 17 -55 19 -30 0 -57 7 -68 17 -18 17
-43 21 -54 9 -4 -3 3 -11 15 -17 28 -14 34 -34 13 -43 -12 -4 -24 2 -36 18
-15 20 -20 22 -31 10 -10 -11 -10 -14 0 -18 20 -8 14 -23 -24 -61 -31 -31 -38
-34 -56 -23 -17 11 -19 10 -16 -6 2 -10 -3 -25 -11 -35 -16 -19 -37 -11 -83
35 -24 24 -38 29 -87 30 -55 2 -131 -24 -131 -45 0 -5 -6 -8 -13 -8 -8 0 -22
-9 -32 -20 -10 -11 -24 -20 -31 -20 -7 0 -14 -3 -16 -7 -4 -9 -66 -43 -78 -43
-4 0 -10 8 -14 18 -6 19 -25 50 -43 69 -6 7 -13 18 -15 24 -2 7 -29 12 -61 14
-31 1 -60 4 -63 7 -8 8 -167 -74 -195 -101 -29 -27 -37 -26 -49 5 -6 14 -24
39 -40 56 -30 29 -33 30 -95 23 -36 -3 -67 -11 -70 -16 -3 -4 -23 -13 -43 -18
-20 -6 -65 -29 -99 -51 -83 -53 -91 -52 -95 11 l-3 52 -57 20 -56 20 -64 -30
c-35 -17 -76 -45 -91 -62 -33 -36 -52 -39 -67 -12 -28 53 -120 76 -185 46
-102 -49 -128 -166 -47 -215 30 -18 31 -21 25 -68 -5 -45 -3 -51 23 -76 55
-50 129 -52 183 -3 30 26 71 37 71 18 0 -17 33 -21 56 -6 36 23 74 65 74 80 0
8 5 15 10 15 16 0 12 -26 -11 -70 -22 -43 -66 -80 -94 -80 -9 0 -28 -9 -42
-20 -27 -21 -63 -27 -63 -10 0 17 -35 11 -53 -10 -20 -24 -45 -25 -83 -5 -16
8 -36 15 -44 15 -24 0 -128 87 -147 122 -12 24 -17 57 -18 123 0 83 2 93 28
126 15 20 27 39 27 44 0 14 45 55 61 55 8 0 19 4 25 10 13 13 90 30 179 39 39
4 90 15 115 23 33 12 89 16 217 16 95 0 178 4 185 9 20 12 370 14 385 1 7 -6
21 -7 30 -3 53 21 253 12 253 -11 0 -8 9 -14 20 -14 11 0 20 5 20 10 0 6 -7
10 -15 10 -8 0 -15 3 -15 8 0 4 48 8 108 9 59 1 139 8 177 14 39 6 84 12 100
14 17 1 40 7 52 13 12 7 31 12 43 12 11 0 32 7 45 16 14 9 25 14 25 10 0 -3
24 7 54 23 34 19 62 28 75 24 15 -4 21 -1 19 7 -2 7 9 20 23 29 71 44 218 186
232 224 4 9 11 17 16 17 13 0 46 63 65 122 29 92 59 289 46 302 -5 5 -6 45 -3
89 6 72 5 80 -10 74 -14 -5 -17 0 -17 23 0 16 -6 33 -14 37 -19 11 -24 34 -15
66 7 24 4 29 -14 36 -13 5 -25 4 -28 -2 -10 -15 -29 2 -29 27 0 16 -28 51 -88
110 -88 87 -157 136 -192 136 -11 0 -21 4 -24 9 -12 20 -92 50 -117 44 -19 -3
-32 1 -48 18 -11 13 -21 26 -21 31 0 13 28 9 32 -4z m-1622 -102 c0 -8 7 -16
15 -20 17 -6 21 -36 4 -36 -6 0 -13 9 -16 20 -3 11 -9 20 -14 20 -5 0 -9 7 -9
15 0 8 5 15 10 15 6 0 10 -6 10 -14z m237 -161 c8 -22 -27 -127 -41 -122 -15
5 -30 79 -22 111 5 19 13 26 32 26 13 0 27 -7 31 -15z m306 -35 c6 -28 8 -29
32 -18 20 9 28 8 43 -5 10 -10 34 -17 53 -17 28 0 46 -12 103 -66 44 -42 65
-69 59 -75 -6 -6 -14 -4 -23 6 -7 8 -22 15 -34 15 -12 0 -30 6 -41 14 -29 20
-81 29 -103 17 -47 -25 -202 48 -202 95 0 29 27 51 42 36 17 -17 26 -15 33 8
9 30 32 24 38 -10z m-268 -60 c4 -6 11 -8 16 -4 20 12 55 -6 66 -35 10 -28 13
-29 39 -20 22 8 38 7 67 -5 78 -34 40 -48 -118 -44 -92 3 -109 5 -106 18 2 8
4 31 3 50 0 19 2 38 5 42 6 11 21 10 28 -2z m1155 -222 c49 -15 117 -72 140
-118 24 -47 29 -174 7 -187 -7 -4 -23 -25 -36 -45 -12 -21 -29 -38 -37 -38 -8
0 -14 -4 -14 -10 0 -5 -11 -12 -24 -16 -14 -3 -27 -12 -30 -20 -4 -10 -26 -14
-89 -14 -46 0 -108 -4 -138 -10 -61 -10 -237 -19 -256 -13 -7 3 -13 8 -13 13
0 5 41 6 91 3 79 -5 95 -3 133 16 48 24 96 67 96 87 0 26 22 25 61 -1 21 -15
39 -34 39 -41 0 -17 31 -18 85 -3 48 13 94 63 95 101 0 15 5 47 12 71 17 66 7
87 -69 135 -72 44 -102 48 -148 16 -28 -20 -34 -18 -51 21 -18 44 -18 45 9 45
12 0 28 4 36 9 19 12 60 12 101 -1z m-1193 -32 c33 -4 41 -16 15 -23 -29 -7
-28 -12 14 -48 25 -21 33 -36 28 -48 -7 -20 -32 -22 -54 -4 -32 25 -80 96 -80
117 0 19 4 21 28 15 15 -3 37 -8 49 -9z m133 -38 c0 -5 7 -8 15 -8 15 0 40
-48 31 -58 -7 -6 -65 23 -93 47 -22 18 -29 41 -17 53 7 7 64 -24 64 -34z m695
-8 c3 -5 20 -10 38 -10 20 0 41 -9 58 -26 l27 -26 14 21 c16 25 58 29 58 4 0
-20 28 -53 47 -53 7 0 13 11 13 24 0 31 22 38 87 30 42 -5 58 -12 78 -36 62
-73 16 -99 -162 -91 -136 7 -130 10 -113 -62 8 -34 6 -43 -12 -62 -27 -29
-144 -50 -190 -34 -17 6 -41 11 -53 11 -13 0 -28 7 -35 15 -7 8 -20 15 -30 15
-10 0 -23 7 -30 15 -7 8 -18 15 -26 15 -7 0 -28 14 -46 30 -30 28 -75 39 -91
23 -4 -3 2 -21 13 -38 20 -32 20 -33 1 -56 -18 -22 -26 -24 -95 -22 -60 2 -85
8 -119 27 -23 14 -70 39 -105 56 -66 32 -82 51 -63 74 8 9 10 28 5 50 -3 21
-2 36 3 36 6 0 35 -13 66 -30 70 -37 81 -38 73 -3 -5 17 -3 29 6 34 18 12 28
11 28 -3 0 -18 82 -88 102 -88 13 0 18 11 20 47 3 45 5 48 38 58 19 5 41 14
47 18 7 4 63 7 125 5 98 -2 118 1 153 19 46 24 61 27 70 13z m-517 -12 c19
-19 15 -48 -8 -48 -23 0 -60 29 -60 47 0 16 52 17 68 1z m952 -198 c0 -11 -6
-20 -14 -20 -18 0 -29 16 -21 30 11 18 35 11 35 -10z m-145 -21 c0 -7 -8 -15
-17 -17 -18 -3 -25 18 -11 32 10 10 28 1 28 -15z m112 -24 c8 -22 -2 -29 -42
-29 -40 0 -50 7 -42 29 4 9 19 15 42 15 23 0 38 -6 42 -15z m-1073 -40 c29
-19 80 -44 114 -57 34 -12 62 -26 62 -30 0 -13 -125 -9 -138 4 -9 9 -19 9 -46
0 -18 -7 -97 -15 -176 -17 -78 -3 -147 -8 -154 -13 -6 -4 -33 -8 -61 -9 -27 0
-75 -5 -105 -11 -30 -5 -62 -6 -71 -1 -9 4 -20 4 -25 0 -14 -13 -132 -51 -158
-51 -14 0 -28 -5 -31 -11 -9 -14 -147 -79 -168 -79 -9 0 -20 -6 -24 -13 -4 -8
-37 -37 -73 -65 -36 -29 -81 -68 -100 -87 -19 -19 -42 -37 -51 -40 -10 -3 -20
-21 -23 -40 -4 -19 -15 -43 -26 -53 -10 -9 -20 -33 -22 -52 -4 -43 -21 -42
-29 2 -3 22 -7 2 -12 -62 -4 -52 -9 -115 -12 -140 -6 -47 -8 -204 -3 -255 4
-36 46 -143 65 -166 7 -8 13 -22 13 -30 0 -23 39 -81 50 -74 6 3 14 -4 19 -17
10 -25 122 -136 159 -156 13 -7 27 -10 31 -7 5 3 22 -2 37 -10 16 -8 43 -15
60 -15 17 0 37 -7 44 -15 7 -8 21 -15 31 -15 11 0 27 -4 37 -9 57 -29 222 -45
236 -22 3 5 57 8 120 8 92 1 128 5 183 23 82 28 78 25 144 76 71 54 150 132
171 169 10 17 23 39 30 50 7 11 26 41 42 68 16 26 37 47 46 47 20 0 110 -66
110 -81 0 -17 -20 -49 -31 -49 -5 0 -48 -29 -96 -65 -47 -36 -90 -65 -94 -65
-4 0 -10 -8 -13 -18 -4 -10 -19 -32 -34 -48 -62 -66 -83 -108 -87 -178 -2 -36
-6 -70 -9 -75 -10 -16 -147 0 -167 20 -20 20 -59 15 -59 -7 0 -9 12 -14 34
-14 29 0 36 -4 46 -32 10 -29 12 -31 21 -15 8 13 23 17 64 17 30 0 57 -5 60
-10 11 -17 24 -11 31 15 6 24 27 34 38 16 3 -4 1 -22 -4 -40 -7 -26 -4 -40 18
-82 29 -54 147 -186 163 -181 6 1 25 -9 44 -24 19 -14 39 -23 44 -19 19 11 53
-15 48 -36 -4 -14 0 -19 16 -19 12 0 35 -7 51 -15 15 -8 37 -15 49 -15 19 0
19 1 4 18 -19 20 -22 57 -7 67 16 10 49 -14 56 -40 9 -35 36 -55 80 -58 33 -2
39 1 39 18 0 15 -8 21 -30 23 -50 6 -105 79 -105 142 0 26 3 28 48 32 61 6 82
-5 82 -43 0 -29 37 -79 60 -79 5 0 10 15 10 34 0 24 -5 35 -19 39 -21 5 -56
93 -40 102 5 4 9 17 9 30 0 33 10 55 25 55 19 0 25 -24 25 -94 0 -64 17 -105
38 -92 15 9 16 58 1 73 -8 8 -6 19 5 42 20 38 24 38 36 6 10 -26 30 -34 30
-12 0 6 20 20 44 30 37 15 67 18 189 15 110 -2 147 0 157 10 10 11 15 10 31
-4 19 -17 20 -17 26 4 6 24 33 30 33 7 0 -22 33 -35 89 -35 27 0 52 -4 56 -9
13 -21 116 -41 214 -41 81 0 101 -3 101 -14 0 -8 -4 -17 -9 -21 -6 -3 -81 -6
-168 -6 -103 -1 -168 -6 -188 -14 -97 -41 -268 -36 -329 9 -17 13 -50 27 -72
31 -35 5 -45 3 -66 -17 -35 -32 -44 -80 -23 -124 19 -40 88 -94 120 -94 11 0
26 -5 31 -10 10 -10 113 -25 224 -34 30 -2 87 -7 125 -11 l71 -7 -1 53 c0 43
3 54 17 57 12 2 19 -5 24 -22 5 -21 12 -26 35 -26 18 0 32 -6 36 -16 9 -24
-10 -36 -41 -24 -22 8 -28 7 -32 -8 -3 -9 -10 -25 -15 -34 -14 -27 -11 -30 20
-23 16 3 81 8 144 10 113 4 116 3 131 -20 11 -16 16 -47 16 -94 0 -65 -2 -71
-29 -90 -30 -22 -85 -28 -96 -11 -3 6 -16 10 -28 10 -12 0 -60 25 -107 55 -47
30 -87 55 -90 55 -3 -1 -15 -6 -28 -14 -23 -12 -23 -12 20 -42 75 -51 118 -87
112 -95 -10 -16 -79 -9 -111 11 -18 10 -50 37 -73 60 -22 22 -47 40 -56 40 -9
0 -28 9 -43 19 -23 17 -30 17 -51 6 l-25 -13 40 -36 c21 -20 43 -36 49 -36 16
0 76 -44 76 -56 0 -6 -7 -17 -15 -24 -21 -18 -68 -4 -117 35 -24 19 -50 32
-59 30 -9 -3 -24 4 -35 16 -32 35 -70 49 -137 50 -71 1 -95 -8 -146 -58 -20
-19 -41 -31 -49 -28 -17 6 -72 -50 -72 -73 0 -11 8 -13 33 -8 85 18 95 17 146
-4 45 -20 64 -22 147 -18 101 6 144 23 85 34 -20 4 -36 15 -40 28 -8 21 -8 21
-15 -2 -12 -38 -35 -26 -38 20 -3 41 -5 43 -36 46 -19 2 -41 0 -50 -4 -14 -5
-12 -8 8 -13 43 -12 34 -71 -11 -71 -21 0 -38 22 -21 28 14 4 16 32 3 32 -5 0
-14 -7 -21 -15 -7 -8 -21 -15 -31 -15 -26 0 -24 32 3 50 11 8 28 23 36 32 9 9
20 14 26 11 5 -4 32 -5 59 -4 39 2 55 -3 82 -23 19 -15 37 -26 42 -26 5 0 16
-18 26 -40 9 -22 22 -40 27 -40 13 0 0 -27 -30 -57 -16 -18 -32 -23 -75 -23
-39 0 -56 -4 -63 -16 -11 -20 -54 -16 -132 15 -60 23 -129 28 -147 10 -7 -7
-25 -9 -47 -5 -29 6 -36 11 -36 30 0 13 7 29 15 36 8 7 15 20 15 29 0 10 11
32 25 51 44 60 30 79 -23 32 -23 -21 -32 -38 -32 -60 0 -25 -9 -38 -46 -67
-28 -20 -58 -35 -74 -35 -16 0 -30 -7 -34 -15 -4 -13 -10 -14 -26 -5 -29 16
-10 47 38 60 40 11 112 72 112 95 0 8 14 37 31 66 42 71 29 101 -24 58 -25
-19 -34 -35 -66 -112 -8 -21 -17 -28 -34 -25 -20 3 -22 8 -21 60 1 53 0 56
-17 47 -10 -5 -26 -23 -34 -40 -14 -27 -14 -32 1 -58 9 -16 14 -35 11 -44 -9
-23 -54 -29 -90 -13 -18 8 -38 16 -46 18 -10 3 -15 20 -16 51 -3 53 6 63 75
97 25 12 53 26 62 31 10 5 36 9 57 9 23 0 44 6 48 13 4 8 16 17 26 20 25 9 16
31 -14 35 -28 3 -56 -7 -114 -43 -49 -29 -67 -31 -89 -6 -27 29 -17 65 18 71
36 6 35 7 -18 62 -37 39 -44 43 -69 34 -21 -8 -30 -7 -36 3 -5 7 -17 18 -28
24 -98 57 -130 82 -173 136 -27 34 -50 67 -50 72 0 6 -11 27 -25 47 -16 23
-25 51 -25 74 0 33 -3 38 -24 38 -44 0 -49 -22 -21 -85 14 -32 25 -63 25 -69
0 -6 12 -22 27 -36 14 -14 32 -39 40 -57 7 -18 27 -42 43 -55 17 -12 30 -27
30 -34 0 -23 155 -94 206 -94 14 0 16 -7 10 -46 -5 -39 -3 -48 19 -70 30 -30
31 -44 4 -73 -17 -19 -29 -21 -77 -19 -52 3 -57 5 -55 25 2 19 -5 23 -67 33
-39 7 -70 16 -70 21 0 5 -7 9 -15 9 -8 0 -22 8 -32 18 -10 10 -48 44 -85 76
-39 33 -77 77 -90 102 -12 24 -24 44 -27 44 -21 0 -81 169 -81 227 0 21 -5 44
-12 51 -9 9 -8 18 2 38 13 23 12 27 -3 35 -22 13 -22 35 1 48 16 9 15 11 -7
32 -22 21 -33 23 -123 21 -126 -2 -176 -26 -193 -94 -6 -22 -4 -28 8 -28 9 0
18 8 22 18 3 11 29 31 58 45 41 21 67 27 118 27 73 0 86 -6 65 -29 -18 -21
-30 -88 -16 -96 6 -4 8 -37 4 -87 -4 -70 -3 -80 11 -75 11 5 15 0 15 -21 0
-15 9 -35 20 -45 16 -13 19 -25 14 -55 -4 -30 -2 -39 15 -50 13 -7 21 -8 21
-2 0 5 7 10 15 10 9 0 15 -9 15 -22 0 -22 11 -35 115 -141 54 -55 90 -77 195
-124 19 -8 44 -20 55 -26 11 -6 36 -10 56 -8 29 1 40 -3 53 -25 22 -32 15 -41
-16 -20 -17 12 -47 16 -119 16 -54 0 -99 -4 -101 -9 -1 -4 -24 -11 -50 -15
-44 -7 -48 -6 -48 14 0 12 5 30 11 41 9 17 4 26 -28 57 -70 68 -95 83 -141 91
-26 4 -56 12 -67 18 -27 14 -88 33 -108 33 -29 0 -28 18 3 51 17 19 30 45 30
59 0 14 4 31 9 39 10 15 -7 67 -29 92 -8 9 -24 29 -35 45 -20 28 -37 46 -82
81 -13 10 -24 29 -25 43 -3 20 3 26 29 35 37 12 93 62 93 82 0 20 -19 15 -59
-16 -20 -15 -59 -34 -88 -41 -47 -12 -56 -12 -89 6 -20 10 -47 29 -60 42 -14
12 -29 22 -33 22 -11 0 -61 47 -61 57 0 8 -69 33 -92 33 -7 0 -25 6 -40 14
-55 29 -86 29 -138 2 l-49 -26 -16 22 c-8 13 -15 30 -15 39 0 9 -7 22 -15 29
-8 7 -15 19 -15 28 0 19 -38 100 -51 108 -5 3 -9 14 -9 25 0 40 -70 166 -115
208 -24 22 -51 41 -59 41 -7 0 -16 7 -20 15 -3 8 -15 15 -27 15 -21 0 -21 1
-6 18 10 10 17 26 17 36 0 9 7 19 15 22 8 4 15 17 15 29 0 13 4 27 10 30 14 9
50 94 50 121 0 12 5 26 10 29 13 8 13 102 1 110 -5 3 -12 18 -16 35 -3 16 -24
48 -45 71 -21 24 -37 46 -34 51 3 4 24 12 47 19 23 6 49 17 59 26 9 8 22 13
30 11 13 -3 90 40 96 54 2 4 9 8 16 8 17 0 91 68 116 105 25 38 25 71 -1 119
-11 21 -18 41 -15 44 3 3 65 4 138 3 106 -2 137 1 153 13 11 9 30 16 41 16 12
0 27 7 34 15 7 8 23 15 35 15 22 0 55 31 102 95 l21 30 46 -23 c25 -13 49 -29
53 -36 10 -17 238 -32 248 -16 3 5 21 10 40 10 40 0 90 25 123 63 13 15 30 27
39 27 8 0 38 -16 67 -35z m450 -31 c80 -43 80 -64 1 -64 -30 0 -57 5 -60 10
-3 6 -17 10 -30 10 -13 0 -27 -4 -30 -10 -3 -5 -20 -10 -37 -10 l-31 0 26 20
c14 11 30 20 36 20 5 0 18 14 28 30 9 17 21 30 25 30 4 0 36 -16 72 -36z
m-1884 5 c0 -6 -9 -13 -20 -16 -11 -3 -20 -9 -20 -14 0 -5 -7 -9 -15 -9 -14 0
-13 3 2 25 18 25 53 34 53 14z m29 -54 c-25 -26 -49 -33 -49 -14 0 6 9 13 20
16 11 3 20 9 20 14 0 5 7 9 16 9 13 0 11 -5 -7 -25z m3485 -115 c22 -4 45 -6
51 -4 7 3 18 -2 25 -11 7 -8 21 -15 31 -15 21 0 102 -40 107 -52 2 -5 24 -33
48 -63 24 -29 44 -58 44 -64 0 -5 6 -14 14 -18 44 -25 76 -224 41 -253 -11 -9
-12 -17 -5 -30 7 -13 7 -21 0 -25 -5 -3 -10 -22 -10 -40 0 -28 -11 -46 -57
-96 -32 -34 -73 -68 -90 -76 -18 -7 -33 -17 -33 -22 0 -5 -19 -19 -42 -31 -24
-11 -55 -28 -71 -36 -15 -9 -37 -16 -50 -16 -12 0 -31 -4 -42 -8 -39 -15 -101
-29 -155 -35 -30 -4 -60 -11 -67 -17 -7 -6 -33 -8 -58 -6 -25 3 -48 1 -51 -4
-4 -6 -55 -9 -123 -7 -76 2 -124 -1 -138 -9 -28 -15 -48 -15 -73 1 -15 8 -23
9 -28 1 -8 -12 -81 -13 -99 -1 -6 4 -14 3 -18 -3 -7 -11 -114 -9 -133 3 -7 5
-20 6 -30 3 -15 -5 -290 -19 -337 -18 -116 3 -217 0 -250 -9 -22 -6 -52 -10
-67 -10 -15 1 -29 -3 -33 -9 -9 -15 -57 -12 -79 5 -11 8 -30 15 -43 15 -20 0
-43 25 -43 48 0 16 50 32 104 32 29 0 92 7 138 15 65 11 197 16 540 18 316 3
460 7 475 16 13 6 73 11 151 11 74 0 164 6 209 15 43 8 95 15 115 15 21 0 55
6 75 14 21 8 50 17 64 20 26 6 129 97 129 114 0 5 14 21 30 37 17 16 30 39 30
53 0 13 4 31 9 40 12 23 -6 148 -25 178 -9 13 -13 27 -10 32 3 5 -17 24 -44
41 -28 18 -50 37 -50 42 0 5 -10 13 -22 18 -13 5 -40 21 -61 35 -54 37 -164
40 -259 7 -37 -13 -69 -30 -72 -37 -10 -25 -36 -16 -36 12 0 34 64 114 91 114
10 0 24 9 31 20 15 24 26 25 50 4 17 -16 19 -15 40 11 13 16 25 32 28 36 7 9
61 17 80 11 8 -2 33 -8 54 -12z m-86 -199 c9 -6 28 -12 42 -15 36 -8 136 -90
156 -127 10 -19 18 -67 21 -118 4 -77 2 -89 -16 -110 -12 -13 -21 -30 -21 -38
0 -7 -4 -13 -10 -13 -5 0 -10 -6 -10 -12 0 -19 -45 -58 -66 -58 -11 0 -28 -7
-38 -15 -11 -8 -30 -15 -42 -15 -13 0 -25 -4 -28 -9 -3 -4 -45 -11 -93 -14
-49 -3 -108 -13 -133 -22 -34 -13 -64 -16 -120 -12 -41 3 -122 1 -180 -4 -177
-15 -452 -20 -467 -8 -7 6 -21 8 -30 4 -10 -3 -112 -8 -226 -10 -251 -4 -354
-13 -384 -33 -14 -8 -33 -12 -47 -8 -19 5 -26 1 -31 -15 -9 -26 -28 -19 -40
15 -7 22 -6 30 6 40 9 6 19 21 23 34 4 12 11 22 16 22 5 0 19 21 31 48 21 47
63 91 87 92 16 0 145 70 153 82 10 16 85 21 122 9 35 -12 77 -64 77 -96 0 -8
5 -17 10 -20 12 -7 107 22 129 38 7 6 21 16 31 22 10 5 43 27 74 48 45 30 63
37 104 37 27 0 52 -3 55 -6 4 -4 -15 -21 -41 -38 -26 -17 -48 -34 -50 -38 -2
-5 -11 -8 -20 -8 -9 -1 -35 -12 -57 -25 -22 -14 -51 -30 -65 -36 -13 -5 -27
-15 -31 -20 -10 -17 -84 -22 -122 -10 -35 12 -77 64 -77 97 0 46 -81 19 -218
-72 -60 -40 -103 -62 -113 -59 -22 7 -36 -14 -18 -26 23 -15 81 2 138 40 30
20 66 44 80 53 37 25 91 51 95 47 2 -2 19 -30 39 -61 21 -33 44 -59 54 -59
123 -8 121 -8 201 32 42 22 87 49 99 61 22 21 43 17 43 -7 0 -7 16 -30 35 -51
34 -36 36 -37 92 -30 32 3 72 12 88 20 91 41 113 53 147 79 22 17 47 27 60 25
20 -3 23 -9 23 -51 l0 -49 58 -20 58 -20 62 30 c34 17 78 47 97 67 l35 37 21
-27 c54 -67 135 -85 203 -43 64 39 86 81 76 145 -5 34 -13 45 -40 62 -33 19
-34 22 -29 65 6 42 4 48 -29 81 -19 19 -46 35 -58 36 -56 3 -85 -4 -107 -24
l-23 -21 -5 21 c-5 18 -9 19 -30 9 -32 -15 -30 -26 3 -26 20 0 24 -3 16 -11
-17 -17 -105 25 -97 46 4 8 14 15 24 15 9 0 25 9 35 20 19 21 65 28 65 10 0
-5 9 -10 20 -10 11 0 20 6 20 14 0 23 57 33 88 17z m22 -132 c10 -24 11 -36 2
-50 -7 -10 -12 -30 -12 -44 0 -20 5 -25 25 -25 41 0 67 -34 63 -83 -2 -34 -9
-45 -37 -64 -58 -39 -141 -26 -141 22 0 13 -9 30 -21 38 -18 13 -24 13 -52 -1
-18 -9 -38 -22 -45 -29 -19 -19 -30 -16 -57 13 -28 30 -40 79 -32 131 11 64
64 97 87 53 19 -36 90 -21 90 19 0 29 32 51 75 51 38 0 44 -3 55 -31z m-435
-89 c4 -11 3 -34 0 -51 -6 -24 -11 -30 -26 -26 -14 4 -19 1 -17 -11 4 -22 -33
-28 -44 -8 -8 14 -14 12 -43 -18 -33 -34 -105 -63 -125 -51 -11 7 -13 39 -4
70 7 24 73 77 86 69 6 -4 8 -18 5 -33 -8 -38 7 -60 22 -32 7 11 17 21 23 21
19 0 48 32 48 52 0 11 7 18 19 18 11 0 23 5 26 10 10 16 23 12 30 -10z m-125
-15 c0 -8 -7 -15 -16 -15 -14 0 -14 3 -4 15 7 8 14 15 16 15 2 0 4 -7 4 -15z
m-1601 -99 c18 -19 21 -30 16 -60 -5 -26 -12 -36 -26 -36 -11 0 -22 8 -25 18
-3 9 -10 25 -15 34 -13 25 -11 55 4 61 20 9 23 8 46 -17z m1348 -8 c8 -29 13
-33 40 -32 39 2 51 -28 22 -57 -23 -23 -28 -23 -57 -3 -13 9 -29 13 -36 11
-27 -11 -34 13 -18 64 18 57 35 63 49 17z m-963 10 c22 -6 44 -14 49 -18 9 -8
-11 -110 -24 -124 -5 -6 -9 -18 -9 -28 0 -10 -5 -18 -11 -18 -6 0 -9 9 -6 20
5 21 -7 36 -36 41 -16 4 -27 18 -60 83 -7 16 -5 24 13 38 26 21 30 22 84 6z
m-491 -15 c2 -5 7 -20 11 -35 5 -20 3 -28 -7 -28 -21 0 -50 37 -44 55 7 16 33
21 40 8z m1867 -25 c39 -65 11 -112 -37 -63 -21 20 -24 31 -19 60 9 44 30 45
56 3z m-2126 12 c18 -7 26 -17 26 -34 0 -14 9 -31 21 -40 22 -15 19 -16 99 33
39 23 92 -44 94 -120 1 -69 -68 -128 -94 -80 -19 37 -90 23 -90 -18 0 -29 -32
-51 -75 -51 -38 0 -44 3 -55 31 -10 24 -11 36 -2 50 7 10 12 30 12 44 0 20 -5
25 -25 25 -58 0 -90 94 -46 134 34 31 93 42 135 26z m2221 -20 c20 -23 13 -53
-12 -48 -12 2 -19 14 -21 36 -4 37 7 41 33 12z m-1485 -185 c0 -8 -4 -15 -10
-15 -5 0 -10 7 -10 15 0 8 5 15 10 15 6 0 10 -7 10 -15z m-354 -316 c-14 -11
-26 -26 -26 -33 0 -15 -54 -56 -75 -56 -8 0 -15 -7 -15 -15 0 -8 -9 -15 -20
-15 -10 0 -23 -6 -27 -14 -10 -16 -57 -26 -74 -16 -17 11 -1 30 25 30 13 0 29
7 36 15 7 8 20 15 29 15 9 0 38 20 64 45 27 25 53 45 58 45 5 0 9 5 9 11 0 7
8 18 18 25 29 22 28 -14 -2 -37z m-686 -74 c0 -10 10 -15 30 -15 20 0 30 -5
30 -15 0 -10 16 -15 63 -17 34 -2 62 -7 62 -13 0 -16 -100 -18 -116 -2 -8 7
-28 17 -44 21 -63 16 -99 56 -50 56 16 0 25 -6 25 -15z m1625 -115 c4 -6 -14
-10 -47 -9 -49 2 -50 2 -18 9 52 11 58 11 65 0z m75 -11 c0 -12 -47 -12 -54 0
-4 5 0 11 6 14 18 5 48 -3 48 -14z m2000 10 c0 -6 -9 -13 -20 -16 -11 -3 -20
-9 -20 -14 0 -5 -7 -9 -16 -9 -13 0 -11 5 7 25 25 26 49 33 49 14z m-2213 -19
c-14 -11 -28 -20 -31 -20 -16 0 -69 -47 -77 -67 -12 -32 -30 -29 -75 15 -21
20 -41 36 -44 36 -3 -1 -27 -5 -55 -8 -41 -5 -47 -4 -30 5 11 7 23 17 26 22 4
5 62 13 130 18 67 5 125 12 128 14 2 3 15 5 29 5 l25 0 -26 -20z m368 10 c3
-5 17 -10 30 -10 13 0 27 5 30 10 3 6 18 10 32 10 25 0 26 0 8 -20 -10 -11
-24 -20 -32 -20 -7 0 -13 -3 -13 -7 -1 -5 -10 -19 -21 -32 l-20 -24 -57 28
c-78 39 -85 45 -71 61 13 16 105 19 114 4z m1878 -45 c-10 -13 -26 -25 -35
-25 -25 0 -23 21 2 27 11 3 20 9 20 14 0 5 7 9 15 9 14 0 13 -3 -2 -25z m-86
-35 c10 0 11 -8 7 -27 -9 -33 -41 -62 -71 -63 -29 0 -109 -35 -120 -52 -11
-17 -115 -88 -130 -88 -6 0 -13 -3 -15 -7 -1 -5 -22 -21 -45 -37 -35 -24 -43
-34 -43 -60 0 -39 51 -140 92 -182 29 -31 52 -114 32 -114 -5 0 -8 -47 -6
-103 l3 -104 50 -49 c27 -26 49 -53 49 -59 0 -23 41 -36 96 -29 60 7 65 1 43
-61 -10 -27 -9 -36 13 -71 l25 -39 -59 -53 c-71 -63 -109 -69 -130 -22 -7 17
-21 33 -30 36 -31 9 -98 95 -98 124 0 45 -35 80 -80 80 -20 0 -43 -6 -49 -14
-7 -8 -26 -22 -44 -31 -18 -9 -43 -23 -57 -31 -14 -7 -36 -14 -49 -14 -13 0
-49 -17 -80 -38 -31 -21 -64 -41 -73 -45 -28 -10 -21 -35 15 -52 18 -8 46 -28
63 -43 16 -15 42 -33 57 -39 15 -7 27 -17 27 -23 0 -6 8 -6 23 1 28 13 119 -1
125 -19 2 -7 -6 -12 -22 -12 -13 0 -28 -4 -31 -10 -3 -6 -2 -10 4 -10 5 0 24
-13 41 -29 27 -24 29 -30 17 -37 -8 -5 -33 -26 -55 -46 l-40 -37 -33 47 c-19
26 -41 60 -50 77 -16 30 -74 67 -124 79 -15 4 -42 18 -60 31 -17 14 -46 28
-64 31 -45 9 -74 50 -67 94 3 19 10 36 16 38 5 2 10 10 10 18 0 8 7 14 15 14
8 0 15 -7 15 -16 0 -21 34 -14 38 9 2 10 -3 17 -12 17 -20 0 -20 10 2 36 29
36 53 44 84 28 31 -16 34 -24 16 -43 -11 -12 -9 -13 7 -7 10 4 39 10 62 13 51
7 63 19 31 29 -123 38 -163 83 -115 128 15 14 34 26 44 28 10 2 18 10 18 18 0
20 -76 14 -88 -6 -14 -24 -37 -16 -83 31 -35 36 -51 45 -78 45 -45 0 -106 36
-106 62 0 17 5 19 30 13 27 -6 30 -4 28 17 -3 19 2 23 26 23 16 1 31 6 34 13
2 7 16 12 32 12 19 0 36 9 49 26 34 43 3 59 -55 29 -16 -8 -37 -15 -46 -15 -9
0 -29 -6 -45 -14 -64 -32 -81 -37 -109 -34 -24 2 -30 8 -32 33 -2 17 -9 37
-15 45 -32 40 -49 88 -27 75 16 -10 80 15 144 56 46 30 70 39 104 39 39 0 43
-2 37 -20 -4 -12 0 -26 8 -35 9 -8 17 -20 19 -27 6 -17 28 0 28 23 0 10 3 19
7 19 12 0 77 -23 119 -42 22 -10 49 -18 60 -18 12 0 24 -3 28 -7 4 -5 24 -8
44 -8 33 0 37 -3 42 -30 4 -21 12 -31 27 -33 28 -4 49 30 28 48 -7 6 -17 25
-20 41 -4 16 -11 31 -16 34 -5 4 -9 23 -9 44 0 22 -6 44 -15 51 -10 8 -15 30
-15 61 0 37 4 49 15 49 8 0 15 7 15 15 0 9 9 15 25 15 14 0 28 7 31 15 4 10
19 15 43 15 21 0 46 7 57 15 10 8 29 15 41 15 12 0 24 4 27 9 6 9 52 32 119
59 15 7 31 20 35 30 13 33 77 82 99 76 11 -3 24 0 29 7 5 9 10 7 17 -9 6 -12
16 -22 24 -22z m-2557 -97 c0 -10 -4 -35 -9 -56 -15 -61 -3 -82 74 -132 77
-49 87 -52 129 -30 41 21 61 19 74 -10 17 -37 15 -42 -15 -48 -16 -3 -40 -9
-55 -13 -15 -3 -49 0 -74 7 -58 17 -154 104 -154 140 -2 51 -2 144 -1 152 2
15 31 6 31 -10z m-272 -56 c2 -12 -3 -17 -17 -17 -12 0 -21 6 -21 13 0 31 32
34 38 4z m1582 -70 c55 -44 101 -137 68 -137 -21 0 -94 29 -75 30 27 0 20 20
-19 54 -25 22 -34 36 -29 49 8 20 33 22 55 4z m-260 -34 c29 -25 25 -43 -9
-43 -28 0 -61 22 -61 39 0 26 42 28 70 4z m126 4 c42 -24 74 -55 74 -71 0 -9
-5 -16 -11 -16 -12 0 -48 19 -66 34 -7 6 -19 17 -28 24 -18 15 -20 42 -2 42 6
-1 21 -6 33 -13z m-400 -247 c11 0 28 -6 39 -14 29 -20 81 -29 103 -17 47 25
202 -47 202 -93 0 -31 -26 -54 -42 -38 -17 17 -26 15 -33 -8 -10 -30 -32 -24
-39 10 -5 28 -8 30 -27 20 -16 -9 -26 -8 -44 4 -14 9 -39 16 -58 16 -28 0 -45
11 -100 66 -37 36 -64 70 -61 76 4 5 13 3 23 -6 10 -9 26 -16 37 -16z m535
-10 c-2 -8 -4 -32 -5 -52 -1 -44 -10 -55 -30 -39 -8 7 -20 10 -26 6 -19 -11
-48 5 -54 31 -6 23 -11 25 -40 20 -34 -7 -106 16 -106 33 0 17 24 20 145 18
101 -2 119 -4 116 -17z m62 -109 c12 -61 3 -91 -29 -91 -32 0 -40 22 -24 73 7
23 14 48 16 55 8 26 29 5 37 -37z m174 -198 c4 -10 11 -21 16 -24 5 -4 7 -15
5 -25 -5 -18 -5 -18 -13 1 -5 11 -14 24 -22 28 -15 9 -18 37 -3 37 6 0 14 -8
17 -17z m-14 -159 c14 -14 -48 -98 -64 -88 -16 10 -9 48 13 71 21 23 39 29 51
17z m1067 -45 c4 -8 12 -24 19 -37 12 -23 8 -42 -10 -42 -5 0 -13 8 -16 18 -4
9 -13 22 -21 28 -9 7 -12 18 -7 33 7 24 24 24 35 0z m-2600 1 c0 -5 -9 -10
-21 -10 -11 0 -17 5 -14 10 3 6 13 10 21 10 8 0 14 -4 14 -10z m95 -59 c8 -14
-16 -25 -49 -23 -61 5 -58 32 4 32 21 0 41 -4 45 -9z m35 -58 c43 -14 59 -15
96 -5 53 14 88 15 112 3 94 -50 100 -52 173 -39 53 8 73 8 81 0 17 -17 104
-15 139 4 34 17 120 16 126 -2 2 -7 -3 -19 -12 -28 -14 -14 -46 -16 -226 -16
-128 0 -218 4 -230 11 -11 5 -89 13 -175 16 -141 6 -156 8 -169 26 -11 15 -12
24 -3 34 14 17 25 16 88 -4z m169 -103 c11 -6 125 -11 270 -13 234 -3 252 -5
266 -23 8 -10 15 -25 15 -32 0 -16 66 -153 78 -161 4 -3 25 -28 47 -56 22 -27
46 -55 54 -61 28 -22 -6 -23 -66 -3 -48 17 -61 26 -70 50 l-11 29 -71 -6 c-83
-8 -96 8 -35 41 33 18 35 21 29 54 -17 95 -137 131 -215 65 -41 -35 -41 -77 0
-115 16 -16 34 -29 40 -29 18 0 10 -29 -11 -40 -11 -7 -44 -10 -72 -8 l-52 3
-3 -54 c-2 -30 -10 -60 -18 -68 -8 -8 -14 -21 -14 -29 0 -8 -9 -24 -19 -35
l-19 -21 -12 21 c-6 12 -12 59 -14 104 -3 79 -4 82 -27 81 -13 0 -36 -4 -51
-8 -22 -6 -32 -3 -55 20 l-27 27 34 12 c21 7 47 28 67 56 34 46 45 82 19 60
-12 -10 -17 -8 -26 8 -12 24 -83 61 -115 61 -45 0 -87 -23 -111 -61 -30 -48
-30 -48 1 -93 14 -21 23 -41 20 -46 -11 -17 -72 -20 -109 -5 -37 16 -39 15
-71 -9 -32 -24 -85 -36 -85 -18 0 11 66 72 79 72 6 0 11 5 11 10 0 6 7 10 16
10 11 0 14 6 9 20 -7 21 29 90 46 90 5 0 9 11 9 25 0 14 4 33 9 43 5 9 12 24
14 33 4 13 22 15 116 13 61 -2 120 -8 130 -14z m-24 -140 c20 -17 19 -44 -4
-64 -14 -13 -33 -16 -72 -14 l-54 3 -3 38 c-3 31 1 39 20 47 28 12 94 6 113
-10z m459 -13 c33 -50 -11 -93 -73 -72 -69 23 -55 95 19 95 30 0 43 -5 54 -23z
m1437 -110 c-1 -12 -15 -9 -19 4 -3 6 1 10 8 8 6 -3 11 -8 11 -12z m-67 -12
c11 -8 16 -18 12 -22 -3 -4 -16 3 -28 15 -25 25 -13 29 16 7z"/>
<path d="M3377 5172 c-22 -24 -21 -34 2 -49 17 -10 20 -9 24 15 8 40 -5 57
-26 34z"/>
<path d="M3360 5060 c0 -11 7 -20 15 -20 13 0 14 4 5 20 -6 11 -13 20 -15 20
-3 0 -5 -9 -5 -20z"/>
<path d="M1394 4845 c-18 -14 -18 -14 9 -15 17 0 27 5 27 15 0 19 -11 19 -36
0z"/>
<path d="M1341 4811 c-10 -7 -11 -13 -1 -30 9 -17 15 -20 25 -11 7 6 11 20 8
30 -6 22 -11 24 -32 11z"/>
<path d="M1472 4771 c-13 -18 -19 -37 -15 -50 6 -25 5 -24 37 -10 27 12 41 56
24 77 -15 18 -22 15 -46 -17z"/>
<path d="M1440 4664 c0 -14 23 -24 56 -24 16 0 24 6 24 18 0 14 -8 17 -40 17
-24 0 -40 -4 -40 -11z"/>
<path d="M1760 4585 c-17 -20 -8 -37 26 -55 39 -20 83 -70 84 -96 0 -12 -7
-27 -15 -34 -8 -7 -15 -18 -15 -24 0 -7 -18 -25 -40 -42 -40 -29 -49 -47 -29
-59 17 -11 57 4 86 33 45 44 67 94 61 139 -6 41 -33 83 -54 83 -6 0 -25 16
-43 35 -35 39 -43 42 -61 20z"/>
<path d="M1570 4563 c0 -16 82 -45 94 -33 7 7 6 14 -1 21 -14 14 -93 24 -93
12z"/>
<path d="M1964 4295 c-4 -10 2 -25 15 -38 12 -12 30 -33 40 -47 26 -33 39 -18
15 17 -11 15 -19 39 -19 53 0 30 -41 42 -51 15z"/>
<path d="M2454 4548 c-8 -12 24 -40 41 -35 5 2 11 13 13 25 3 18 -2 22 -22 22
-14 0 -28 -5 -32 -12z"/>
<path d="M3172 4520 c14 -22 24 -19 15 5 -4 8 -11 15 -17 15 -6 0 -6 -7 2 -20z"/>
<path d="M2396 4512 c-3 -6 -1 -14 5 -17 15 -10 25 3 12 16 -7 7 -13 7 -17 1z"/>
<path d="M2900 4505 c0 -8 5 -15 10 -15 6 0 10 7 10 15 0 8 -4 15 -10 15 -5 0
-10 -7 -10 -15z"/>
<path d="M3025 4501 c-7 -12 12 -24 25 -16 11 7 4 25 -10 25 -5 0 -11 -4 -15
-9z"/>
<path d="M3072 4489 c2 -6 8 -10 13 -10 5 0 11 4 13 10 2 6 -4 11 -13 11 -9 0
-15 -5 -13 -11z"/>
<path d="M2924 4465 c-9 -24 7 -31 60 -27 52 4 67 32 19 32 -16 0 -38 3 -50 6
-16 4 -25 1 -29 -11z"/>
<path d="M2845 4450 c-3 -5 3 -10 15 -10 12 0 18 5 15 10 -3 6 -10 10 -15 10
-5 0 -12 -4 -15 -10z"/>
<path d="M3334 4445 c-18 -15 -18 -15 5 -13 14 2 26 9 29 16 5 17 -10 15 -34
-3z"/>
<path d="M3124 4435 c-8 -20 4 -35 27 -35 12 0 19 7 19 19 0 23 -39 36 -46 16z"/>
<path d="M3260 4440 c-12 -8 -11 -10 8 -10 12 0 22 5 22 10 0 13 -11 13 -30 0z"/>
<path d="M3336 4323 c-11 -11 -6 -23 9 -23 8 0 15 4 15 9 0 13 -16 22 -24 14z"/>
<path d="M3264 4270 c4 -14 11 -43 15 -65 l8 -40 12 29 c16 40 11 66 -18 85
-24 16 -24 15 -17 -9z"/>
<path d="M4130 4225 c0 -8 4 -15 9 -15 5 0 11 7 15 15 3 9 0 15 -9 15 -8 0
-15 -7 -15 -15z"/>
<path d="M3080 3402 c0 -5 -10 -12 -22 -16 -22 -5 -22 -6 -6 -22 12 -13 20
-14 30 -7 7 6 24 13 38 15 37 5 32 32 -7 36 -18 2 -33 -1 -33 -6z"/>
<path d="M2576 2688 c-4 -10 -6 -23 -3 -30 2 -7 -4 -29 -15 -48 -10 -19 -18
-43 -18 -53 0 -24 24 -16 28 9 2 10 8 28 13 40 6 11 9 38 7 60 -3 29 -6 34
-12 22z"/>
<path d="M1700 2611 c0 -11 5 -23 10 -26 6 -3 10 3 10 14 0 11 -4 23 -10 26
-5 3 -10 -3 -10 -14z"/>
<path d="M4310 4417 c0 -17 35 -67 46 -67 23 0 16 36 -11 54 -24 16 -35 20
-35 13z"/>
<path d="M4462 4001 c2 -7 7 -12 11 -12 12 1 9 15 -3 20 -7 2 -11 -2 -8 -8z"/>
<path d="M4407 3583 c-15 -14 -7 -43 12 -43 27 0 34 15 15 34 -18 18 -18 18
-27 9z"/>
<path d="M3927 3073 c-12 -11 -8 -23 8 -23 8 0 15 7 15 15 0 16 -12 20 -23 8z"/>
<path d="M3457 3043 c-14 -13 -6 -24 15 -21 27 4 36 28 11 28 -11 0 -23 -3
-26 -7z"/>
<path d="M5434 2716 c-14 -11 -16 -18 -8 -26 8 -7 14 -3 22 15 13 29 12 30
-14 11z"/>
<path d="M2220 2604 c0 -14 3 -15 18 -3 9 7 19 15 21 16 2 2 -5 3 -17 3 -14 0
-22 -6 -22 -16z"/>
<path d="M3615 2471 c-6 -5 -21 -11 -35 -13 -29 -4 -34 -31 -7 -36 21 -4 87
25 87 37 0 5 -7 12 -16 15 -20 8 -18 8 -29 -3z"/>
<path d="M2730 4302 c0 -14 36 -43 43 -35 4 3 7 15 7 25 0 13 -7 18 -25 18
-14 0 -25 -4 -25 -8z"/>
<path d="M1260 3130 c0 -19 3 -21 12 -12 9 9 9 15 0 24 -9 9 -12 7 -12 -12z"/>
<path d="M2426 2034 c-8 -22 -8 -22 14 -34 18 -9 18 -8 9 20 -13 34 -15 36
-23 14z"/>
<path d="M2546 1613 c-10 -25 10 -39 23 -15 10 19 6 32 -10 32 -4 0 -10 -8
-13 -17z"/>
<path d="M3397 1598 c-4 -13 2 -31 16 -49 23 -29 37 -36 37 -19 0 12 -38 90
-44 90 -2 0 -6 -10 -9 -22z"/>
<path d="M2332 1463 c5 -26 38 -29 38 -4 0 15 -6 21 -21 21 -14 0 -19 -5 -17
-17z"/>
<path d="M3537 1433 c-4 -3 -7 -15 -7 -25 0 -13 7 -18 25 -18 27 0 33 18 13
38 -14 14 -22 15 -31 5z"/>
<path d="M3708 1383 c-17 -3 -28 -11 -28 -20 0 -12 -7 -14 -35 -10 -28 5 -37
2 -45 -14 -10 -17 -7 -19 34 -19 30 0 46 5 50 15 4 10 20 15 51 15 42 0 45 -2
45 -27 0 -20 3 -24 11 -16 9 9 8 21 -5 47 -17 36 -21 38 -78 29z"/>
<path d="M3830 1380 c0 -5 7 -10 15 -10 8 0 15 5 15 10 0 6 -7 10 -15 10 -8 0
-15 -4 -15 -10z"/>
<path d="M3990 1346 c0 -18 28 -41 38 -31 4 4 1 10 -5 12 -7 3 -13 11 -13 19
0 8 -4 14 -10 14 -5 0 -10 -6 -10 -14z"/>
<path d="M3900 1331 c0 -6 13 -11 29 -11 18 0 31 -6 35 -17 5 -12 9 -14 18 -5
16 16 1 29 -44 37 -25 5 -38 4 -38 -4z"/>
<path d="M3510 1310 c6 -11 18 -20 27 -20 14 0 14 2 -2 20 -10 11 -22 20 -27
20 -5 0 -4 -9 2 -20z"/>
<path d="M4195 1309 c-8 -25 6 -42 31 -37 27 5 27 24 0 41 -23 16 -25 16 -31
-4z"/>
<path d="M4285 1269 c-10 -15 3 -25 16 -12 7 7 7 13 1 17 -6 3 -14 1 -17 -5z"/>
<path d="M4980 3231 c0 -12 5 -21 10 -21 6 0 10 6 10 14 0 8 -4 18 -10 21 -5
3 -10 -3 -10 -14z"/>
<path d="M3203 2795 c-3 -9 -3 -18 -1 -21 9 -9 59 16 53 26 -10 16 -45 12 -52
-5z"/>
<path d="M4650 1627 c0 -8 9 -22 20 -32 15 -14 19 -26 15 -46 -7 -31 14 -44
40 -25 20 14 13 56 -9 56 -8 0 -19 14 -26 30 -13 30 -40 42 -40 17z"/>
<path d="M4848 1525 c-21 -19 -38 -39 -38 -44 0 -5 -7 -15 -16 -22 -12 -10
-15 -26 -12 -67 4 -45 10 -57 38 -80 18 -15 46 -39 63 -54 35 -32 40 -33 57
-13 17 20 8 37 -26 55 -68 34 -103 101 -69 130 8 7 15 18 15 24 0 7 18 25 40
42 44 32 48 58 10 62 -17 1 -37 -9 -62 -33z"/>
<path d="M5132 1360 c0 -19 2 -27 5 -17 2 9 2 25 0 35 -3 9 -5 1 -5 -18z"/>
<path d="M5035 1299 c-8 -12 -8 -13 30 -31 31 -15 65 -14 65 3 0 8 -63 39 -81
39 -4 0 -11 -5 -14 -11z"/>
<path d="M5180 1172 c0 -14 8 -18 40 -17 40 0 54 17 24 29 -32 12 -64 7 -64
-12z"/>
<path d="M5203 1117 c-24 -12 -37 -56 -21 -74 13 -16 38 -17 38 -1 0 6 7 19
15 28 8 9 12 25 8 38 -6 24 -8 25 -40 9z"/>
<path d="M5333 1062 c-7 -4 -10 -17 -6 -30 6 -24 11 -26 32 -13 10 7 11 13 2
30 -13 24 -12 23 -28 13z"/>
<path d="M5270 985 c0 -19 11 -19 36 0 18 14 18 14 -8 15 -18 0 -28 -5 -28
-15z"/>
<path d="M3927 1563 c-4 -3 -7 -15 -7 -25 0 -13 7 -18 25 -18 14 0 25 4 25 8
0 14 -36 43 -43 35z"/>
<path d="M3320 770 c6 -11 13 -20 15 -20 3 0 5 9 5 20 0 11 -7 20 -15 20 -13
0 -14 -4 -5 -20z"/>
<path d="M3302 687 c-6 -7 -9 -23 -5 -35 5 -22 7 -22 24 -6 22 20 25 54 5 54
-7 0 -18 -6 -24 -13z"/>
</g>
</svg>
