<?xml version="1.0" standalone="no"?>
<!DOCTYPE svg PUBLIC "-//W3C//DTD SVG 20010904//EN"
 "http://www.w3.org/TR/2001/REC-SVG-20010904/DTD/svg10.dtd">
<svg version="1.0" xmlns="http://www.w3.org/2000/svg"
 width="224.000000pt" height="194.000000pt" viewBox="0 0 224.000000 194.000000"
 preserveAspectRatio="xMidYMid meet">
<metadata>
Created by potrace 1.10, written by Peter Selinger 2001-2011
</metadata>
<g transform="translate(0.000000,194.000000) scale(0.100000,-0.100000)"
fill="#000000" stroke="none">
<path d="M1099 1806 c-8 -22 -21 -37 -36 -41 -13 -3 -23 -10 -23 -15 0 -7 -6
-7 -17 -1 -42 22 -99 38 -116 32 -17 -6 -17 -8 3 -26 34 -30 58 -87 55 -125
-2 -35 -2 -35 -71 -47 -93 -16 -94 -16 -94 7 0 47 -53 8 -65 -48 -7 -32 -8
-33 -26 -16 -18 16 -18 18 12 51 16 19 29 42 27 51 -2 10 -26 28 -53 42 -29
14 -63 41 -77 62 -26 36 -35 39 -89 29 -4 0 -10 -8 -13 -17 -7 -17 40 -63 64
-63 11 0 11 2 -3 10 -18 10 -18 12 0 32 17 20 17 21 0 8 -14 -11 -20 -12 -30
-2 -9 10 -8 11 7 5 12 -5 17 -4 13 3 -3 5 1 10 9 10 9 0 26 -15 37 -33 13 -19
41 -41 69 -53 48 -21 64 -50 37 -67 -8 -4 -9 1 -4 17 7 23 7 23 -8 4 -9 -12
-11 -22 -6 -26 6 -3 3 -11 -6 -19 -8 -7 -15 -19 -15 -27 0 -7 -7 -16 -15 -19
-8 -4 -15 -10 -15 -15 0 -6 9 -5 21 1 16 9 24 8 37 -3 9 -8 27 -18 40 -21 20
-7 22 -4 22 27 0 40 17 51 55 37 34 -13 31 -22 -5 -16 -17 2 -28 0 -24 -5 3
-5 9 -7 14 -4 4 3 11 -2 14 -11 5 -12 2 -15 -11 -10 -15 6 -16 5 -5 -6 11 -11
16 -9 32 12 l19 25 28 -26 c29 -27 75 -35 182 -30 37 1 42 -1 37 -16 -5 -15
-4 -15 9 1 8 11 15 15 15 9 0 -6 15 -20 34 -31 43 -25 55 -62 20 -62 -13 0
-24 6 -24 13 -1 16 -39 61 -46 54 -3 -3 3 -16 15 -28 12 -13 22 -29 22 -36 1
-7 2 -20 3 -28 0 -8 -3 -14 -9 -12 -5 1 -8 12 -7 24 2 11 -2 24 -9 29 -9 5
-11 1 -7 -13 3 -12 2 -27 -3 -34 -7 -11 -9 -11 -9 -1 0 10 -5 10 -21 2 -24
-13 -118 -11 -136 3 -7 5 -10 13 -7 18 3 5 0 9 -6 9 -7 0 -9 -7 -6 -16 6 -14
1 -16 -31 -9 -21 5 -57 9 -80 9 -73 2 -48 13 45 20 111 9 134 8 146 -4 29 -29
81 15 55 47 -19 21 -44 30 -121 37 -57 6 -68 5 -68 -8 0 -8 -2 -21 -5 -28 -8
-21 41 -17 57 5 16 22 51 12 83 -22 l19 -22 -29 11 c-26 10 -62 9 -187 -5 -15
-2 -38 -11 -50 -19 -29 -20 -55 -20 -55 -1 0 9 6 14 12 11 6 -2 12 2 12 9 0
10 -5 11 -19 4 -10 -5 -18 -14 -18 -18 0 -5 -16 -4 -35 2 -19 6 -34 16 -33 23
2 7 -1 12 -7 11 -5 -1 -9 -5 -7 -9 1 -5 -2 -8 -8 -8 -5 0 -10 5 -10 10 0 6 -4
10 -10 10 -5 0 -3 -19 5 -41 20 -56 19 -68 -7 -78 -84 -32 -115 -48 -126 -63
-7 -9 -20 -15 -30 -13 -11 2 -25 -1 -33 -7 -11 -8 -10 -8 5 -4 16 5 17 4 7 -8
-10 -11 -16 -12 -25 -4 -9 9 -6 17 12 35 14 14 32 26 42 28 30 6 110 68 110
86 0 9 -8 27 -18 40 -12 15 -20 43 -21 73 -1 28 -8 57 -17 67 -13 15 -13 17 6
22 25 7 25 18 -1 50 -19 25 -22 26 -44 11 -15 -10 -25 -12 -30 -5 -3 6 -1 11
4 11 6 0 11 5 11 11 0 5 -4 8 -8 5 -5 -3 -9 2 -9 10 0 9 4 11 10 5 5 -5 16 -7
24 -4 16 6 73 -43 73 -63 0 -27 23 -25 85 6 l65 32 -28 21 c-15 12 -28 24 -30
28 -1 3 -14 4 -27 1 -14 -2 -32 1 -40 8 -9 7 -19 10 -22 6 -11 -10 17 -25 59
-32 46 -8 70 -31 42 -39 -11 -3 -32 -13 -47 -21 -36 -18 -47 -18 -47 -1 0 8
-9 22 -20 32 -12 10 -19 24 -16 31 6 16 -16 24 -51 18 -49 -8 -71 -25 -78 -60
-7 -41 24 -93 58 -96 12 -1 31 -2 42 -2 17 -1 20 -7 17 -46 -3 -36 2 -52 22
-79 14 -19 26 -38 26 -42 0 -17 -100 -70 -126 -67 -16 2 -29 -2 -32 -11 -3 -8
0 -11 7 -7 6 4 11 1 11 -8 0 -10 -6 -13 -15 -10 -10 4 -18 -2 -24 -17 -10 -29
-6 -38 23 -48 16 -7 31 0 67 30 25 21 70 48 100 59 83 33 89 43 64 103 -7 16
-3 16 48 -3 30 -11 71 -21 91 -22 20 -1 36 -6 36 -13 0 -15 43 -55 58 -55 7 0
12 7 12 15 0 13 4 14 21 4 24 -13 41 3 32 29 -5 12 -2 12 15 3 19 -10 21 -9
15 6 -5 14 -3 15 7 6 15 -14 5 -33 -17 -33 -13 0 -13 -3 -3 -15 17 -20 27 -19
33 5 4 16 14 20 52 20 25 0 55 5 66 11 16 8 26 7 44 -5 18 -12 25 -12 28 -3 3
8 10 6 21 -8 9 -12 15 -15 16 -7 0 20 54 11 58 -10 3 -15 -4 -18 -48 -18 -47
0 -51 -2 -48 -22 5 -37 -46 -43 -108 -13 -62 30 -64 30 -57 5 5 -17 0 -20 -28
-20 -19 0 -49 9 -67 20 l-33 20 -26 -20 c-30 -24 -77 -26 -126 -5 -50 21 -66
19 -60 -4 7 -27 -29 -44 -102 -46 -93 -3 -91 -2 -67 -25 32 -30 16 -52 -63
-90 -36 -17 -65 -34 -65 -38 0 -4 10 -12 23 -17 33 -15 34 -63 3 -122 -32 -59
-33 -77 -6 -68 29 9 46 -8 64 -63 24 -70 55 -117 69 -103 29 29 123 -12 195
-86 36 -37 39 -54 16 -78 -21 -21 -12 -30 52 -54 41 -16 49 -23 49 -45 -1 -14
4 -26 10 -27 34 -3 102 4 115 13 10 6 -3 7 -42 4 -52 -6 -58 -4 -58 12 0 25
-26 46 -77 60 -41 12 -41 13 -28 39 13 24 12 31 -2 53 -9 14 -22 29 -30 33
-19 12 -16 26 10 48 22 20 22 20 0 10 -31 -16 -41 -13 -19 4 11 8 29 15 41 15
16 0 20 -7 21 -30 1 -20 -2 -27 -10 -23 -6 3 -3 -3 8 -15 10 -12 16 -28 13
-36 -3 -8 1 -17 9 -20 8 -3 14 -11 14 -18 0 -9 -3 -9 -11 2 -7 10 -9 11 -7 2
2 -8 7 -13 11 -12 5 0 22 -17 40 -38 29 -35 93 -72 125 -72 19 0 14 -14 -13
-40 -33 -31 -32 -43 4 -35 21 4 30 2 35 -10 7 -20 -49 -112 -75 -120 -10 -4
-19 -11 -19 -16 0 -12 67 -12 75 1 3 6 17 7 29 4 14 -3 29 0 38 9 13 13 16 13
26 -4 7 -10 18 -19 25 -19 7 0 13 -9 14 -21 2 -22 20 -49 34 -49 4 0 13 15 20
34 8 22 21 37 36 41 13 3 23 10 23 15 0 7 6 7 18 1 77 -41 178 -44 112 -3 -29
18 -58 82 -55 122 2 33 5 35 46 42 24 5 49 6 56 3 7 -2 15 0 18 5 12 19 45 11
45 -10 0 -48 53 -8 65 49 7 31 8 32 23 17 12 -11 14 -20 7 -30 -58 -78 -57
-88 13 -119 29 -13 59 -37 74 -58 19 -26 34 -36 52 -36 14 0 26 4 26 9 0 5 4
7 9 4 5 -3 12 1 15 10 7 17 -40 63 -64 63 -11 0 -11 -2 3 -10 18 -10 18 -12 0
-32 -17 -20 -17 -21 0 -8 14 11 20 12 30 2 9 -10 8 -11 -7 -5 -12 5 -17 4 -13
-3 3 -5 -1 -10 -9 -10 -9 0 -26 15 -37 33 -13 19 -41 41 -69 53 -48 21 -64 50
-37 67 8 4 9 -1 4 -17 -7 -23 -7 -23 8 -4 9 12 11 22 6 26 -6 3 -3 11 6 19 8
7 15 19 15 27 0 7 7 16 15 19 8 4 15 10 15 15 0 6 -9 5 -21 -1 -16 -9 -24 -8
-37 3 -9 8 -27 18 -39 21 -21 7 -23 4 -23 -27 0 -22 -6 -37 -15 -41 -20 -7
-68 11 -60 24 4 6 12 7 18 3 18 -11 38 -12 31 -2 -3 5 -9 7 -14 4 -4 -3 -11 2
-14 11 -5 12 -2 15 11 10 15 -6 16 -5 5 6 -11 11 -16 9 -32 -12 -14 -19 -21
-22 -32 -12 -8 6 -19 8 -23 4 -5 -4 -5 -2 -2 4 4 7 0 18 -9 25 -13 10 -17 10
-24 0 -5 -10 -9 -10 -15 -2 -5 9 -10 9 -21 0 -10 -8 -14 -8 -14 0 0 16 -46 13
-60 -4 -7 -8 -16 -12 -21 -9 -5 3 -9 0 -9 -6 0 -7 9 -9 23 -5 12 4 29 9 38 11
10 3 30 -8 47 -26 17 -16 39 -30 49 -30 14 1 12 5 -11 25 -17 13 -34 21 -39
18 -5 -3 -8 0 -6 6 6 17 11 15 69 -17 51 -28 66 -49 28 -39 -12 3 -30 1 -40
-4 -14 -8 -27 -5 -53 11 -20 12 -33 25 -31 29 9 13 -69 -1 -87 -17 -13 -12
-20 -13 -29 -4 -18 18 -28 15 -38 -13 -12 -32 -47 -46 -91 -35 -34 9 -34 9 -4
8 58 -1 65 2 85 34 22 37 25 48 10 48 -6 0 -16 -11 -22 -25 -14 -30 -33 -33
-25 -4 4 17 3 18 -9 8 -8 -7 -12 -20 -9 -30 5 -16 1 -18 -30 -17 -20 1 -32 4
-28 7 4 3 13 15 19 26 12 21 98 57 110 46 4 -3 4 -1 0 6 -4 8 -15 9 -39 1 -48
-15 -59 -14 -65 1 -3 10 1 12 19 8 l24 -6 -25 19 c-30 22 -21 37 12 19 21 -11
22 -11 9 5 -8 9 -11 20 -7 24 4 4 12 -1 17 -11 6 -9 18 -17 27 -17 13 0 13 3
-5 15 -11 8 -23 24 -26 35 -4 16 0 20 19 20 13 0 24 -6 24 -12 1 -17 39 -62
46 -55 3 3 -3 16 -15 28 -12 13 -22 29 -22 36 -1 7 -2 20 -3 28 0 8 3 14 9 13
5 -2 8 -13 7 -25 -2 -11 2 -24 9 -29 9 -5 11 -1 7 13 -3 12 -2 27 3 34 7 11 9
11 9 1 0 -9 5 -10 18 -3 47 25 165 9 146 -20 -3 -5 0 -9 6 -9 7 0 10 7 6 15
-4 11 1 15 19 15 13 0 26 -4 29 -9 3 -5 28 -8 56 -8 28 1 50 -1 50 -5 0 -5
-26 -8 -57 -8 -32 0 -74 -4 -94 -9 -25 -6 -49 -4 -75 5 -51 18 -51 18 -64 -7
-22 -40 15 -63 123 -73 56 -6 67 -5 67 8 0 8 2 21 5 28 8 21 -41 17 -57 -5
-16 -22 -51 -12 -83 22 l-19 22 29 -11 c26 -10 62 -9 187 5 15 2 38 11 50 19
24 17 63 22 53 7 -3 -5 -1 -12 5 -16 5 -3 10 -2 10 3 0 6 13 6 35 -1 19 -6 34
-15 33 -21 -2 -6 2 -11 7 -11 6 0 9 3 8 7 -2 5 2 8 7 8 6 0 10 -4 10 -10 0 -5
4 -10 10 -10 5 0 3 19 -5 41 -20 56 -19 68 8 78 83 32 114 48 125 63 7 9 20
15 30 13 11 -2 25 1 33 7 11 8 10 8 -5 4 -16 -5 -17 -4 -7 8 10 11 16 12 25 4
9 -9 6 -17 -12 -35 -14 -14 -32 -26 -42 -28 -30 -6 -110 -68 -110 -86 0 -9 8
-27 18 -40 12 -15 20 -43 21 -73 1 -28 8 -57 17 -67 13 -15 13 -17 -6 -22 -25
-7 -25 -18 1 -50 19 -25 22 -26 44 -11 16 10 25 12 30 4 3 -6 10 -8 15 -5 5 3
11 1 14 -4 3 -5 -4 -11 -15 -14 -13 -4 -18 -10 -13 -18 4 -8 3 -10 -5 -5 -9 6
-9 11 0 22 9 10 9 14 0 14 -6 0 -14 -7 -17 -15 -4 -8 -12 -15 -18 -15 -15 0
-66 52 -66 67 0 25 -24 23 -85 -7 l-65 -32 28 -21 c15 -12 28 -24 30 -28 1 -3
14 -4 27 -1 14 2 32 -1 40 -8 9 -7 19 -10 22 -6 11 10 -17 25 -59 32 -46 8
-70 31 -42 39 11 3 32 13 47 21 36 18 47 18 47 1 0 -8 9 -22 20 -32 12 -10 19
-24 16 -31 -6 -16 16 -24 51 -18 49 8 71 25 78 60 7 41 -24 93 -58 96 -12 1
-31 2 -42 2 -17 1 -20 7 -17 46 3 36 -2 52 -22 79 -14 19 -26 38 -26 42 0 16
97 68 124 66 17 -1 31 4 34 12 3 8 0 11 -7 7 -6 -4 -11 -1 -11 8 0 10 6 13 15
10 10 -4 18 2 24 17 10 29 6 38 -23 48 -16 7 -31 0 -67 -30 -25 -21 -70 -48
-100 -59 -83 -33 -87 -40 -63 -104 6 -15 -1 -14 -49 4 -30 11 -71 21 -91 22
-20 1 -36 6 -36 13 0 15 -43 55 -58 55 -7 0 -12 -7 -12 -15 0 -13 -4 -14 -21
-4 -26 13 -45 -7 -27 -28 13 -16 4 -17 -22 -3 -16 9 -19 8 -13 -7 5 -14 3 -15
-7 -6 -15 14 -5 33 17 33 13 0 13 3 3 15 -16 19 -30 19 -30 1 0 -21 -18 -29
-62 -28 -22 1 -48 -3 -59 -9 -16 -8 -26 -7 -44 5 -18 12 -25 12 -28 3 -3 -8
-10 -6 -21 8 -9 12 -15 15 -16 7 0 -9 -10 -12 -27 -10 -31 3 -43 38 -23 63 10
13 16 12 41 0 37 -19 51 -19 47 2 -6 31 51 36 108 8 62 -30 64 -30 57 -5 -5
17 0 20 28 20 19 0 49 -9 67 -20 l33 -20 26 20 c30 24 77 26 126 5 50 -21 66
-19 60 4 -7 28 30 44 107 46 87 2 87 2 62 25 -12 12 -22 24 -22 29 0 13 32 36
93 65 31 15 57 31 57 34 0 4 -10 12 -22 17 -34 15 -35 63 -4 122 32 59 33 77
6 68 -29 -9 -46 8 -64 63 -9 26 -25 62 -36 80 -18 29 -23 32 -37 20 -9 -7 -26
-11 -37 -10 -52 9 -186 114 -186 146 0 8 7 22 16 31 21 21 12 30 -52 54 -39
15 -49 24 -49 42 0 33 -12 39 -65 32 -70 -9 -85 -25 -17 -18 45 4 58 2 54 -7
-2 -7 -11 -12 -20 -12 -9 1 -14 -2 -11 -8 3 -5 11 -7 17 -5 7 3 21 -3 32 -13
11 -9 39 -22 62 -28 41 -12 41 -13 28 -39 -13 -24 -12 -31 2 -53 9 -14 22 -29
30 -33 19 -12 16 -25 -13 -51 -25 -21 -26 -25 -16 -62 5 -21 10 -30 11 -20 1
17 7 18 55 13 84 -8 158 -55 193 -121 27 -52 12 -206 -19 -206 -5 0 -7 -4 -4
-9 14 -22 -81 -85 -164 -110 -69 -21 -236 -31 -261 -16 -7 5 -10 4 -5 -3 4 -7
-42 -10 -153 -9 -88 1 -157 -1 -155 -5 3 -4 -5 -12 -16 -18 -23 -12 -50 -60
-50 -89 0 -10 -3 -21 -7 -24 -5 -2 -3 -2 4 -1 6 2 18 -8 27 -21 8 -13 25 -26
36 -30 25 -8 26 -35 1 -35 -26 0 -84 42 -97 70 -6 14 -14 39 -17 57 -6 28 -1
37 39 75 52 49 72 59 111 52 20 -3 24 -2 14 5 -10 7 7 10 55 10 38 1 77 2 86
2 10 0 20 4 23 8 4 8 -101 6 -185 -4 -33 -4 -41 -2 -33 6 8 8 77 13 200 16
331 7 412 23 479 92 54 56 52 142 -4 204 -14 15 -21 27 -14 27 6 0 24 -16 39
-37 23 -30 28 -46 28 -97 0 -49 -5 -67 -25 -94 -51 -68 -171 -102 -363 -102
-60 0 -106 -4 -103 -9 5 -8 141 -6 244 4 72 7 155 32 185 56 34 26 44 24 21
-3 l-19 -23 22 18 c13 12 19 25 16 35 -5 11 -2 14 8 10 17 -7 20 8 22 107 2
60 -2 76 -23 107 -14 21 -30 38 -36 38 -6 0 -17 6 -23 14 -6 7 -34 16 -61 20
-28 4 -50 12 -51 19 0 7 -5 -3 -10 -20 -5 -18 -16 -33 -23 -33 -27 0 -66 -41
-66 -70 l0 -28 38 20 c63 35 133 1 138 -67 8 -95 -48 -114 -361 -120 -89 -1
-151 1 -143 6 9 6 9 9 1 9 -6 0 -15 -4 -18 -10 -3 -5 -23 -10 -43 -9 -52 0
-76 -4 -84 -16 -4 -6 -8 -1 -9 10 0 20 0 20 -10 0 -9 -20 -9 -20 -6 0 2 11 9
19 15 17 7 -1 15 4 18 12 3 8 13 12 24 9 10 -3 35 7 56 20 37 26 37 26 53 6
22 -27 49 -30 91 -9 34 17 36 17 58 -1 22 -17 26 -17 60 -3 21 8 41 19 46 25
16 15 26 11 26 -11 0 -11 4 -20 9 -20 5 0 16 -2 24 -6 8 -3 28 6 44 20 27 23
32 24 43 11 17 -21 54 -19 75 5 16 18 17 21 1 44 -9 14 -16 32 -16 40 0 24
-34 38 -56 22 -12 -9 -39 -12 -80 -10 -51 3 -67 0 -95 -19 -19 -13 -34 -28
-34 -34 0 -20 -12 -24 -25 -8 -18 22 -56 18 -97 -9 l-36 -25 -19 25 c-22 27
-52 27 -96 -2 -24 -16 -26 -16 -42 3 -19 24 -49 21 -98 -7 -41 -25 -42 -25
-42 -1 0 17 -18 31 -40 31 -5 0 -22 -11 -38 -25 -26 -22 -31 -23 -42 -10 -18
22 -57 18 -74 -7 -14 -20 -14 -25 -1 -45 8 -12 15 -29 15 -37 0 -25 34 -37 58
-21 11 8 27 12 35 9 9 -3 22 4 31 18 12 17 16 19 16 6 0 -22 -21 -42 -59 -58
-58 -24 -123 14 -127 75 -8 92 47 113 322 119 136 4 155 2 183 -15 24 -14 37
-17 49 -9 15 8 14 9 -5 7 -12 -1 -23 3 -25 8 -2 6 16 11 40 11 23 1 49 4 57 8
8 3 17 1 20 -4 4 -6 12 -10 18 -10 8 0 7 3 -2 9 -10 6 -3 12 25 22 22 7 45 12
53 10 7 -1 10 2 7 8 -4 5 2 15 13 20 33 18 90 95 97 131 10 58 12 142 1 128
-6 -9 -7 -6 -4 9 3 13 -1 24 -9 27 -8 3 -14 11 -14 18 0 9 3 9 11 -2 7 -10 9
-11 7 -2 -2 8 -6 12 -9 10 -2 -2 -21 16 -42 38 -20 23 -60 51 -88 64 l-51 22
26 27 c34 35 33 44 -3 36 -21 -4 -30 -2 -35 10 -7 20 49 112 75 120 10 4 19
11 19 16 0 12 -67 12 -75 -1 -3 -6 -17 -7 -29 -4 -14 3 -29 0 -38 -9 -13 -13
-16 -13 -26 4 -7 10 -19 19 -27 19 -9 0 -15 9 -15 23 0 22 -16 47 -31 47 -4 0
-13 -15 -20 -34z m37 -24 c-2 -15 -5 -27 -6 -27 -1 0 -3 -17 -5 -37 -2 -21 0
-38 4 -38 16 0 19 12 11 40 -7 23 -5 29 10 33 30 8 42 -13 18 -32 -19 -16 -19
-18 -3 -34 22 -23 52 -21 65 4 8 15 8 24 0 33 -13 17 10 29 30 16 8 -5 22 -3
34 6 32 22 42 16 16 -8 -14 -13 -27 -23 -30 -23 -16 -1 -30 -19 -26 -33 12
-37 -5 -41 -138 -35 -126 6 -128 6 -138 32 -5 14 -21 41 -35 60 l-26 33 24 -7
c13 -4 26 -12 27 -16 2 -5 15 -9 28 -9 15 0 23 -4 19 -10 -4 -6 -10 -8 -15 -5
-4 3 -6 -4 -3 -15 8 -29 38 -43 63 -30 24 13 26 38 5 46 -24 9 -17 24 10 24
16 0 25 6 25 16 0 23 20 55 30 49 5 -3 7 -18 6 -33z m-76 -78 c0 -8 -9 -14
-20 -14 -19 0 -27 19 -14 33 10 9 34 -4 34 -19z m160 1 c0 -9 -9 -15 -25 -15
-24 0 -32 10 -18 23 12 13 43 7 43 -8z m52 -17 c-7 -7 -12 -8 -12 -2 0 14 12
26 19 19 2 -3 -1 -11 -7 -17z m-18 -68 c6 -6 -14 -8 -55 -4 -35 3 -99 6 -141
6 -45 1 -78 5 -78 11 0 13 261 0 274 -13z m-844 0 c0 -5 -2 -10 -4 -10 -3 0
-8 5 -11 10 -3 6 -1 10 4 10 6 0 11 -4 11 -10z m703 -13 c20 1 37 -1 37 -2 0
-19 -22 -55 -30 -50 -8 5 -7 12 2 22 11 14 10 15 -9 9 -12 -4 -37 -3 -55 2
-18 4 -44 5 -58 1 -14 -4 -19 -7 -12 -8 6 -1 12 -6 12 -12 0 -8 -5 -7 -15 1
-9 7 -14 18 -12 24 5 14 56 26 82 18 11 -3 37 -5 58 -5z m-626 -5 c18 -11 -8
-47 -34 -48 -24 -1 -27 4 -17 30 3 8 12 12 21 9 11 -4 14 -2 9 5 -8 13 3 16
21 4z m723 -2 c0 -5 -7 -10 -15 -10 -14 0 -55 -54 -55 -72 0 -18 21 -6 32 17
13 30 33 34 25 5 -3 -11 -2 -20 3 -20 12 0 20 28 14 45 -5 11 2 14 30 13 20
-1 33 -4 28 -7 -5 -3 -11 -14 -15 -24 -4 -9 -19 -22 -34 -28 -15 -6 -36 -15
-46 -20 -10 -6 -23 -7 -30 -3 -9 5 -9 4 -1 -5 8 -9 20 -8 51 3 40 14 53 12 53
-7 0 -5 -9 -7 -19 -4 -10 2 -25 0 -32 -5 -11 -8 -10 -9 3 -5 18 6 57 -17 46
-28 -3 -4 -17 -1 -30 6 -21 11 -22 11 -9 -5 21 -25 6 -31 -18 -7 -12 12 -26
21 -31 21 -6 0 -26 16 -45 35 -19 19 -35 31 -35 27 0 -5 5 -13 11 -19 8 -8 1
-12 -25 -15 -28 -3 -33 -1 -24 9 5 7 14 10 19 7 5 -3 9 0 9 5 0 13 2 13 -40 1
-41 -13 -133 -22 -107 -12 15 6 12 11 -22 30 -49 28 -65 48 -31 39 13 -3 32
-1 42 4 14 8 27 5 53 -11 20 -12 33 -25 31 -29 -9 -13 69 1 87 17 13 12 20 13
29 4 18 -18 28 -15 38 13 8 20 30 37 58 44 1 1 2 -3 2 -9z m-794 -11 c3 -6 2
-15 -4 -21 -7 -7 -14 -3 -21 11 -10 17 -9 21 3 21 8 0 18 -5 22 -11z m847 4
c-7 -2 -21 -2 -30 0 -10 3 -4 5 12 5 17 0 24 -2 18 -5z m-494 -34 c-19 -12
-24 -2 -8 17 9 11 14 13 17 4 3 -7 -2 -16 -9 -21z m-259 11 c0 -5 -5 -10 -11
-10 -5 0 -7 5 -4 10 3 6 8 10 11 10 2 0 4 -4 4 -10z m525 -20 c8 0 17 5 21 12
4 7 3 8 -4 4 -7 -4 -12 -2 -12 3 0 13 3 13 24 5 23 -9 1 -34 -29 -34 -28 0
-35 8 -27 28 6 15 7 15 10 0 2 -10 10 -18 17 -18z m-281 -36 c3 -8 2 -12 -4
-9 -6 3 -10 10 -10 16 0 14 7 11 14 -7z m546 6 c0 -5 -5 -10 -12 -10 -6 0 -3
-7 8 -15 10 -8 15 -15 9 -15 -5 0 -3 -4 5 -10 20 -13 10 -19 -22 -13 -18 3
-25 10 -21 20 3 8 0 19 -7 23 -7 4 -9 13 -6 19 9 14 46 15 46 1z m95 -55 c73
-74 88 -167 43 -263 -39 -82 -134 -129 -276 -137 -48 -3 -160 -7 -249 -10 -89
-3 -184 -10 -211 -15 -80 -18 -120 -76 -100 -146 1 -5 -3 -20 -10 -34 -12 -22
-11 -23 1 -7 18 22 22 21 56 -4 16 -12 44 -21 62 -21 42 0 117 33 112 49 -8
22 13 78 29 78 9 0 20 4 25 9 16 16 74 35 88 29 14 -5 15 -19 6 -62 -1 -2 -11
7 -23 20 l-23 25 0 -61 c-1 -47 -6 -69 -26 -100 -29 -45 -51 -66 -72 -69 -8
-1 -23 -8 -33 -16 -26 -23 -169 -20 -214 4 -88 46 -123 102 -121 194 1 70 33
146 73 171 116 72 169 82 463 84 133 1 241 5 239 9 -3 4 5 12 16 18 23 12 50
60 50 89 0 10 6 22 13 24 6 3 2 6 -9 6 -12 1 -24 8 -28 16 -3 8 -17 20 -31 27
-38 17 -33 42 7 34 38 -8 75 -40 92 -81 14 -33 10 -95 -6 -95 -5 0 -7 -4 -4
-8 3 -5 -6 -20 -20 -35 -24 -26 -46 -32 -109 -29 -23 1 -26 -1 -15 -9 11 -7
-4 -9 -50 -9 -36 0 -94 -2 -130 -4 -36 -2 -110 -5 -165 -6 -112 -3 -223 -28
-266 -59 -37 -27 -47 -27 -23 2 l19 22 -22 -19 c-13 -10 -20 -22 -17 -27 3 -5
-5 -22 -17 -38 -30 -41 -24 -139 12 -193 13 -21 28 -38 33 -38 5 0 18 -8 28
-17 25 -23 185 -25 211 -3 73 61 91 97 88 173 -1 25 -3 27 -15 14 -8 -8 -14
-23 -14 -33 3 -33 -33 -93 -68 -114 -38 -24 -113 -29 -166 -11 -19 7 -45 28
-62 52 -25 35 -27 46 -23 91 6 54 40 103 65 93 7 -2 10 -1 7 5 -8 12 44 38 72
35 12 -1 19 3 16 8 -3 6 7 8 25 5 17 -2 29 -1 26 4 -3 4 2 8 11 8 10 0 13 -5
9 -12 -6 -9 -3 -9 9 0 9 8 31 12 49 11 18 -2 39 0 46 5 7 4 19 3 27 -4 9 -8
15 -8 20 0 5 8 11 7 23 -2 10 -9 13 -9 9 -1 -5 8 0 11 13 10 11 -1 20 -5 20
-10 0 -4 5 -5 12 -1 7 4 49 9 93 10 118 4 154 11 213 41 69 35 94 75 93 149 0
31 -5 62 -12 70 -6 8 -9 14 -6 14 3 0 -9 17 -28 37 -19 20 -31 41 -29 45 3 5
-2 20 -10 33 -16 24 -16 25 9 25 18 0 41 -15 70 -45z m-465 -17 c0 -4 -5 -8
-11 -8 -5 0 -7 -4 -4 -10 3 -6 -1 -7 -9 -4 -26 10 -19 31 9 31 8 0 15 -4 15
-9z m427 -71 c33 -53 33 -121 0 -174 -46 -72 -114 -90 -357 -92 -244 -2 -349
-19 -407 -64 -40 -31 -51 -47 -63 -90 -21 -74 25 -153 106 -182 22 -8 31 -14
21 -15 -58 -1 -130 66 -142 133 -22 116 58 193 223 217 56 7 309 19 445 20 21
0 36 3 34 8 -3 4 14 8 37 9 70 2 127 87 112 166 -5 25 -63 109 -69 100 -1 -1
-12 0 -25 4 -18 4 -20 8 -11 19 16 20 64 -10 96 -59z m-302 44 c3 -5 0 -13 -6
-17 -7 -4 -9 -3 -5 4 3 5 0 13 -6 15 -9 4 -10 6 -1 6 6 1 14 -3 18 -8z m205
-83 c27 -29 26 -73 -3 -102 -27 -27 -93 -35 -317 -35 -249 -1 -343 -24 -431
-103 -65 -58 -91 -191 -53 -265 22 -42 83 -115 93 -109 4 3 31 -4 61 -15 56
-20 133 -19 188 2 12 5 22 6 22 3 0 -12 78 63 106 102 18 25 23 27 38 15 23
-19 21 -23 -22 -50 -44 -27 -82 -78 -82 -109 0 -15 -6 -22 -19 -22 -28 0 -73
19 -67 28 5 8 -59 4 -84 -5 -8 -4 -21 -5 -29 -4 -10 2 -9 -3 4 -15 12 -12 14
-19 6 -22 -14 -5 -43 17 -36 28 3 4 -3 14 -13 21 -15 13 -16 12 -3 -3 17 -23
14 -22 -34 2 -45 23 -66 25 -83 8 -8 -8 -13 -5 -21 13 -35 91 -62 140 -84 150
l-25 11 24 52 c29 63 30 76 3 110 l-20 26 26 10 c14 5 29 10 32 10 3 0 22 12
41 26 29 22 33 31 28 55 -5 28 -5 29 39 29 51 0 93 16 116 43 14 18 18 18 45
5 37 -19 110 -15 134 7 17 15 21 15 59 -4 48 -25 74 -26 95 -6 14 14 18 14 45
0 49 -25 93 -19 131 17 19 17 31 25 28 16 -9 -23 5 -38 30 -31 26 6 30 22 5
18 -10 -1 -12 0 -5 2 6 3 12 10 12 16 0 8 3 7 9 -1 6 -10 10 -7 15 14 9 35
-14 59 -56 59 -17 0 -33 6 -35 13 -8 22 64 15 87 -10z m-423 5 c-4 -3 -2 -12
5 -20 17 -21 0 -28 -22 -8 -26 23 -25 35 2 35 12 0 18 -3 15 -7z m53 -26 c0
-4 -9 -3 -20 3 -11 6 -20 15 -20 20 0 6 9 5 20 -2 11 -7 20 -16 20 -21z m707
-9 c4 -7 8 -19 9 -26 2 -8 6 -17 10 -20 4 -4 4 1 1 11 -5 13 -3 17 5 14 7 -2
12 -10 10 -16 -1 -7 2 -10 7 -7 5 3 23 1 41 -6 25 -8 38 -8 52 1 15 10 20 8
27 -11 35 -90 62 -139 84 -149 l25 -11 -24 -52 c-29 -63 -30 -76 -3 -110 l20
-26 -26 -10 c-14 -5 -29 -10 -32 -10 -3 0 -22 -12 -41 -26 -29 -22 -33 -31
-28 -55 5 -28 5 -29 -39 -29 -54 0 -95 -15 -116 -42 -14 -17 -19 -19 -38 -8
-39 20 -85 21 -124 1 -37 -19 -38 -19 -77 0 -47 23 -74 24 -94 4 -14 -14 -18
-14 -45 0 -43 22 -93 19 -121 -7 -19 -18 -24 -19 -34 -7 -25 32 -76 -6 -76
-56 0 -20 42 -46 70 -43 12 2 25 -3 27 -9 3 -9 -7 -13 -31 -13 -69 0 -101 76
-53 124 27 27 94 35 315 35 240 1 350 27 433 103 62 57 95 206 57 257 -10 13
-18 33 -18 44 0 11 -3 18 -6 14 -3 -3 -19 10 -36 29 -16 19 -33 32 -37 30 -3
-2 -29 4 -56 13 -28 10 -67 17 -88 16 -23 -1 -37 3 -37 11 0 16 28 44 43 44 7
0 1 -9 -13 -20 -30 -23 -14 -27 18 -4 12 8 20 20 17 25 -4 5 -2 9 4 9 5 0 13
-6 18 -12z m29 -128 c42 -16 23 -21 -21 -5 -22 8 -32 14 -23 15 9 0 29 -5 44
-10z m30 -47 c35 -45 46 -76 40 -121 -6 -48 -41 -96 -64 -87 -7 2 -10 1 -7 -5
8 -12 -44 -38 -72 -35 -12 1 -19 -3 -16 -8 3 -6 -7 -8 -25 -5 -17 2 -29 1 -26
-4 3 -4 -2 -8 -11 -8 -10 0 -13 5 -9 13 6 8 3 8 -9 -1 -9 -8 -31 -12 -49 -11
-18 2 -39 0 -46 -5 -7 -4 -19 -3 -26 3 -7 6 -16 8 -20 4 -3 -4 -64 -8 -134 -9
-70 -1 -140 -5 -157 -8 -16 -3 -43 -1 -59 6 -28 11 -28 12 -6 20 23 9 120 15
372 23 87 3 180 10 206 16 80 17 120 76 100 145 -1 5 3 20 10 34 12 22 11 23
-1 8 -17 -22 -26 -22 -47 -3 -29 26 -73 34 -113 20 -20 -7 -37 -9 -37 -4 0 16
41 51 54 46 6 -3 20 1 30 8 15 11 26 11 63 0 25 -7 51 -22 59 -32z m-103 -88
c-1 -11 5 -24 13 -28 21 -12 17 -35 -8 -48 -19 -10 -24 -9 -36 9 -12 18 -18
20 -34 11 -24 -13 -40 3 -36 36 2 15 9 19 29 17 17 -1 29 3 33 14 8 22 41 13
39 -11z m-138 5 c4 -6 11 -8 16 -5 5 4 9 1 9 -5 0 -7 -7 -10 -15 -6 -10 4 -15
-1 -15 -15 0 -13 -4 -18 -12 -13 -7 5 -8 3 -3 -6 6 -9 4 -12 -6 -8 -8 3 -23 0
-34 -8 -26 -19 -32 -18 -37 11 -3 16 1 30 11 37 14 12 15 11 1 -6 -14 -18 -13
-19 3 -13 11 4 17 1 17 -9 0 -14 2 -14 15 0 8 8 15 20 15 26 0 6 4 9 9 5 5 -3
12 -1 15 4 4 5 -4 12 -16 14 -23 4 -23 4 -1 6 12 0 25 -4 28 -9z m-138 -56 c3
-8 12 -13 19 -10 15 6 20 -19 5 -28 -18 -11 -42 6 -36 25 8 25 -1 24 -54 -6
-52 -30 -77 -32 -93 -5 -16 26 -26 25 -70 -5 -37 -25 -58 -31 -58 -17 0 10 81
52 102 52 9 0 24 -10 33 -22 l16 -23 47 27 c54 31 80 35 89 12z m169 -1 c16
-21 18 -33 6 -33 -5 0 -14 10 -21 23 -11 21 -11 21 -6 -5 3 -16 1 -28 -5 -28
-17 0 -23 29 -10 45 16 19 20 19 36 -2z m-609 -8 c8 -22 -6 -33 -17 -15 -13
20 -12 30 0 30 6 0 13 -7 17 -15z m-117 -15 c9 -17 14 -18 32 -9 24 13 40 -3
36 -36 -2 -15 -10 -19 -27 -17 -13 1 -29 -5 -36 -15 -16 -22 -49 -10 -40 16 3
12 0 21 -10 25 -20 7 -19 33 3 45 24 15 30 14 42 -9z m88 -5 c17 -38 14 -43
-8 -15 -21 27 -25 40 -12 40 5 0 14 -11 20 -25z m51 -131 c-23 -37 -73 -74
-99 -74 -8 1 -1 7 15 14 37 16 82 67 92 104 5 20 8 22 11 9 2 -9 -6 -33 -19
-53z m-136 -81 c-7 -2 -21 -2 -30 0 -10 3 -4 5 12 5 17 0 24 -2 18 -5z m109
-137 c15 -16 25 -33 22 -38 -3 -4 -1 -8 5 -8 5 0 18 -14 28 -30 11 -20 31 -35
56 -42 27 -8 36 -16 32 -26 -3 -9 0 -19 6 -23 18 -11 0 -29 -29 -29 -23 1 -25
3 -12 13 13 10 12 15 -9 37 l-25 25 17 -27 c17 -28 17 -28 -7 -28 -55 0 -129
97 -140 183 -4 30 -2 35 12 29 9 -3 29 -19 44 -36z m45 20 c-7 -18 43 -88 68
-95 43 -13 47 -17 33 -29 -21 -17 -79 26 -103 76 -11 23 -27 43 -35 45 -8 2
-5 3 8 2 12 -1 22 2 22 6 0 5 3 9 6 9 3 0 4 -6 1 -14z m545 -3 c24 -22 23 -33
-4 -33 -17 0 -19 3 -10 9 11 7 11 9 -2 14 -9 4 -16 11 -16 17 0 15 11 12 32
-7z m-32 -23 c0 -6 -9 -5 -20 2 -11 7 -20 16 -20 21 0 4 9 3 20 -3 11 -6 20
-15 20 -20z m-183 -86 c-9 -9 -28 6 -21 18 4 6 10 6 17 -1 6 -6 8 -13 4 -17z
m140 -17 c-4 -13 -37 -18 -37 -6 0 5 5 9 11 9 5 0 7 4 4 10 -3 6 1 7 10 4 9
-4 14 -11 12 -17z m151 -82 c-3 -3 -9 2 -12 12 -6 14 -5 15 5 6 7 -7 10 -15 7
-18z m-248 -40 c31 -33 17 -47 -46 -46 -27 1 -64 2 -81 2 -37 0 -36 -1 -23 34
5 14 15 23 20 20 8 -5 7 -12 -2 -22 -11 -14 -10 -15 9 -9 12 4 37 3 55 -1 18
-5 43 -7 55 -5 18 3 20 6 10 17 -9 9 -14 10 -19 1 -5 -7 -8 -5 -8 7 0 19 -25
23 -36 5 -4 -7 -3 -8 4 -4 7 4 12 2 12 -3 0 -13 -3 -13 -24 -5 -13 5 -14 9 -5
20 18 22 53 17 79 -11z m230 -10 c-7 -9 -15 -13 -18 -10 -3 2 1 11 8 20 7 9
15 13 18 10 3 -2 -1 -11 -8 -20z m330 13 c0 -21 -13 -36 -27 -31 -11 4 -14 2
-9 -5 8 -13 5 -15 -18 -6 -24 9 -1 49 29 49 14 0 25 -3 25 -7z m-60 -2 c0 -3
-4 -8 -10 -11 -5 -3 -10 -1 -10 4 0 6 5 11 10 11 6 0 10 -2 10 -4z m99 -35
c-16 -5 -33 15 -24 30 6 9 12 7 22 -7 9 -13 10 -20 2 -23z m-666 -23 c44 -1
77 -5 77 -11 0 -12 -261 0 -274 13 -5 5 18 6 55 4 35 -3 99 -6 142 -6z m-1
-28 c66 0 69 -1 79 -27 6 -16 22 -43 36 -62 l26 -33 -24 7 c-13 4 -25 12 -27
16 -2 5 -15 9 -28 9 -15 0 -23 4 -19 10 4 6 10 8 15 5 4 -3 6 4 3 15 -8 29
-38 43 -63 30 -24 -13 -26 -38 -5 -46 23 -9 18 -24 -8 -24 -17 0 -25 -8 -32
-32 -6 -18 -14 -32 -20 -31 -11 3 -16 43 -7 58 12 18 11 76 0 73 -15 -5 -18
-47 -5 -55 6 -4 2 -10 -9 -13 -10 -4 -25 -3 -31 2 -10 8 -8 14 8 27 20 16 20
18 4 34 -22 23 -52 21 -65 -4 -8 -15 -8 -24 0 -33 13 -17 -10 -29 -30 -16 -8
5 -22 3 -34 -6 -29 -20 -43 -17 -20 4 10 10 22 18 25 18 14 -2 39 28 35 41 -3
7 -3 20 1 29 5 14 16 15 66 10 33 -3 91 -6 129 -6z m-210 -52 c-7 -7 -12 -8
-12 -2 0 14 12 26 19 19 2 -3 -1 -11 -7 -17z m96 0 c-7 -20 -48 -23 -48 -4 0
11 9 16 26 16 16 0 24 -5 22 -12z m152 -1 c0 -19 -10 -27 -26 -20 -21 8 -17
33 6 33 11 0 20 -6 20 -13z"/>
<path d="M924 1535 c17 -13 33 -22 37 -19 4 2 10 -2 12 -8 4 -9 6 -9 6 -1 1
15 -47 53 -68 53 -11 -1 -7 -8 13 -25z"/>
<path d="M1375 1423 c11 -23 20 -30 31 -26 14 5 14 7 -2 16 -11 6 -25 18 -32
26 -8 10 -7 3 3 -16z"/>
<path d="M1416 1303 c-6 -14 -5 -15 5 -6 7 7 10 15 7 18 -3 3 -9 -2 -12 -12z"/>
<path d="M1415 1240 c-3 -5 -1 -10 4 -10 6 0 11 5 11 10 0 6 -2 10 -4 10 -3 0
-8 -4 -11 -10z"/>
<path d="M1275 1205 c-22 -19 -25 -23 -9 -19 11 3 25 14 32 25 15 24 14 24
-23 -6z"/>
<path d="M798 1143 c6 -2 18 -2 25 0 6 3 1 5 -13 5 -14 0 -19 -2 -12 -5z"/>
<path d="M582 995 c4 -4 3 -14 -4 -22 -6 -7 -8 -16 -5 -19 3 -3 10 3 16 15 8
15 8 22 -1 27 -7 4 -10 4 -6 -1z"/>
<path d="M565 890 c2 -27 15 -38 15 -12 0 11 -4 23 -8 26 -5 3 -8 -4 -7 -14z"/>
<path d="M476 887 c3 -10 9 -15 12 -12 3 3 0 11 -7 18 -10 9 -11 8 -5 -6z"/>
<path d="M780 820 c-9 -6 -10 -10 -3 -10 6 0 15 5 18 10 8 12 4 12 -15 0z"/>
<path d="M442 1034 c-1 -13 0 -24 2 -24 7 0 14 40 7 44 -4 3 -8 -6 -9 -20z"/>
<path d="M415 1040 c-3 -5 -1 -10 4 -10 6 0 11 5 11 10 0 6 -2 10 -4 10 -3 0
-8 -4 -11 -10z"/>
<path d="M811 683 c-1 -17 16 -25 25 -12 4 7 3 9 -4 5 -5 -3 -13 0 -15 6 -4 9
-6 10 -6 1z"/>
<path d="M1791 924 c0 -11 3 -14 6 -6 3 7 2 16 -1 19 -3 4 -6 -2 -5 -13z"/>
<path d="M1810 909 c0 -5 5 -7 10 -4 6 3 10 8 10 11 0 2 -4 4 -10 4 -5 0 -10
-5 -10 -11z"/>
<path d="M1660 1072 c0 -11 4 -23 8 -26 10 -6 9 30 -1 40 -4 4 -7 -2 -7 -14z"/>
<path d="M1651 981 c-8 -15 -8 -22 1 -27 7 -4 10 -4 6 1 -4 4 -3 14 4 22 6 7
8 16 5 19 -3 3 -10 -3 -16 -15z"/>
<path d="M1430 880 c-9 -6 -10 -10 -3 -10 6 0 15 5 18 10 8 12 4 12 -15 0z"/>
<path d="M807 579 c4 -13 8 -18 11 -10 2 7 -1 18 -6 23 -8 8 -9 4 -5 -13z"/>
<path d="M831 551 c-11 -7 -9 -10 8 -16 11 -3 21 -11 21 -16 0 -6 -6 -7 -12
-3 -7 4 -9 3 -5 -1 4 -5 14 -10 22 -11 13 -2 12 2 0 27 -17 33 -15 32 -34 20z"/>
<path d="M1135 259 c-4 -6 -5 -12 -2 -15 2 -3 7 2 10 11 7 17 1 20 -8 4z"/>
<path d="M640 1581 c-22 -6 -23 -8 -7 -14 26 -10 39 -9 33 2 -4 5 0 12 6 14
19 8 -3 6 -32 -2z"/>
<path d="M585 1540 c6 -10 -13 -14 -47 -11 -14 2 -18 -5 -17 -26 1 -23 2 -24
7 -8 9 26 58 32 83 9 24 -22 24 -29 -3 -54 -12 -11 -17 -20 -11 -20 14 0 43
34 43 51 0 8 -11 27 -25 42 -26 27 -42 36 -30 17z"/>
<path d="M545 1489 c-4 -6 -4 -13 -1 -16 3 -4 6 -1 6 6 0 7 5 9 12 5 7 -4 8
-3 4 4 -9 15 -13 15 -21 1z"/>
<path d="M690 1490 c0 -5 5 -10 10 -10 6 0 10 5 10 10 0 6 -4 10 -10 10 -5 0
-10 -4 -10 -10z"/>
<path d="M808 1482 c-21 -2 -38 -8 -38 -13 0 -6 -4 -7 -10 -4 -5 3 -10 2 -10
-4 0 -6 -11 -13 -25 -17 -14 -3 -25 -10 -25 -15 0 -12 5 -11 47 6 43 18 53 19
53 3 0 -28 17 -41 36 -29 11 6 13 11 7 11 -7 0 -13 4 -13 9 0 5 9 7 20 4 11
-3 20 0 20 6 0 6 -7 11 -15 11 -8 0 -15 4 -15 9 0 5 7 8 16 7 9 0 19 4 21 11
2 7 -4 11 -14 10 -10 -1 -35 -3 -55 -5z m21 -19 c0 -5 -4 -17 -9 -28 -8 -18
-9 -17 -9 8 -1 15 4 27 9 27 6 0 10 -3 9 -7z"/>
<path d="M1440 1472 c0 -12 19 -26 26 -19 2 2 -2 10 -11 17 -9 8 -15 8 -15 2z"/>
<path d="M1078 1463 c-16 -4 -16 -6 -3 -19 8 -9 15 -27 15 -42 0 -19 3 -23 11
-15 7 7 9 22 4 40 -5 15 -8 31 -7 36 1 4 1 6 0 6 -2 -1 -11 -3 -20 -6z"/>
<path d="M663 1443 c-10 -3 -10 -9 0 -24 6 -10 16 -19 21 -19 6 0 5 5 -1 11
-6 6 -9 18 -6 25 5 15 5 15 -14 7z"/>
<path d="M764 1404 c-18 -14 -18 -15 4 -4 12 6 22 13 22 15 0 8 -5 6 -26 -11z"/>
<path d="M560 1398 c0 -9 7 -22 17 -29 15 -13 15 -12 3 11 -17 34 -20 36 -20
18z"/>
<path d="M965 1370 c3 -5 12 -7 20 -3 21 7 19 13 -6 13 -11 0 -18 -4 -14 -10z"/>
<path d="M1470 1190 c0 -5 4 -10 9 -10 6 0 13 5 16 10 3 6 -1 10 -9 10 -9 0
-16 -4 -16 -10z"/>
<path d="M1395 1099 c-3 -4 2 -6 10 -5 21 3 28 13 10 13 -9 0 -18 -4 -20 -8z"/>
<path d="M1490 1085 c-7 -8 -9 -15 -6 -15 4 0 14 7 22 15 9 8 11 15 6 15 -5 0
-15 -7 -22 -15z"/>
<path d="M1750 1071 c0 -6 4 -13 10 -16 6 -3 7 1 4 9 -7 18 -14 21 -14 7z"/>
<path d="M997 1019 c7 -7 15 -10 18 -7 3 3 -2 9 -12 12 -14 6 -15 5 -6 -5z"/>
<path d="M1050 928 c0 -11 28 -10 35 1 3 6 -4 9 -15 8 -11 -1 -20 -5 -20 -9z"/>
<path d="M1210 936 c0 -2 9 -6 20 -9 11 -3 18 -1 14 4 -5 9 -34 13 -34 5z"/>
<path d="M736 865 c-11 -8 -15 -15 -9 -15 6 0 16 7 23 15 16 19 11 19 -14 0z"/>
<path d="M1250 580 c-9 -6 -10 -10 -3 -10 6 0 15 5 18 10 8 12 4 12 -15 0z"/>
<path d="M1661 566 c7 -15 15 -23 17 -16 3 7 -3 19 -13 28 -15 16 -16 15 -4
-12z"/>
<path d="M1135 557 c-10 -25 10 -67 32 -67 14 0 15 2 5 9 -8 5 -17 24 -22 42
-6 28 -9 31 -15 16z"/>
<path d="M1503 555 c0 -8 4 -12 9 -9 5 3 6 10 3 15 -9 13 -12 11 -12 -6z"/>
<path d="M1464 545 c-16 -12 -17 -14 -3 -15 9 0 19 7 23 15 7 19 5 19 -20 0z"/>
<path d="M1400 540 c-10 -6 -11 -10 -2 -10 6 0 12 -4 12 -9 0 -5 -9 -7 -20 -4
-11 3 -20 0 -20 -6 0 -6 7 -11 15 -11 8 0 15 -4 15 -10 0 -5 -6 -7 -14 -4 -7
3 -16 -1 -19 -9 -4 -11 5 -13 46 -9 29 3 55 10 59 16 4 6 8 7 8 3 0 -5 7 -1
16 7 8 9 22 16 30 16 8 0 14 5 14 10 0 13 -4 13 -47 -5 -47 -20 -50 -19 -57
10 -7 27 -13 30 -36 15z m26 -58 c-11 -10 -15 4 -8 28 l7 25 3 -23 c2 -13 1
-26 -2 -30z"/>
<path d="M1557 539 c6 -6 9 -18 6 -25 -4 -10 0 -12 10 -8 13 5 14 9 4 25 -6
10 -16 19 -21 19 -6 0 -5 -5 1 -11z"/>
<path d="M1625 510 c-4 -6 -10 -8 -14 -6 -4 3 -8 -8 -9 -23 -1 -19 7 -36 30
-57 17 -16 28 -23 24 -16 -7 12 7 16 49 13 16 -2 17 0 5 8 -8 6 -25 8 -38 4
-14 -3 -30 1 -42 12 -25 23 -25 30 2 55 12 11 17 20 10 20 -6 0 -14 -5 -17
-10z"/>
<path d="M780 491 c0 -6 4 -13 10 -16 6 -3 7 1 4 9 -7 18 -14 21 -14 7z"/>
<path d="M1090 496 c0 -5 16 -24 35 -42 32 -29 51 -34 23 -6 -9 9 -5 12 19 12
32 0 51 14 34 24 -5 4 -12 2 -16 -4 -3 -5 -15 -10 -26 -10 -11 0 -18 4 -14 9
3 5 1 12 -5 16 -6 3 -13 -1 -16 -10 -6 -14 -8 -14 -20 2 -7 10 -14 14 -14 9z"/>
<path d="M1686 463 c-6 -14 -5 -15 5 -6 7 7 10 15 7 18 -3 3 -9 -2 -12 -12z"/>
<path d="M1530 460 c0 -5 5 -10 10 -10 6 0 10 5 10 10 0 6 -4 10 -10 10 -5 0
-10 -4 -10 -10z"/>
<path d="M1711 454 c0 -11 3 -14 6 -6 3 7 2 16 -1 19 -3 4 -6 -2 -5 -13z"/>
<path d="M1574 381 c4 -5 3 -11 -1 -14 -5 -2 -2 -2 5 0 8 1 21 3 30 3 15 0 15
2 2 10 -19 12 -43 13 -36 1z"/>
</g>
</svg>
